999
dxflib 3.17.0.0
  0
SECTION
  2
HEADER
  9
$ACADVER
  1
AC1015
  9
$HANDSEED
  5
FFFF
  9
$INSUNITS
 70
4
  9
$DIMEXE
 40
1.25
  9
$TEXTSTYLE
  7
Standard
  9
$LIMMIN
 10
0.0
 20
0.0
  0
ENDSEC
  0
SECTION
  2
TABLES
  0
TABLE
  2
VPORT
  5
8
100
AcDbSymbolTable
 70
1
  0
VPORT
  5
30
100
AcDbSymbolTableRecord
100
AcDbViewportTableRecord
  2
*Active
 70
0
 10
0.0
 20
0.0
 11
1.0
 21
1.0
 12
286.30555555555549
 22
148.5
 13
0.0
 23
0.0
 14
10.0
 24
10.0
 15
10.0
 25
10.0
 16
0.0
 26
0.0
 36
1.0
 17
0.0
 27
0.0
 37
0.0
 40
297.0
 41
1.92798353909465
 42
50.0
 43
0.0
 44
0.0
 50
0.0
 51
0.0
 71
0
 72
100
 73
1
 74
3
 75
1
 76
1
 77
0
 78
0
281
0
 65
1
110
0.0
120
0.0
130
0.0
111
1.0
121
0.0
131
0.0
112
0.0
122
1.0
132
0.0
 79
0
146
0.0
  0
ENDTAB
  0
TABLE
  2
LTYPE
  5
5
100
AcDbSymbolTable
 70
25
  0
LTYPE
  5
14
100
AcDbSymbolTableRecord
100
AcDbLinetypeTableRecord
  2
BYBLOCK
 70
0
  3

 72
65
 73
0
 40
0.0
  0
LTYPE
  5
15
100
AcDbSymbolTableRecord
100
AcDbLinetypeTableRecord
  2
BYLAYER
 70
0
  3

 72
65
 73
0
 40
0.0
  0
LTYPE
  5
16
100
AcDbSymbolTableRecord
100
AcDbLinetypeTableRecord
  2
CONTINUOUS
 70
0
  3
Solid line
 72
65
 73
0
 40
0.0
  0
LTYPE
  5
31
100
AcDbSymbolTableRecord
100
AcDbLinetypeTableRecord
  2
ACAD_ISO02W100
 70
0
  3

 72
65
 73
0
 40
0.0
  0
LTYPE
  5
32
100
AcDbSymbolTableRecord
100
AcDbLinetypeTableRecord
  2
ACAD_ISO03W100
 70
0
  3

 72
65
 73
0
 40
0.0
  0
LTYPE
  5
33
100
AcDbSymbolTableRecord
100
AcDbLinetypeTableRecord
  2
ACAD_ISO04W100
 70
0
  3

 72
65
 73
0
 40
0.0
  0
LTYPE
  5
34
100
AcDbSymbolTableRecord
100
AcDbLinetypeTableRecord
  2
ACAD_ISO05W100
 70
0
  3

 72
65
 73
0
 40
0.0
  0
LTYPE
  5
35
100
AcDbSymbolTableRecord
100
AcDbLinetypeTableRecord
  2
BORDER
 70
0
  3

 72
65
 73
0
 40
0.0
  0
LTYPE
  5
36
100
AcDbSymbolTableRecord
100
AcDbLinetypeTableRecord
  2
BORDER2
 70
0
  3

 72
65
 73
0
 40
0.0
  0
LTYPE
  5
37
100
AcDbSymbolTableRecord
100
AcDbLinetypeTableRecord
  2
BORDERX2
 70
0
  3

 72
65
 73
0
 40
0.0
  0
LTYPE
  5
38
100
AcDbSymbolTableRecord
100
AcDbLinetypeTableRecord
  2
CENTER
 70
0
  3

 72
65
 73
0
 40
0.0
  0
LTYPE
  5
39
100
AcDbSymbolTableRecord
100
AcDbLinetypeTableRecord
  2
CENTER2
 70
0
  3

 72
65
 73
0
 40
0.0
  0
LTYPE
  5
3A
100
AcDbSymbolTableRecord
100
AcDbLinetypeTableRecord
  2
CENTERX2
 70
0
  3

 72
65
 73
0
 40
0.0
  0
LTYPE
  5
3B
100
AcDbSymbolTableRecord
100
AcDbLinetypeTableRecord
  2
DASHDOT
 70
0
  3

 72
65
 73
0
 40
0.0
  0
LTYPE
  5
3C
100
AcDbSymbolTableRecord
100
AcDbLinetypeTableRecord
  2
DASHDOT2
 70
0
  3

 72
65
 73
0
 40
0.0
  0
LTYPE
  5
3D
100
AcDbSymbolTableRecord
100
AcDbLinetypeTableRecord
  2
DASHDOTX2
 70
0
  3

 72
65
 73
0
 40
0.0
  0
LTYPE
  5
3E
100
AcDbSymbolTableRecord
100
AcDbLinetypeTableRecord
  2
DASHED
 70
0
  3

 72
65
 73
0
 40
0.0
  0
LTYPE
  5
3F
100
AcDbSymbolTableRecord
100
AcDbLinetypeTableRecord
  2
DASHED2
 70
0
  3

 72
65
 73
0
 40
0.0
  0
LTYPE
  5
40
100
AcDbSymbolTableRecord
100
AcDbLinetypeTableRecord
  2
DASHEDX2
 70
0
  3

 72
65
 73
0
 40
0.0
  0
LTYPE
  5
41
100
AcDbSymbolTableRecord
100
AcDbLinetypeTableRecord
  2
DIVIDE
 70
0
  3

 72
65
 73
0
 40
0.0
  0
LTYPE
  5
42
100
AcDbSymbolTableRecord
100
AcDbLinetypeTableRecord
  2
DIVIDE2
 70
0
  3

 72
65
 73
0
 40
0.0
  0
LTYPE
  5
43
100
AcDbSymbolTableRecord
100
AcDbLinetypeTableRecord
  2
DIVIDEX2
 70
0
  3

 72
65
 73
0
 40
0.0
  0
LTYPE
  5
44
100
AcDbSymbolTableRecord
100
AcDbLinetypeTableRecord
  2
DOT
 70
0
  3

 72
65
 73
0
 40
0.0
  0
LTYPE
  5
45
100
AcDbSymbolTableRecord
100
AcDbLinetypeTableRecord
  2
DOT2
 70
0
  3

 72
65
 73
0
 40
0.0
  0
LTYPE
  5
46
100
AcDbSymbolTableRecord
100
AcDbLinetypeTableRecord
  2
DOTX2
 70
0
  3

 72
65
 73
0
 40
0.0
  0
ENDTAB
  0
TABLE
  2
LAYER
  5
2
100
AcDbSymbolTable
 70
1
  0
LAYER
  5
10
100
AcDbSymbolTableRecord
100
AcDbLayerTableRecord
  2
0
 70
0
 62
-1
420
0
  6
CONTINUOUS
370
1
390
F
  0
ENDTAB
  0
STYLE
  5
47
100
AcDbSymbolTableRecord
100
AcDbTextStyleTableRecord
  2

 70
0
 40
0.0
 41
0.0
 50
0.0
 71
0
 42
0.0
  3

  4

1001
ACAD
1000

1071
0
  0
TABLE
  2
VIEW
  5
6
100
AcDbSymbolTable
 70
0
  0
ENDTAB
  0
TABLE
  2
UCS
  5
7
100
AcDbSymbolTable
 70
0
  0
ENDTAB
  0
TABLE
  2
APPID
  5
9
100
AcDbSymbolTable
 70
1
  0
APPID
  5
12
100
AcDbSymbolTableRecord
100
AcDbRegAppTableRecord
  2
ACAD
 70
0
  0
ENDTAB
  0
TABLE
  2
DIMSTYLE
  5
A
100
AcDbSymbolTable
 70
1
100
AcDbDimStyleTable
 71
0
  0
DIMSTYLE
105
27
100
AcDbSymbolTableRecord
100
AcDbDimStyleTableRecord
  2
Standard
 41
1.0
 42
1.0
 43
3.75
 44
1.0
 70
0
 73
0
 74
0
 77
1
 78
8
140
1.0
141
2.5
143
0.03937007874016
147
1.0
171
3
172
1
271
2
272
2
274
3
278
44
283
0
284
8
340
0
  0
ENDTAB
  0
TABLE
  2
BLOCK_RECORD
  5
1
100
AcDbSymbolTable
 70
1
  0
BLOCK_RECORD
  5
1F
100
AcDbSymbolTableRecord
100
AcDbBlockTableRecord
  2
*Model_Space
340
22
  0
BLOCK_RECORD
  5
1B
100
AcDbSymbolTableRecord
100
AcDbBlockTableRecord
  2
*Paper_Space
340
1E
  0
BLOCK_RECORD
  5
23
100
AcDbSymbolTableRecord
100
AcDbBlockTableRecord
  2
*Paper_Space0
340
26
  0
BLOCK_RECORD
  5
48
100
AcDbSymbolTableRecord
100
AcDbBlockTableRecord
  2
myblock1
340
0
  0
BLOCK_RECORD
  5
49
100
AcDbSymbolTableRecord
100
AcDbBlockTableRecord
  2
myblock2
340
0
  0
ENDTAB
  0
ENDSEC
  0
SECTION
  2
BLOCKS
  0
BLOCK
  5
20
100
AcDbEntity
  8
0
100
AcDbBlockBegin
  2
*Model_Space
 70
0
 10
0.0
 20
0.0
 30
0.0
  3
*Model_Space
  1

  0
ENDBLK
  5
21
100
AcDbEntity
  8
0
100
AcDbBlockEnd
  0
BLOCK
  5
1C
100
AcDbEntity
 67
1
  8
0
100
AcDbBlockBegin
  2
*Paper_Space
 70
0
 10
0.0
 20
0.0
 30
0.0
  3
*Paper_Space
  1

  0
ENDBLK
  5
1D
100
AcDbEntity
 67
1
  8
0
100
AcDbBlockEnd
  0
BLOCK
  5
24
100
AcDbEntity
  8
0
100
AcDbBlockBegin
  2
*Paper_Space0
 70
0
 10
0.0
 20
0.0
 30
0.0
  3
*Paper_Space0
  1

  0
ENDBLK
  5
25
100
AcDbEntity
  8
0
100
AcDbBlockEnd
  0
BLOCK
  5
4A
100
AcDbEntity
  8
0
100
AcDbBlockBegin
  2
myblock1
 70
0
 10
0.0
 20
0.0
 30
0.0
  3
myblock1
  1

  0
ENDBLK
  5
4B
100
AcDbEntity
  8
0
100
AcDbBlockEnd
  0
BLOCK
  5
4C
100
AcDbEntity
  8
0
100
AcDbBlockBegin
  2
myblock2
 70
0
 10
0.0
 20
0.0
 30
0.0
  3
myblock2
  1

  0
ENDBLK
  5
4D
100
AcDbEntity
  8
0
100
AcDbBlockEnd
  0
ENDSEC
  0
SECTION
  2
ENTITIES
  0
LWPOLYLINE
  5
4E
100
AcDbEntity
  8
0
 62
-1
420
0
370
1
 48
1.0
  6
CONTINUOUS
100
AcDbPolyline
 90
35
 70
0
 10
446.85342407226562
 20
293.84628295898437
 30
0.0
 10
447.03594970703125
 20
293.86383056640625
 30
0.0
 10
447.20346069335938
 20
293.9163818359375
 30
0.0
 10
447.35595703125
 20
293.99884033203125
 30
0.0
 10
447.490966796875
 20
294.10885620117187
 30
0.0
 10
447.6009521484375
 20
294.24383544921875
 30
0.0
 10
447.68341064453125
 20
294.39639282226562
 30
0.0
 10
447.73577880859375
 20
294.56381225585938
 30
0.0
 10
447.75335693359375
 20
294.74627685546875
 30
0.0
 10
447.73590087890625
 20
294.92623901367187
 30
0.0
 10
447.68338012695312
 20
295.0963134765625
 30
0.0
 10
447.60079956054687
 20
295.24884033203125
 30
0.0
 10
447.49093627929687
 20
295.38128662109375
 30
0.0
 10
447.3558349609375
 20
295.49130249023437
 30
0.0
 10
447.203369140625
 20
295.57379150390625
 30
0.0
 10
447.035888671875
 20
295.6263427734375
 30
0.0
 10
446.85345458984375
 20
295.64382934570312
 30
0.0
 10
446.67092895507812
 20
295.62631225585937
 30
0.0
 10
446.50344848632812
 20
295.57379150390625
 30
0.0
 10
446.35092163085937
 20
295.4913330078125
 30
0.0
 10
446.21591186523437
 20
295.38131713867187
 30
0.0
 10
446.10595703125
 20
295.248779296875
 30
0.0
 10
446.02352905273438
 20
295.09640502929687
 30
0.0
 10
445.970947265625
 20
294.92623901367187
 30
0.0
 10
445.95352172851562
 20
294.74615478515625
 30
0.0
 10
445.9708251953125
 20
294.56378173828125
 30
0.0
 10
446.02340698242187
 20
294.39633178710937
 30
0.0
 10
446.10592651367187
 20
294.24386596679687
 30
0.0
 10
446.21597290039062
 20
294.10882568359375
 30
0.0
 10
446.35086059570312
 20
293.99880981445312
 30
0.0
 10
446.50341796875
 20
293.9163818359375
 30
0.0
 10
446.6708984375
 20
293.86380004882812
 30
0.0
 10
446.85342407226562
 20
293.84628295898437
 30
0.0
 10
446.85342407226562
 20
293.84628295898437
 30
0.0
 10
446.85342407226562
 20
293.84628295898437
 30
0.0
  0
LWPOLYLINE
  5
4F
100
AcDbEntity
  8
0
 62
-1
420
0
370
1
 48
1.0
  6
CONTINUOUS
100
AcDbPolyline
 90
35
 70
0
 10
453.15097045898437
 20
293.84640502929687
 30
0.0
 10
453.3333740234375
 20
293.86386108398437
 30
0.0
 10
453.5008544921875
 20
293.9163818359375
 30
0.0
 10
453.65338134765625
 20
293.99887084960937
 30
0.0
 10
453.788330078125
 20
294.10894775390625
 30
0.0
 10
453.8984375
 20
294.24392700195312
 30
0.0
 10
453.98086547851562
 20
294.39639282226562
 30
0.0
 10
454.03329467773437
 20
294.56387329101563
 30
0.0
 10
454.05084228515625
 20
294.74630737304687
 30
0.0
 10
454.0333251953125
 20
294.92633056640625
 30
0.0
 10
453.98092651367187
 20
295.09637451171875
 30
0.0
 10
453.89840698242187
 20
295.24887084960937
 30
0.0
 10
453.78836059570312
 20
295.38137817382812
 30
0.0
 10
453.65335083007812
 20
295.49127197265625
 30
0.0
 10
453.50091552734375
 20
295.5738525390625
 30
0.0
 10
453.33352661132812
 20
295.62640380859375
 30
0.0
 10
453.15090942382812
 20
295.64385986328125
 30
0.0
 10
452.96841430664062
 20
295.6263427734375
 30
0.0
 10
452.80084228515625
 20
295.57388305664062
 30
0.0
 10
452.6484375
 20
295.49142456054687
 30
0.0
 10
452.513427734375
 20
295.38134765625
 30
0.0
 10
452.40347290039062
 20
295.2489013671875
 30
0.0
 10
452.3209228515625
 20
295.09640502929687
 30
0.0
 10
452.26840209960938
 20
294.92630004882812
 30
0.0
 10
452.25088500976562
 20
294.74642944335937
 30
0.0
 10
452.26837158203125
 20
294.5638427734375
 30
0.0
 10
452.32089233398437
 20
294.39639282226562
 30
0.0
 10
452.403564453125
 20
294.24380493164062
 30
0.0
 10
452.51339721679687
 20
294.10891723632812
 30
0.0
 10
452.64840698242187
 20
293.99880981445312
 30
0.0
 10
452.80093383789062
 20
293.91629028320312
 30
0.0
 10
452.96841430664062
 20
293.86383056640625
 30
0.0
 10
453.15097045898437
 20
293.84640502929687
 30
0.0
 10
453.15097045898437
 20
293.84640502929687
 30
0.0
 10
453.15097045898437
 20
293.84640502929687
 30
0.0
  0
LWPOLYLINE
  5
50
100
AcDbEntity
  8
0
 62
-1
420
0
370
1
 48
1.0
  6
CONTINUOUS
100
AcDbPolyline
 90
35
 70
0
 10
446.85086059570312
 20
304.34881591796875
 30
0.0
 10
447.03335571289062
 20
304.36627197265625
 30
0.0
 10
447.20086669921875
 20
304.41873168945312
 30
0.0
 10
447.3533935546875
 20
304.50115966796875
 30
0.0
 10
447.48837280273437
 20
304.61123657226562
 30
0.0
 10
447.59835815429687
 20
304.74380493164062
 30
0.0
 10
447.68081665039062
 20
304.89627075195312
 30
0.0
 10
447.73330688476562
 20
305.06619262695312
 30
0.0
 10
447.75091552734375
 20
305.24615478515625
 30
0.0
 10
447.73333740234375
 20
305.42877197265625
 30
0.0
 10
447.680908203125
 20
305.59622192382812
 30
0.0
 10
447.59835815429687
 20
305.74880981445312
 30
0.0
 10
447.48837280273437
 20
305.88375854492187
 30
0.0
 10
447.35336303710938
 20
305.9937744140625
 30
0.0
 10
447.20086669921875
 20
306.07632446289062
 30
0.0
 10
447.0333251953125
 20
306.12872314453125
 30
0.0
 10
446.85076904296875
 20
306.14627075195312
 30
0.0
 10
446.66827392578125
 20
306.12872314453125
 30
0.0
 10
446.50094604492187
 20
306.07635498046875
 30
0.0
 10
446.34591674804687
 20
305.99374389648437
 30
0.0
 10
446.21337890625
 20
305.88369750976562
 30
0.0
 10
446.10333251953125
 20
305.748779296875
 30
0.0
 10
446.01834106445312
 20
305.59622192382812
 30
0.0
 10
445.9659423828125
 20
305.42877197265625
 30
0.0
 10
445.9483642578125
 20
305.24624633789062
 30
0.0
 10
445.96591186523437
 20
305.06622314453125
 30
0.0
 10
446.01837158203125
 20
304.89633178710937
 30
0.0
 10
446.1033935546875
 20
304.74374389648437
 30
0.0
 10
446.21343994140625
 20
304.61123657226562
 30
0.0
 10
446.34585571289062
 20
304.50131225585937
 30
0.0
 10
446.50091552734375
 20
304.4188232421875
 30
0.0
 10
446.66836547851562
 20
304.3663330078125
 30
0.0
 10
446.85086059570312
 20
304.34881591796875
 30
0.0
 10
446.85086059570312
 20
304.34881591796875
 30
0.0
 10
446.85086059570312
 20
304.34881591796875
 30
0.0
  0
LWPOLYLINE
  5
51
100
AcDbEntity
  8
0
 62
-1
420
0
370
1
 48
1.0
  6
CONTINUOUS
100
AcDbPolyline
 90
35
 70
0
 10
453.14834594726562
 20
304.3463134765625
 30
0.0
 10
453.3309326171875
 20
304.3638916015625
 30
0.0
 10
453.4984130859375
 20
304.41641235351562
 30
0.0
 10
453.65084838867187
 20
304.49880981445312
 30
0.0
 10
453.78573608398437
 20
304.60882568359375
 30
0.0
 10
453.8958740234375
 20
304.74130249023437
 30
0.0
 10
453.97836303710937
 20
304.89382934570312
 30
0.0
 10
454.03085327148437
 20
305.06378173828125
 30
0.0
 10
454.04830932617187
 20
305.24386596679687
 30
0.0
 10
454.0308837890625
 20
305.4263916015625
 30
0.0
 10
453.97830200195313
 20
305.59384155273437
 30
0.0
 10
453.89581298828125
 20
305.74630737304687
 30
0.0
 10
453.78579711914062
 20
305.88131713867187
 30
0.0
 10
453.65087890625
 20
305.99136352539062
 30
0.0
 10
453.49838256835937
 20
306.07379150390625
 30
0.0
 10
453.33090209960937
 20
306.12637329101562
 30
0.0
 10
453.14837646484375
 20
306.14382934570312
 30
0.0
 10
452.96591186523437
 20
306.12637329101562
 30
0.0
 10
452.79840087890625
 20
306.0738525390625
 30
0.0
 10
452.64590454101562
 20
305.99124145507812
 30
0.0
 10
452.51089477539062
 20
305.88137817382812
 30
0.0
 10
452.40078735351562
 20
305.74636840820312
 30
0.0
 10
452.318359375
 20
305.59384155273437
 30
0.0
 10
452.26596069335938
 20
305.42642211914062
 30
0.0
 10
452.24832153320312
 20
305.24386596679687
 30
0.0
 10
452.26580810546875
 20
305.0638427734375
 30
0.0
 10
452.31829833984375
 20
304.89376831054687
 30
0.0
 10
452.40097045898437
 20
304.74136352539062
 30
0.0
 10
452.51083374023437
 20
304.60879516601562
 30
0.0
 10
452.64590454101562
 20
304.49880981445312
 30
0.0
 10
452.79833984375
 20
304.41635131835937
 30
0.0
 10
452.96578979492187
 20
304.36380004882812
 30
0.0
 10
453.14834594726562
 20
304.3463134765625
 30
0.0
 10
453.14834594726562
 20
304.3463134765625
 30
0.0
 10
453.14834594726562
 20
304.3463134765625
 30
0.0
  0
LWPOLYLINE
  5
52
100
AcDbEntity
  8
0
 62
-1
420
0
370
1
 48
1.0
  6
CONTINUOUS
100
AcDbPolyline
 90
67
 70
0
 10
449.99847412109375
 20
296.49630737304687
 30
0.0
 10
450.3558349609375
 20
296.51382446289062
 30
0.0
 10
450.7034912109375
 20
296.56631469726562
 30
0.0
 10
451.04095458984375
 20
296.65380859375
 30
0.0
 10
451.36083984375
 20
296.77120971679687
 30
0.0
 10
451.66836547851562
 20
296.91879272460937
 30
0.0
 10
451.95590209960937
 20
297.09378051757812
 30
0.0
 10
452.225830078125
 20
297.29635620117187
 30
0.0
 10
452.47586059570312
 20
297.52127075195312
 30
0.0
 10
452.700927734375
 20
297.77127075195312
 30
0.0
 10
452.9033203125
 20
298.03884887695312
 30
0.0
 10
453.07846069335937
 20
298.32879638671875
 30
0.0
 10
453.22589111328125
 20
298.63381958007812
 30
0.0
 10
453.34344482421875
 20
298.95632934570312
 30
0.0
 10
453.430908203125
 20
299.29132080078125
 30
0.0
 10
453.48333740234375
 20
299.63882446289062
 30
0.0
 10
453.5008544921875
 20
299.996337890625
 30
0.0
 10
453.48336791992187
 20
300.3538818359375
 30
0.0
 10
453.43087768554687
 20
300.70132446289062
 30
0.0
 10
453.34335327148437
 20
301.0362548828125
 30
0.0
 10
453.225830078125
 20
301.35882568359375
 30
0.0
 10
453.078369140625
 20
301.663818359375
 30
0.0
 10
452.90341186523437
 20
301.95376586914062
 30
0.0
 10
452.70086669921875
 20
302.22137451171875
 30
0.0
 10
452.47592163085937
 20
302.4713134765625
 30
0.0
 10
452.225830078125
 20
302.69625854492187
 30
0.0
 10
451.95587158203125
 20
302.89871215820312
 30
0.0
 10
451.6683349609375
 20
303.07369995117187
 30
0.0
 10
451.36090087890625
 20
303.22128295898437
 30
0.0
 10
451.04071044921875
 20
303.33877563476562
 30
0.0
 10
450.703369140625
 20
303.42630004882812
 30
0.0
 10
450.3558349609375
 20
303.478759765625
 30
0.0
 10
449.9984130859375
 20
303.49636840820312
 30
0.0
 10
449.64089965820312
 20
303.47879028320312
 30
0.0
 10
449.29327392578125
 20
303.42626953125
 30
0.0
 10
448.95840454101562
 20
303.3388671875
 30
0.0
 10
448.6358642578125
 20
303.22128295898437
 30
0.0
 10
448.3309326171875
 20
303.0738525390625
 30
0.0
 10
448.04086303710938
 20
302.89874267578125
 30
0.0
 10
447.77334594726562
 20
302.69635009765625
 30
0.0
 10
447.52340698242187
 20
302.4713134765625
 30
0.0
 10
447.29830932617188
 20
302.22137451171875
 30
0.0
 10
447.09585571289062
 20
301.95379638671875
 30
0.0
 10
446.92086791992187
 20
301.66378784179687
 30
0.0
 10
446.77340698242187
 20
301.3587646484375
 30
0.0
 10
446.65594482421875
 20
301.03634643554687
 30
0.0
 10
446.56845092773437
 20
300.70132446289062
 30
0.0
 10
446.51596069335938
 20
300.35382080078125
 30
0.0
 10
446.49844360351562
 20
299.99630737304687
 30
0.0
 10
446.51589965820313
 20
299.6387939453125
 30
0.0
 10
446.56842041015625
 20
299.29129028320312
 30
0.0
 10
446.65591430664062
 20
298.956298828125
 30
0.0
 10
446.77334594726562
 20
298.6337890625
 30
0.0
 10
446.9208984375
 20
298.32879638671875
 30
0.0
 10
447.09585571289062
 20
298.03884887695312
 30
0.0
 10
447.29843139648437
 20
297.77117919921875
 30
0.0
 10
447.5234375
 20
297.52127075195312
 30
0.0
 10
447.77337646484375
 20
297.29629516601562
 30
0.0
 10
448.04092407226563
 20
297.0938720703125
 30
0.0
 10
448.33099365234375
 20
296.91885375976562
 30
0.0
 10
448.63592529296875
 20
296.77130126953125
 30
0.0
 10
448.95846557617187
 20
296.65383911132812
 30
0.0
 10
449.29345703125
 20
296.56631469726562
 30
0.0
 10
449.64096069335937
 20
296.51388549804687
 30
0.0
 10
449.99847412109375
 20
296.49630737304687
 30
0.0
 10
449.99847412109375
 20
296.49630737304687
 30
0.0
 10
449.99847412109375
 20
296.49630737304687
 30
0.0
  0
LWPOLYLINE
  5
53
100
AcDbEntity
  8
0
 62
-1
420
0
370
1
 48
1.0
  6
CONTINUOUS
100
AcDbPolyline
 90
183
 70
0
 10
490.001953125
 20
299.99578857421875
 30
0.0
 10
489.97796630859375
 20
301.38412475585937
 30
0.0
 10
489.90560913085937
 20
302.7708740234375
 30
0.0
 10
489.78530883789062
 20
304.15423583984375
 30
0.0
 10
489.61685180664062
 20
305.53262329101562
 30
0.0
 10
489.4010009765625
 20
306.904296875
 30
0.0
 10
489.13742065429687
 20
308.26751708984375
 30
0.0
 10
488.82675170898437
 20
309.62094116210937
 30
0.0
 10
488.46923828125
 20
310.96273803710938
 30
0.0
 10
488.0654296875
 20
312.29135131835937
 30
0.0
 10
487.61578369140625
 20
313.60494995117187
 30
0.0
 10
487.12078857421875
 20
314.90237426757812
 30
0.0
 10
486.58096313476562
 20
316.18185424804687
 30
0.0
 10
485.99728393554687
 20
317.44171142578125
 30
0.0
 10
485.37017822265625
 20
318.68063354492187
 30
0.0
 10
484.70025634765625
 20
319.89697265625
 30
0.0
 10
483.9886474609375
 20
321.08926391601562
 30
0.0
 10
483.23605346679687
 20
322.25628662109375
 30
0.0
 10
482.4434814453125
 20
323.39630126953125
 30
0.0
 10
481.611572265625
 20
324.50839233398438
 30
0.0
 10
480.74188232421875
 20
325.59072875976562
 30
0.0
 10
479.83502197265625
 20
326.64224243164062
 30
0.0
 10
478.892333984375
 20
327.661865234375
 30
0.0
 10
477.91476440429687
 20
328.64788818359375
 30
0.0
 10
476.90341186523437
 20
329.5994873046875
 30
0.0
 10
475.85989379882812
 20
330.51541137695312
 30
0.0
 10
474.78494262695312
 20
331.39459228515625
 30
0.0
 10
473.68014526367187
 20
332.23590087890625
 30
0.0
 10
472.5469970703125
 20
333.038330078125
 30
0.0
 10
471.38665771484375
 20
333.80096435546875
 30
0.0
 10
470.20046997070312
 20
334.52291870117187
 30
0.0
 10
468.99005126953125
 20
335.20333862304687
 30
0.0
 10
467.756591796875
 20
335.84121704101562
 30
0.0
 10
466.50186157226562
 20
336.43588256835937
 30
0.0
 10
465.2271728515625
 20
336.98678588867187
 30
0.0
 10
463.93426513671875
 20
337.49301147460937
 30
0.0
 10
462.62432861328125
 20
337.9539794921875
 30
0.0
 10
461.29931640625
 20
338.36932373046875
 30
0.0
 10
459.96063232421875
 20
338.7384033203125
 30
0.0
 10
458.6099853515625
 20
339.06076049804687
 30
0.0
 10
457.24899291992187
 20
339.33615112304687
 30
0.0
 10
455.8792724609375
 20
339.5640869140625
 30
0.0
 10
454.50238037109375
 20
339.74429321289062
 30
0.0
 10
453.12020874023437
 20
339.87664794921875
 30
0.0
 10
451.73410034179687
 20
339.96087646484375
 30
0.0
 10
450.34600830078125
 20
339.9970703125
 30
0.0
 10
448.95751953125
 20
339.98507690429688
 30
0.0
 10
447.57028198242187
 20
339.9248046875
 30
0.0
 10
446.1859130859375
 20
339.81640625
 30
0.0
 10
444.80612182617188
 20
339.66012573242187
 30
0.0
 10
443.43270874023437
 20
339.45599365234375
 30
0.0
 10
442.06704711914062
 20
339.20431518554688
 30
0.0
 10
440.71096801757812
 20
338.90542602539062
 30
0.0
 10
439.36618041992187
 20
338.55963134765625
 30
0.0
 10
438.0340576171875
 20
338.16732788085937
 30
0.0
 10
436.71652221679687
 20
337.72906494140625
 30
0.0
 10
435.41497802734375
 20
337.245361328125
 30
0.0
 10
434.13092041015625
 20
336.71670532226562
 30
0.0
 10
432.86599731445312
 20
336.14395141601562
 30
0.0
 10
431.6217041015625
 20
335.52740478515625
 30
0.0
 10
430.39962768554687
 20
334.8682861328125
 30
0.0
 10
429.20108032226562
 20
334.1669921875
 30
0.0
 10
428.02767944335937
 20
333.42462158203125
 30
0.0
 10
426.88067626953125
 20
332.64193725585937
 30
0.0
 10
425.76150512695312
 20
331.81985473632812
 30
0.0
 10
424.67172241210937
 20
330.95947265625
 30
0.0
 10
423.61227416992187
 20
330.06182861328125
 30
0.0
 10
422.58468627929687
 20
329.1279296875
 30
0.0
 10
421.59002685546875
 20
328.15887451171875
 30
0.0
 10
420.62982177734375
 20
327.15591430664062
 30
0.0
 10
419.70477294921875
 20
326.1201171875
 30
0.0
 10
418.81625366210937
 20
325.05316162109375
 30
0.0
 10
417.96548461914062
 20
323.95571899414062
 30
0.0
 10
417.15313720703125
 20
322.82955932617187
 30
0.0
 10
416.3804931640625
 20
321.67581176757812
 30
0.0
 10
415.64828491210937
 20
320.4959716796875
 30
0.0
 10
414.95755004882812
 20
319.29135131835937
 30
0.0
 10
414.308837890625
 20
318.06365966796875
 30
0.0
 10
413.70327758789062
 20
316.81405639648437
 30
0.0
 10
413.14141845703125
 20
315.54415893554687
 30
0.0
 10
412.62405395507812
 20
314.2554931640625
 30
0.0
 10
412.15164184570312
 20
312.94989013671875
 30
0.0
 10
411.724853515625
 20
311.62841796875
 30
0.0
 10
411.34420776367187
 20
310.29312133789062
 30
0.0
 10
411.0101318359375
 20
308.9453125
 30
0.0
 10
410.72293090820312
 20
307.58670043945312
 30
0.0
 10
410.48318481445312
 20
306.21905517578125
 30
0.0
 10
410.291015625
 20
304.84375
 30
0.0
 10
410.14666748046875
 20
303.46270751953125
 30
0.0
 10
410.05035400390625
 20
302.07757568359375
 30
0.0
 10
410.00210571289062
 20
300.68966674804687
 30
0.0
 10
410.00216674804687
 20
299.3011474609375
 30
0.0
 10
410.05032348632812
 20
297.91342163085937
 30
0.0
 10
410.14666748046875
 20
296.52822875976562
 30
0.0
 10
410.29095458984375
 20
295.14706420898437
 30
0.0
 10
410.48330688476562
 20
293.77191162109375
 30
0.0
 10
410.72299194335937
 20
292.40420532226562
 30
0.0
 10
411.01007080078125
 20
291.045654296875
 30
0.0
 10
411.34414672851562
 20
289.69781494140625
 30
0.0
 10
411.72494506835937
 20
288.36248779296875
 30
0.0
 10
412.15167236328125
 20
287.04110717773437
 30
0.0
 10
412.62408447265625
 20
285.73532104492187
 30
0.0
 10
413.14154052734375
 20
284.44680786132812
 30
0.0
 10
413.70333862304687
 20
283.17691040039062
 30
0.0
 10
414.30905151367187
 20
281.92739868164062
 30
0.0
 10
414.95767211914062
 20
280.69964599609375
 30
0.0
 10
415.64849853515625
 20
279.49514770507812
 30
0.0
 10
416.38070678710937
 20
278.31527709960937
 30
0.0
 10
417.1533203125
 20
277.16177368164062
 30
0.0
 10
417.9656982421875
 20
276.03549194335937
 30
0.0
 10
418.81649780273437
 20
274.93814086914062
 30
0.0
 10
419.70501708984375
 20
273.87109375
 30
0.0
 10
420.6298828125
 20
272.83541870117187
 30
0.0
 10
421.59024047851562
 20
271.83233642578125
 30
0.0
 10
422.58489990234375
 20
270.8634033203125
 30
0.0
 10
423.612548828125
 20
269.9295654296875
 30
0.0
 10
424.671875
 20
269.03192138671875
 30
0.0
 10
425.76171875
 20
268.17153930664062
 30
0.0
 10
426.8809814453125
 20
267.34945678710937
 30
0.0
 10
428.0279541015625
 20
266.5667724609375
 30
0.0
 10
429.2012939453125
 20
265.82449340820312
 30
0.0
 10
430.39996337890625
 20
265.12319946289062
 30
0.0
 10
431.62197875976562
 20
264.46389770507812
 30
0.0
 10
432.86624145507812
 20
263.84756469726562
 30
0.0
 10
434.1312255859375
 20
263.27471923828125
 30
0.0
 10
435.41525268554687
 20
262.74606323242187
 30
0.0
 10
436.71682739257812
 20
262.26242065429687
 30
0.0
 10
438.03445434570312
 20
261.82421875
 30
0.0
 10
439.36648559570312
 20
261.43194580078125
 30
0.0
 10
440.7113037109375
 20
261.08609008789063
 30
0.0
 10
442.06729125976562
 20
260.78720092773437
 30
0.0
 10
443.4329833984375
 20
260.53561401367187
 30
0.0
 10
444.806396484375
 20
260.33151245117187
 30
0.0
 10
446.18612670898437
 20
260.17520141601562
 30
0.0
 10
447.57058715820313
 20
260.06689453125
 30
0.0
 10
448.95782470703125
 20
260.00662231445312
 30
0.0
 10
450.34637451171875
 20
259.99459838867187
 30
0.0
 10
451.73446655273438
 20
260.03073120117187
 30
0.0
 10
453.1204833984375
 20
260.11505126953125
 30
0.0
 10
454.50274658203125
 20
260.24737548828125
 30
0.0
 10
455.87954711914062
 20
260.42767333984375
 30
0.0
 10
457.24929809570312
 20
260.65557861328125
 30
0.0
 10
458.61032104492187
 20
260.93096923828125
 30
0.0
 10
459.96102905273437
 20
261.25326538085937
 30
0.0
 10
461.29965209960937
 20
261.62246704101562
 30
0.0
 10
462.62457275390625
 20
262.0377197265625
 30
0.0
 10
463.93453979492187
 20
262.49874877929687
 30
0.0
 10
465.22744750976563
 20
263.0050048828125
 30
0.0
 10
466.50213623046875
 20
263.55584716796875
 30
0.0
 10
467.75692749023437
 20
264.15057373046875
 30
0.0
 10
468.99026489257812
 20
264.7884521484375
 30
0.0
 10
470.20083618164062
 20
265.46881103515625
 30
0.0
 10
471.38690185546875
 20
266.19070434570312
 30
0.0
 10
472.5472412109375
 20
266.95333862304687
 30
0.0
 10
473.68051147460937
 20
267.75588989257812
 30
0.0
 10
474.78530883789062
 20
268.59722900390625
 30
0.0
 10
475.86007690429687
 20
269.47625732421875
 30
0.0
 10
476.9036865234375
 20
270.39224243164063
 30
0.0
 10
477.91494750976562
 20
271.34381103515625
 30
0.0
 10
478.89260864257812
 20
272.33001708984375
 30
0.0
 10
479.83535766601562
 20
273.3494873046875
 30
0.0
 10
480.74209594726562
 20
274.40093994140625
 30
0.0
 10
481.61181640625
 20
275.48342895507812
 30
0.0
 10
482.443603515625
 20
276.59521484375
 30
0.0
 10
483.23623657226562
 20
277.73538208007812
 30
0.0
 10
483.98883056640625
 20
278.90228271484375
 30
0.0
 10
484.70040893554687
 20
280.09466552734375
 30
0.0
 10
485.3702392578125
 20
281.31094360351562
 30
0.0
 10
485.997314453125
 20
282.54983520507812
 30
0.0
 10
486.5811767578125
 20
283.80972290039062
 30
0.0
 10
487.12094116210937
 20
285.089111328125
 30
0.0
 10
487.61590576171875
 20
286.386474609375
 30
0.0
 10
488.06564331054687
 20
287.7001953125
 30
0.0
 10
488.46939086914062
 20
289.02886962890625
 30
0.0
 10
488.82687377929687
 20
290.37057495117187
 30
0.0
 10
489.13748168945312
 20
291.72396850585937
 30
0.0
 10
489.4010009765625
 20
293.08721923828125
 30
0.0
 10
489.6170654296875
 20
294.45901489257812
 30
0.0
 10
489.7852783203125
 20
295.83731079101562
 30
0.0
 10
489.90570068359375
 20
297.22067260742187
 30
0.0
 10
489.97799682617188
 20
298.60745239257812
 30
0.0
 10
490.001953125
 20
299.99578857421875
 30
0.0
 10
490.001953125
 20
299.99578857421875
 30
0.0
  0
LWPOLYLINE
  5
54
100
AcDbEntity
  8
0
 62
-1
420
0
370
1
 48
1.0
  6
CONTINUOUS
100
AcDbPolyline
 90
54
 70
0
 10
438.68865966796875
 20
332.16668701171875
 30
0.0
 10
438.77035522460937
 20
331.90670776367187
 30
0.0
 10
438.87814331054687
 20
331.66522216796875
 30
0.0
 10
439.15301513671875
 20
331.22308349609375
 30
0.0
 10
439.50225830078125
 20
330.84780883789062
 30
0.0
 10
439.9110107421875
 20
330.550537109375
 30
0.0
 10
440.13388061523437
 20
330.43173217773437
 30
0.0
 10
440.36785888671875
 20
330.33880615234375
 30
0.0
 10
440.60940551757812
 20
330.26455688476562
 30
0.0
 10
440.85464477539062
 20
330.21621704101562
 30
0.0
 10
441.1109619140625
 20
330.19024658203125
 30
0.0
 10
441.36734008789062
 20
330.1939697265625
 30
0.0
 10
441.62738037109375
 20
330.22000122070312
 30
0.0
 10
441.88748168945312
 20
330.275634765625
 30
0.0
 10
442.14007568359375
 20
330.357421875
 30
0.0
 10
442.37789916992187
 20
330.46517944335937
 30
0.0
 10
442.80899047851562
 20
330.74008178710937
 30
0.0
 10
443.1729736328125
 20
331.08935546875
 30
0.0
 10
443.46273803710937
 20
331.50164794921875
 30
0.0
 10
443.57418823242187
 20
331.72836303710937
 30
0.0
 10
443.66714477539062
 20
331.96243286132812
 30
0.0
 10
443.7340087890625
 20
332.20770263671875
 30
0.0
 10
443.78231811523437
 20
332.46023559570312
 30
0.0
 10
443.80453491210937
 20
332.72039794921875
 30
0.0
 10
443.79705810546875
 20
332.9803466796875
 30
0.0
 10
443.76742553710937
 20
333.2479248046875
 30
0.0
 10
443.71157836914062
 20
333.51162719726562
 30
0.0
 10
443.6298828125
 20
333.77175903320312
 30
0.0
 10
443.522216796875
 20
334.01318359375
 30
0.0
 10
443.2471923828125
 20
334.45529174804688
 30
0.0
 10
442.89797973632812
 20
334.83059692382812
 30
0.0
 10
442.4893798828125
 20
335.1278076171875
 30
0.0
 10
442.27005004882812
 20
335.24664306640625
 30
0.0
 10
442.03610229492187
 20
335.339599609375
 30
0.0
 10
441.79464721679687
 20
335.41390991210937
 30
0.0
 10
441.545654296875
 20
335.46212768554687
 30
0.0
 10
441.29306030273437
 20
335.48818969726562
 30
0.0
 10
441.03298950195312
 20
335.4844970703125
 30
0.0
 10
440.7728271484375
 20
335.45846557617187
 30
0.0
 10
440.51284790039062
 20
335.40280151367187
 30
0.0
 10
440.26019287109375
 20
335.32095336914063
 30
0.0
 10
440.02243041992187
 20
335.2132568359375
 30
0.0
 10
439.59146118164062
 20
334.93829345703125
 30
0.0
 10
439.22738647460938
 20
334.58908081054687
 30
0.0
 10
438.9376220703125
 20
334.17669677734375
 30
0.0
 10
438.8260498046875
 20
333.9500732421875
 30
0.0
 10
438.73324584960937
 20
333.71603393554687
 30
0.0
 10
438.66635131835937
 20
333.47073364257812
 30
0.0
 10
438.6180419921875
 20
333.21820068359375
 30
0.0
 10
438.595703125
 20
332.95806884765625
 30
0.0
 10
438.60317993164062
 20
332.697998046875
 30
0.0
 10
438.6329345703125
 20
332.43051147460937
 30
0.0
 10
438.68865966796875
 20
332.16668701171875
 30
0.0
 10
438.68865966796875
 20
332.16668701171875
 30
0.0
  0
LWPOLYLINE
  5
55
100
AcDbEntity
  8
0
 62
-1
420
0
370
1
 48
1.0
  6
CONTINUOUS
100
AcDbPolyline
 90
34
 70
0
 10
442.10330200195312
 20
306.99588012695312
 30
0.0
 10
442.12088012695312
 20
306.81338500976562
 30
0.0
 10
442.17337036132812
 20
306.64581298828125
 30
0.0
 10
442.25588989257812
 20
306.49337768554687
 30
0.0
 10
442.36581420898437
 20
306.3582763671875
 30
0.0
 10
442.50079345703125
 20
306.24835205078125
 30
0.0
 10
442.65328979492187
 20
306.165771484375
 30
0.0
 10
442.82083129882813
 20
306.11331176757812
 30
0.0
 10
443.0032958984375
 20
306.09588623046875
 30
0.0
 10
443.18582153320312
 20
306.11334228515625
 30
0.0
 10
443.35336303710937
 20
306.1658935546875
 30
0.0
 10
443.505859375
 20
306.24826049804687
 30
0.0
 10
443.64080810546875
 20
306.35836791992187
 30
0.0
 10
443.7508544921875
 20
306.49334716796875
 30
0.0
 10
443.83331298828125
 20
306.64581298828125
 30
0.0
 10
443.8858642578125
 20
306.8133544921875
 30
0.0
 10
443.90338134765625
 20
306.99588012695312
 30
0.0
 10
443.88577270507812
 20
307.17831420898437
 30
0.0
 10
443.83334350585937
 20
307.34588623046875
 30
0.0
 10
443.7508544921875
 20
307.49835205078125
 30
0.0
 10
443.640869140625
 20
307.63339233398437
 30
0.0
 10
443.50579833984375
 20
307.74331665039062
 30
0.0
 10
443.35330200195312
 20
307.82583618164062
 30
0.0
 10
443.18585205078125
 20
307.87835693359375
 30
0.0
 10
443.00332641601562
 20
307.89584350585937
 30
0.0
 10
442.82080078125
 20
307.87835693359375
 30
0.0
 10
442.65328979492187
 20
307.82583618164062
 30
0.0
 10
442.50088500976562
 20
307.74334716796875
 30
0.0
 10
442.36578369140625
 20
307.63330078125
 30
0.0
 10
442.255859375
 20
307.49838256835937
 30
0.0
 10
442.17337036132812
 20
307.34585571289062
 30
0.0
 10
442.12088012695312
 20
307.17837524414062
 30
0.0
 10
442.10330200195312
 20
306.99588012695312
 30
0.0
 10
442.10330200195312
 20
306.99588012695312
 30
0.0
  0
LWPOLYLINE
  5
56
100
AcDbEntity
  8
0
 62
-1
420
0
370
1
 48
1.0
  6
CONTINUOUS
100
AcDbPolyline
 90
34
 70
0
 10
456.10330200195312
 20
306.99575805664062
 30
0.0
 10
456.12081909179687
 20
306.81326293945313
 30
0.0
 10
456.17330932617187
 20
306.64578247070312
 30
0.0
 10
456.25579833984375
 20
306.49331665039062
 30
0.0
 10
456.36581420898437
 20
306.35836791992187
 30
0.0
 10
456.50079345703125
 20
306.248291015625
 30
0.0
 10
456.65335083007812
 20
306.16583251953125
 30
0.0
 10
456.82086181640625
 20
306.11331176757812
 30
0.0
 10
457.0032958984375
 20
306.095703125
 30
0.0
 10
457.185791015625
 20
306.11331176757812
 30
0.0
 10
457.353271484375
 20
306.16583251953125
 30
0.0
 10
457.50579833984375
 20
306.248291015625
 30
0.0
 10
457.64080810546875
 20
306.35824584960937
 30
0.0
 10
457.75082397460937
 20
306.49325561523437
 30
0.0
 10
457.83331298828125
 20
306.64578247070312
 30
0.0
 10
457.88577270507812
 20
306.81332397460938
 30
0.0
 10
457.90328979492187
 20
306.99575805664062
 30
0.0
 10
457.88589477539062
 20
307.1783447265625
 30
0.0
 10
457.83334350585937
 20
307.3458251953125
 30
0.0
 10
457.75076293945312
 20
307.498291015625
 30
0.0
 10
457.64083862304687
 20
307.63330078125
 30
0.0
 10
457.50579833984375
 20
307.7432861328125
 30
0.0
 10
457.353271484375
 20
307.82574462890625
 30
0.0
 10
457.185791015625
 20
307.87832641601562
 30
0.0
 10
457.00332641601562
 20
307.89584350585937
 30
0.0
 10
456.82086181640625
 20
307.8782958984375
 30
0.0
 10
456.65328979492187
 20
307.82577514648437
 30
0.0
 10
456.5008544921875
 20
307.7432861328125
 30
0.0
 10
456.3658447265625
 20
307.63327026367187
 30
0.0
 10
456.255859375
 20
307.49832153320312
 30
0.0
 10
456.17333984375
 20
307.34576416015625
 30
0.0
 10
456.12088012695312
 20
307.17831420898437
 30
0.0
 10
456.10330200195312
 20
306.99575805664062
 30
0.0
 10
456.10330200195312
 20
306.99575805664062
 30
0.0
  0
LWPOLYLINE
  5
57
100
AcDbEntity
  8
0
 62
-1
420
0
370
1
 48
1.0
  6
CONTINUOUS
100
AcDbPolyline
 90
34
 70
0
 10
442.100830078125
 20
292.99575805664062
 30
0.0
 10
442.11834716796875
 20
292.81332397460938
 30
0.0
 10
442.17086791992187
 20
292.645751953125
 30
0.0
 10
442.25338745117187
 20
292.49325561523437
 30
0.0
 10
442.36337280273437
 20
292.3582763671875
 30
0.0
 10
442.49835205078125
 20
292.248291015625
 30
0.0
 10
442.65078735351562
 20
292.165771484375
 30
0.0
 10
442.81838989257812
 20
292.11325073242187
 30
0.0
 10
443.0008544921875
 20
292.09576416015625
 30
0.0
 10
443.18338012695312
 20
292.11331176757812
 30
0.0
 10
443.35089111328125
 20
292.16580200195312
 30
0.0
 10
443.50335693359375
 20
292.248291015625
 30
0.0
 10
443.63833618164062
 20
292.35821533203125
 30
0.0
 10
443.74835205078125
 20
292.49331665039062
 30
0.0
 10
443.83084106445312
 20
292.64578247070312
 30
0.0
 10
443.88333129882812
 20
292.81332397460938
 30
0.0
 10
443.90090942382812
 20
292.99581909179687
 30
0.0
 10
443.88336181640625
 20
293.17822265625
 30
0.0
 10
443.83084106445312
 20
293.3458251953125
 30
0.0
 10
443.748291015625
 20
293.498291015625
 30
0.0
 10
443.63836669921875
 20
293.63327026367187
 30
0.0
 10
443.50335693359375
 20
293.7432861328125
 30
0.0
 10
443.35089111328125
 20
293.82577514648437
 30
0.0
 10
443.18341064453125
 20
293.87832641601562
 30
0.0
 10
443.00082397460937
 20
293.89578247070312
 30
0.0
 10
442.81829833984375
 20
293.87826538085937
 30
0.0
 10
442.65084838867187
 20
293.82574462890625
 30
0.0
 10
442.498291015625
 20
293.74325561523438
 30
0.0
 10
442.36337280273437
 20
293.63336181640625
 30
0.0
 10
442.25335693359375
 20
293.498291015625
 30
0.0
 10
442.17083740234375
 20
293.345703125
 30
0.0
 10
442.11834716796875
 20
293.17828369140625
 30
0.0
 10
442.100830078125
 20
292.99575805664062
 30
0.0
 10
442.100830078125
 20
292.99575805664062
 30
0.0
  0
LWPOLYLINE
  5
58
100
AcDbEntity
  8
0
 62
-1
420
0
370
1
 48
1.0
  6
CONTINUOUS
100
AcDbPolyline
 90
34
 70
0
 10
456.10086059570312
 20
292.99826049804687
 30
0.0
 10
456.11834716796875
 20
292.81585693359375
 30
0.0
 10
456.17086791992187
 20
292.64837646484375
 30
0.0
 10
456.25332641601562
 20
292.49588012695312
 30
0.0
 10
456.36334228515625
 20
292.36087036132812
 30
0.0
 10
456.498291015625
 20
292.25082397460937
 30
0.0
 10
456.65090942382812
 20
292.16830444335937
 30
0.0
 10
456.81829833984375
 20
292.11578369140625
 30
0.0
 10
457.0008544921875
 20
292.09829711914062
 30
0.0
 10
457.18331909179687
 20
292.1158447265625
 30
0.0
 10
457.35092163085937
 20
292.16830444335937
 30
0.0
 10
457.5032958984375
 20
292.25088500976562
 30
0.0
 10
457.6383056640625
 20
292.36080932617187
 30
0.0
 10
457.748291015625
 20
292.49581909179687
 30
0.0
 10
457.83084106445312
 20
292.6483154296875
 30
0.0
 10
457.88333129882812
 20
292.81588745117187
 30
0.0
 10
457.90081787109375
 20
292.99835205078125
 30
0.0
 10
457.88333129882812
 20
293.18081665039062
 30
0.0
 10
457.83087158203125
 20
293.34829711914062
 30
0.0
 10
457.748291015625
 20
293.5008544921875
 30
0.0
 10
457.63839721679687
 20
293.63571166992187
 30
0.0
 10
457.50338745117187
 20
293.74581909179687
 30
0.0
 10
457.35086059570312
 20
293.82833862304687
 30
0.0
 10
457.18328857421875
 20
293.880859375
 30
0.0
 10
457.00076293945312
 20
293.89828491210937
 30
0.0
 10
456.81832885742187
 20
293.880859375
 30
0.0
 10
456.65087890625
 20
293.82830810546875
 30
0.0
 10
456.49838256835937
 20
293.74581909179687
 30
0.0
 10
456.36337280273437
 20
293.63583374023437
 30
0.0
 10
456.2532958984375
 20
293.50082397460938
 30
0.0
 10
456.17083740234375
 20
293.34832763671875
 30
0.0
 10
456.118408203125
 20
293.18084716796875
 30
0.0
 10
456.10086059570312
 20
292.99826049804687
 30
0.0
 10
456.10086059570312
 20
292.99826049804687
 30
0.0
  0
LWPOLYLINE
  5
59
100
AcDbEntity
  8
0
 62
-1
420
0
370
1
 48
1.0
  6
CONTINUOUS
100
AcDbPolyline
 90
54
 70
0
 10
424.11932373046875
 20
322.20248413085937
 30
0.0
 10
424.32015991210937
 20
322.0181884765625
 30
0.0
 10
424.5341796875
 20
321.86294555664062
 30
0.0
 10
424.99325561523437
 20
321.61752319335937
 30
0.0
 10
425.48345947265625
 20
321.46719360351562
 30
0.0
 10
425.98590087890625
 20
321.41409301757812
 30
0.0
 10
426.23843383789062
 20
321.42257690429688
 30
0.0
 10
426.48757934570312
 20
321.45919799804687
 30
0.0
 10
426.73385620117187
 20
321.51559448242187
 30
0.0
 10
426.97039794921875
 20
321.59634399414062
 30
0.0
 10
427.20541381835937
 20
321.7020263671875
 30
0.0
 10
427.42559814453125
 20
321.83343505859375
 30
0.0
 10
427.63772583007812
 20
321.98599243164062
 30
0.0
 10
427.83502197265625
 20
322.16427612304687
 30
0.0
 10
428.0130615234375
 20
322.36135864257812
 30
0.0
 10
428.16510009765625
 20
322.57354736328125
 30
0.0
 10
428.40090942382812
 20
323.027099609375
 30
0.0
 10
428.54150390625
 20
323.51165771484375
 30
0.0
 10
428.58639526367187
 20
324.01370239257812
 30
0.0
 10
428.56948852539062
 20
324.26565551757812
 30
0.0
 10
428.53286743164062
 20
324.51486206054687
 30
0.0
 10
428.46829223632812
 20
324.76065063476562
 30
0.0
 10
428.3837890625
 20
325.00357055664062
 30
0.0
 10
428.27304077148437
 20
325.23992919921875
 30
0.0
 10
428.1365966796875
 20
325.46142578125
 30
0.0
 10
427.97705078125
 20
325.67825317382812
 30
0.0
 10
427.79690551757813
 20
325.87881469726562
 30
0.0
 10
427.5960693359375
 20
326.0631103515625
 30
0.0
 10
427.38204956054687
 20
326.21847534179687
 30
0.0
 10
426.92288208007812
 20
326.46380615234375
 30
0.0
 10
426.43289184570312
 20
326.61419677734375
 30
0.0
 10
425.93038940429687
 20
326.66732788085937
 30
0.0
 10
425.68096923828125
 20
326.66058349609375
 30
0.0
 10
425.431884765625
 20
326.62405395507812
 30
0.0
 10
425.18557739257812
 20
326.56768798828125
 30
0.0
 10
424.94586181640625
 20
326.4849853515625
 30
0.0
 10
424.71405029296875
 20
326.38119506835937
 30
0.0
 10
424.49072265625
 20
326.24795532226562
 30
0.0
 10
424.27847290039062
 20
326.0953369140625
 30
0.0
 10
424.0811767578125
 20
325.9171142578125
 30
0.0
 10
423.90316772460937
 20
325.72000122070312
 30
0.0
 10
423.75115966796875
 20
325.50778198242187
 30
0.0
 10
423.51541137695312
 20
325.05422973632812
 30
0.0
 10
423.374755859375
 20
324.56967163085937
 30
0.0
 10
423.32986450195312
 20
324.06768798828125
 30
0.0
 10
423.34674072265625
 20
323.81570434570312
 30
0.0
 10
423.38323974609375
 20
323.5665283203125
 30
0.0
 10
423.44796752929688
 20
323.32073974609375
 30
0.0
 10
423.53250122070312
 20
323.0777587890625
 30
0.0
 10
423.64321899414062
 20
322.84140014648437
 30
0.0
 10
423.77963256835937
 20
322.61993408203125
 30
0.0
 10
423.939208984375
 20
322.403076171875
 30
0.0
 10
424.11932373046875
 20
322.20248413085937
 30
0.0
 10
424.11932373046875
 20
322.20248413085937
 30
0.0
  0
LWPOLYLINE
  5
5A
100
AcDbEntity
  8
0
 62
-1
420
0
370
1
 48
1.0
  6
CONTINUOUS
100
AcDbPolyline
 90
54
 70
0
 10
416.48291015625
 20
306.28863525390625
 30
0.0
 10
416.74899291992187
 20
306.22943115234375
 30
0.0
 10
417.011962890625
 20
306.20196533203125
 30
0.0
 10
417.53228759765625
 20
306.21896362304688
 30
0.0
 10
418.03192138671875
 20
306.33377075195312
 30
0.0
 10
418.49365234375
 20
306.53909301757812
 30
0.0
 10
418.70809936523437
 20
306.67266845703125
 30
0.0
 10
418.90557861328125
 20
306.82904052734375
 30
0.0
 10
419.09063720703125
 20
307.00100708007812
 30
0.0
 10
419.25503540039062
 20
307.189208984375
 30
0.0
 10
419.40579223632812
 20
307.39822387695312
 30
0.0
 10
419.53076171875
 20
307.62210083007812
 30
0.0
 10
419.63821411132812
 20
307.8603515625
 30
0.0
 10
419.72000122070312
 20
308.1134033203125
 30
0.0
 10
419.77557373046875
 20
308.373046875
 30
0.0
 10
419.80108642578125
 20
308.63287353515625
 30
0.0
 10
419.77859497070312
 20
309.1435546875
 30
0.0
 10
419.6580810546875
 20
309.63351440429688
 30
0.0
 10
419.44589233398438
 20
310.09066772460937
 30
0.0
 10
419.3052978515625
 20
310.30044555664062
 30
0.0
 10
419.1490478515625
 20
310.49801635742187
 30
0.0
 10
418.9700927734375
 20
310.67852783203125
 30
0.0
 10
418.77548217773437
 20
310.8466796875
 30
0.0
 10
418.56143188476562
 20
310.9959716796875
 30
0.0
 10
418.33255004882812
 20
311.11956787109375
 30
0.0
 10
418.08599853515625
 20
311.22763061523437
 30
0.0
 10
417.82968139648437
 20
311.31118774414062
 30
0.0
 10
417.56356811523437
 20
311.37042236328125
 30
0.0
 10
417.30056762695312
 20
311.39791870117187
 30
0.0
 10
416.78024291992187
 20
311.380859375
 30
0.0
 10
416.28060913085937
 20
311.26602172851562
 30
0.0
 10
415.81893920898437
 20
311.060791015625
 30
0.0
 10
415.6063232421875
 20
310.93026733398437
 30
0.0
 10
415.40884399414062
 20
310.77410888671875
 30
0.0
 10
415.2237548828125
 20
310.6021728515625
 30
0.0
 10
415.0574951171875
 20
310.41067504882812
 30
0.0
 10
414.90869140625
 20
310.20489501953125
 30
0.0
 10
414.78182983398438
 20
309.97784423828125
 30
0.0
 10
414.67434692382812
 20
309.73953247070312
 30
0.0
 10
414.59249877929687
 20
309.4864501953125
 30
0.0
 10
414.53701782226562
 20
309.22686767578125
 30
0.0
 10
414.5113525390625
 20
308.967041015625
 30
0.0
 10
414.53408813476562
 20
308.45639038085937
 30
0.0
 10
414.65444946289062
 20
307.96636962890625
 30
0.0
 10
414.86666870117187
 20
307.50918579101563
 30
0.0
 10
415.00726318359375
 20
307.29937744140625
 30
0.0
 10
415.1634521484375
 20
307.10189819335937
 30
0.0
 10
415.34243774414062
 20
306.92141723632812
 30
0.0
 10
415.53704833984375
 20
306.75326538085937
 30
0.0
 10
415.75112915039062
 20
306.60385131835938
 30
0.0
 10
415.98007202148437
 20
306.48031616210937
 30
0.0
 10
416.22659301757812
 20
306.37237548828125
 30
0.0
 10
416.48291015625
 20
306.28863525390625
 30
0.0
 10
416.48291015625
 20
306.28863525390625
 30
0.0
  0
LWPOLYLINE
  5
5B
100
AcDbEntity
  8
0
 62
-1
420
0
370
1
 48
1.0
  6
CONTINUOUS
100
AcDbPolyline
 90
54
 70
0
 10
417.8265380859375
 20
288.68878173828125
 30
0.0
 10
418.08660888671875
 20
288.7705078125
 30
0.0
 10
418.32809448242187
 20
288.87823486328125
 30
0.0
 10
418.77020263671875
 20
289.15310668945312
 30
0.0
 10
419.14544677734375
 20
289.50244140625
 30
0.0
 10
419.44268798828125
 20
289.9111328125
 30
0.0
 10
419.56161499023437
 20
290.13394165039062
 30
0.0
 10
419.6544189453125
 20
290.36807250976562
 30
0.0
 10
419.72882080078125
 20
290.60958862304687
 30
0.0
 10
419.77706909179687
 20
290.854736328125
 30
0.0
 10
419.80307006835937
 20
291.11111450195313
 30
0.0
 10
419.79931640625
 20
291.36749267578125
 30
0.0
 10
419.7733154296875
 20
291.62753295898437
 30
0.0
 10
419.71762084960937
 20
291.88760375976562
 30
0.0
 10
419.63589477539062
 20
292.14022827148437
 30
0.0
 10
419.528076171875
 20
292.3780517578125
 30
0.0
 10
419.2532958984375
 20
292.8089599609375
 30
0.0
 10
418.9039306640625
 20
293.173095703125
 30
0.0
 10
418.49148559570312
 20
293.46298217773437
 30
0.0
 10
418.26495361328125
 20
293.57431030273437
 30
0.0
 10
418.0308837890625
 20
293.66720581054687
 30
0.0
 10
417.78564453125
 20
293.73410034179687
 30
0.0
 10
417.5330810546875
 20
293.782470703125
 30
0.0
 10
417.27294921875
 20
293.8045654296875
 30
0.0
 10
417.01287841796875
 20
293.7972412109375
 30
0.0
 10
416.74542236328125
 20
293.767578125
 30
0.0
 10
416.48159790039062
 20
293.71176147460937
 30
0.0
 10
416.22146606445312
 20
293.6300048828125
 30
0.0
 10
415.9801025390625
 20
293.52236938476562
 30
0.0
 10
415.5379638671875
 20
293.24737548828125
 30
0.0
 10
415.1627197265625
 20
292.898193359375
 30
0.0
 10
414.86544799804687
 20
292.48953247070312
 30
0.0
 10
414.74661254882812
 20
292.270263671875
 30
0.0
 10
414.65371704101562
 20
292.03622436523437
 30
0.0
 10
414.57940673828125
 20
291.79473876953125
 30
0.0
 10
414.53115844726562
 20
291.54580688476562
 30
0.0
 10
414.50509643554687
 20
291.29318237304687
 30
0.0
 10
414.50885009765625
 20
291.03311157226563
 30
0.0
 10
414.53482055664062
 20
290.77301025390625
 30
0.0
 10
414.59048461914062
 20
290.51303100585937
 30
0.0
 10
414.67236328125
 20
290.26028442382812
 30
0.0
 10
414.780029296875
 20
290.02267456054687
 30
0.0
 10
415.05496215820313
 20
289.59164428710937
 30
0.0
 10
415.40420532226562
 20
289.22744750976563
 30
0.0
 10
415.81661987304687
 20
288.93771362304688
 30
0.0
 10
416.04324340820312
 20
288.82626342773437
 30
0.0
 10
416.27728271484375
 20
288.73333740234375
 30
0.0
 10
416.52252197265625
 20
288.66647338867187
 30
0.0
 10
416.77508544921875
 20
288.61822509765625
 30
0.0
 10
417.03524780273437
 20
288.5958251953125
 30
0.0
 10
417.29525756835937
 20
288.6033935546875
 30
0.0
 10
417.562744140625
 20
288.633056640625
 30
0.0
 10
417.8265380859375
 20
288.68878173828125
 30
0.0
 10
417.8265380859375
 20
288.68878173828125
 30
0.0
  0
LWPOLYLINE
  5
5C
100
AcDbEntity
  8
0
 62
-1
420
0
370
1
 48
1.0
  6
CONTINUOUS
100
AcDbPolyline
 90
54
 70
0
 10
427.78994750976563
 20
274.11865234375
 30
0.0
 10
427.97418212890625
 20
274.31948852539062
 30
0.0
 10
428.12954711914062
 20
274.53350830078125
 30
0.0
 10
428.37493896484375
 20
274.99261474609375
 30
0.0
 10
428.52532958984375
 20
275.48275756835937
 30
0.0
 10
428.57846069335938
 20
275.98526000976562
 30
0.0
 10
428.56985473632812
 20
276.23782348632812
 30
0.0
 10
428.53326416015625
 20
276.4869384765625
 30
0.0
 10
428.4769287109375
 20
276.73324584960937
 30
0.0
 10
428.39614868164062
 20
276.9697265625
 30
0.0
 10
428.29046630859375
 20
277.20477294921875
 30
0.0
 10
428.1590576171875
 20
277.4249267578125
 30
0.0
 10
428.00643920898437
 20
277.63714599609375
 30
0.0
 10
427.82827758789063
 20
277.83447265625
 30
0.0
 10
427.631103515625
 20
278.01235961914062
 30
0.0
 10
427.4189453125
 20
278.1644287109375
 30
0.0
 10
426.96533203125
 20
278.4002685546875
 30
0.0
 10
426.48077392578125
 20
278.54092407226562
 30
0.0
 10
425.97879028320312
 20
278.58572387695312
 30
0.0
 10
425.72683715820312
 20
278.56887817382812
 30
0.0
 10
425.47763061523437
 20
278.53231811523437
 30
0.0
 10
425.23178100585937
 20
278.4676513671875
 30
0.0
 10
424.98892211914062
 20
278.3831787109375
 30
0.0
 10
424.75253295898437
 20
278.27236938476562
 30
0.0
 10
424.53103637695312
 20
278.1358642578125
 30
0.0
 10
424.314208984375
 20
277.9764404296875
 30
0.0
 10
424.1136474609375
 20
277.79623413085937
 30
0.0
 10
423.9293212890625
 20
277.59539794921875
 30
0.0
 10
423.7740478515625
 20
277.38143920898437
 30
0.0
 10
423.52865600585937
 20
276.92227172851563
 30
0.0
 10
423.37826538085937
 20
276.43218994140625
 30
0.0
 10
423.32516479492187
 20
275.9296875
 30
0.0
 10
423.33187866210937
 20
275.68038940429687
 30
0.0
 10
423.36837768554688
 20
275.43124389648437
 30
0.0
 10
423.42477416992187
 20
275.18499755859375
 30
0.0
 10
423.50750732421875
 20
274.94528198242187
 30
0.0
 10
423.61126708984375
 20
274.71343994140625
 30
0.0
 10
423.74447631835937
 20
274.49008178710937
 30
0.0
 10
423.8970947265625
 20
274.27783203125
 30
0.0
 10
424.07540893554687
 20
274.0804443359375
 30
0.0
 10
424.27243041992187
 20
273.90261840820312
 30
0.0
 10
424.484619140625
 20
273.75054931640625
 30
0.0
 10
424.93820190429688
 20
273.51473999023437
 30
0.0
 10
425.42279052734375
 20
273.37405395507812
 30
0.0
 10
425.9248046875
 20
273.32928466796875
 30
0.0
 10
426.17681884765625
 20
273.3460693359375
 30
0.0
 10
426.42596435546875
 20
273.38262939453125
 30
0.0
 10
426.67172241210937
 20
273.4473876953125
 30
0.0
 10
426.91470336914062
 20
273.53182983398437
 30
0.0
 10
427.15106201171875
 20
273.64251708984375
 30
0.0
 10
427.37252807617187
 20
273.77902221679687
 30
0.0
 10
427.58929443359375
 20
273.93850708007812
 30
0.0
 10
427.78994750976563
 20
274.11865234375
 30
0.0
 10
427.78994750976563
 20
274.11865234375
 30
0.0
  0
LWPOLYLINE
  5
5D
100
AcDbEntity
  8
0
 62
-1
420
0
370
1
 48
1.0
  6
CONTINUOUS
100
AcDbPolyline
 90
54
 70
0
 10
443.70361328125
 20
266.48214721679687
 30
0.0
 10
443.7628173828125
 20
266.74819946289062
 30
0.0
 10
443.790283203125
 20
267.01119995117187
 30
0.0
 10
443.773193359375
 20
267.53155517578125
 30
0.0
 10
443.658447265625
 20
268.03115844726562
 30
0.0
 10
443.45309448242187
 20
268.49288940429687
 30
0.0
 10
443.31954956054687
 20
268.70724487304687
 30
0.0
 10
443.16323852539062
 20
268.90472412109375
 30
0.0
 10
442.99127197265625
 20
269.08990478515625
 30
0.0
 10
442.80294799804687
 20
269.25433349609375
 30
0.0
 10
442.59408569335937
 20
269.40499877929687
 30
0.0
 10
442.37008666992187
 20
269.530029296875
 30
0.0
 10
442.1319580078125
 20
269.63748168945312
 30
0.0
 10
441.87884521484375
 20
269.71920776367188
 30
0.0
 10
441.61920166015625
 20
269.77481079101562
 30
0.0
 10
441.359375
 20
269.80038452148437
 30
0.0
 10
440.84872436523437
 20
269.77780151367187
 30
0.0
 10
440.3587646484375
 20
269.65728759765625
 30
0.0
 10
439.90151977539062
 20
269.44515991210937
 30
0.0
 10
439.69174194335937
 20
269.30459594726562
 30
0.0
 10
439.49429321289063
 20
269.14825439453125
 30
0.0
 10
439.313720703125
 20
268.96932983398437
 30
0.0
 10
439.1456298828125
 20
268.77481079101563
 30
0.0
 10
438.99630737304687
 20
268.560546875
 30
0.0
 10
438.87271118164062
 20
268.33172607421875
 30
0.0
 10
438.7646484375
 20
268.08517456054687
 30
0.0
 10
438.68109130859375
 20
267.828857421875
 30
0.0
 10
438.62185668945312
 20
267.56277465820312
 30
0.0
 10
438.5943603515625
 20
267.2998046875
 30
0.0
 10
438.61151123046875
 20
266.77944946289062
 30
0.0
 10
438.72622680664062
 20
266.27984619140625
 30
0.0
 10
438.9315185546875
 20
265.81814575195312
 30
0.0
 10
439.06198120117187
 20
265.60552978515625
 30
0.0
 10
439.21823120117187
 20
265.4080810546875
 30
0.0
 10
439.39013671875
 20
265.22299194335937
 30
0.0
 10
439.5816650390625
 20
265.05670166015625
 30
0.0
 10
439.78744506835937
 20
264.90786743164062
 30
0.0
 10
440.01446533203125
 20
264.78109741210937
 30
0.0
 10
440.25274658203125
 20
264.67352294921875
 30
0.0
 10
440.50579833984375
 20
264.59173583984375
 30
0.0
 10
440.76544189453125
 20
264.5362548828125
 30
0.0
 10
441.02517700195312
 20
264.51065063476562
 30
0.0
 10
441.53594970703125
 20
264.53326416015625
 30
0.0
 10
442.02587890625
 20
264.6536865234375
 30
0.0
 10
442.4830322265625
 20
264.86587524414062
 30
0.0
 10
442.69290161132812
 20
265.00643920898437
 30
0.0
 10
442.89041137695312
 20
265.16268920898437
 30
0.0
 10
443.0709228515625
 20
265.34161376953125
 30
0.0
 10
443.23898315429687
 20
265.53628540039062
 30
0.0
 10
443.38845825195312
 20
265.75030517578125
 30
0.0
 10
443.511962890625
 20
265.979248046875
 30
0.0
 10
443.61990356445312
 20
266.22576904296875
 30
0.0
 10
443.70361328125
 20
266.48214721679687
 30
0.0
 10
443.70361328125
 20
266.48214721679687
 30
0.0
  0
LWPOLYLINE
  5
5E
100
AcDbEntity
  8
0
 62
-1
420
0
370
1
 48
1.0
  6
CONTINUOUS
100
AcDbPolyline
 90
54
 70
0
 10
461.30364990234375
 20
267.82571411132812
 30
0.0
 10
461.22183227539062
 20
268.08572387695312
 30
0.0
 10
461.11407470703125
 20
268.3272705078125
 30
0.0
 10
460.83926391601562
 20
268.76934814453125
 30
0.0
 10
460.489990234375
 20
269.1446533203125
 30
0.0
 10
460.081298828125
 20
269.44183349609375
 30
0.0
 10
459.85830688476562
 20
269.56072998046875
 30
0.0
 10
459.62423706054687
 20
269.65359497070312
 30
0.0
 10
459.3828125
 20
269.7279052734375
 30
0.0
 10
459.1375732421875
 20
269.7762451171875
 30
0.0
 10
458.8812255859375
 20
269.80218505859375
 30
0.0
 10
458.6248779296875
 20
269.79849243164062
 30
0.0
 10
458.36474609375
 20
269.7724609375
 30
0.0
 10
458.10479736328125
 20
269.71670532226562
 30
0.0
 10
457.85211181640625
 20
269.63504028320312
 30
0.0
 10
457.61431884765625
 20
269.52731323242187
 30
0.0
 10
457.18331909179687
 20
269.25238037109375
 30
0.0
 10
456.81927490234375
 20
268.90310668945312
 30
0.0
 10
456.52944946289062
 20
268.49072265625
 30
0.0
 10
456.41806030273437
 20
268.26406860351562
 30
0.0
 10
456.3250732421875
 20
268.030029296875
 30
0.0
 10
456.25820922851562
 20
267.78475952148437
 30
0.0
 10
456.20993041992187
 20
267.5322265625
 30
0.0
 10
456.18768310546875
 20
267.27206420898437
 30
0.0
 10
456.19512939453125
 20
267.0120849609375
 30
0.0
 10
456.22479248046875
 20
266.7445068359375
 30
0.0
 10
456.28054809570312
 20
266.48074340820312
 30
0.0
 10
456.3623046875
 20
266.22067260742188
 30
0.0
 10
456.47006225585937
 20
265.97918701171875
 30
0.0
 10
456.7449951171875
 20
265.53713989257812
 30
0.0
 10
457.09420776367187
 20
265.161865234375
 30
0.0
 10
457.50283813476562
 20
264.8646240234375
 30
0.0
 10
457.72210693359375
 20
264.74578857421875
 30
0.0
 10
457.95611572265625
 20
264.65286254882812
 30
0.0
 10
458.19757080078125
 20
264.57852172851563
 30
0.0
 10
458.44650268554688
 20
264.5302734375
 30
0.0
 10
458.69918823242187
 20
264.50424194335937
 30
0.0
 10
458.959228515625
 20
264.5079345703125
 30
0.0
 10
459.2193603515625
 20
264.533935546875
 30
0.0
 10
459.47940063476562
 20
264.58969116210937
 30
0.0
 10
459.73196411132812
 20
264.67144775390625
 30
0.0
 10
459.96975708007812
 20
264.7791748046875
 30
0.0
 10
460.40072631835937
 20
265.05410766601562
 30
0.0
 10
460.764892578125
 20
265.40338134765625
 30
0.0
 10
461.05462646484375
 20
265.81573486328125
 30
0.0
 10
461.16616821289062
 20
266.04238891601562
 30
0.0
 10
461.25906372070312
 20
266.27642822265625
 30
0.0
 10
461.32583618164062
 20
266.52157592773437
 30
0.0
 10
461.37417602539062
 20
266.7742919921875
 30
0.0
 10
461.396484375
 20
267.03439331054687
 30
0.0
 10
461.3890380859375
 20
267.29437255859375
 30
0.0
 10
461.35931396484375
 20
267.5618896484375
 30
0.0
 10
461.30364990234375
 20
267.82571411132812
 30
0.0
 10
461.30364990234375
 20
267.82571411132812
 30
0.0
  0
LWPOLYLINE
  5
5F
100
AcDbEntity
  8
0
 62
-1
420
0
370
1
 48
1.0
  6
CONTINUOUS
100
AcDbPolyline
 90
54
 70
0
 10
475.8736572265625
 20
277.78924560546875
 30
0.0
 10
475.67282104492187
 20
277.97357177734375
 30
0.0
 10
475.45880126953125
 20
278.12884521484375
 30
0.0
 10
474.99969482421875
 20
278.374267578125
 30
0.0
 10
474.50955200195312
 20
278.52456665039062
 30
0.0
 10
474.00698852539062
 20
278.57766723632812
 30
0.0
 10
473.75457763671875
 20
278.56918334960937
 30
0.0
 10
473.50543212890625
 20
278.53256225585937
 30
0.0
 10
473.25909423828125
 20
278.47616577148437
 30
0.0
 10
473.0225830078125
 20
278.39541625976562
 30
0.0
 10
472.78756713867187
 20
278.28973388671875
 30
0.0
 10
472.56735229492187
 20
278.1583251953125
 30
0.0
 10
472.35525512695312
 20
278.00576782226562
 30
0.0
 10
472.15786743164062
 20
277.82748413085937
 30
0.0
 10
471.97991943359375
 20
277.63040161132812
 30
0.0
 10
471.82785034179687
 20
277.418212890625
 30
0.0
 10
471.592041015625
 20
276.96469116210937
 30
0.0
 10
471.45147705078125
 20
276.48007202148437
 30
0.0
 10
471.40658569335937
 20
275.97805786132812
 30
0.0
 10
471.42349243164062
 20
275.72607421875
 30
0.0
 10
471.4600830078125
 20
275.4769287109375
 30
0.0
 10
471.52471923828125
 20
275.2310791015625
 30
0.0
 10
471.60916137695312
 20
274.98818969726562
 30
0.0
 10
471.72000122070313
 20
274.75186157226562
 30
0.0
 10
471.85638427734375
 20
274.53033447265625
 30
0.0
 10
472.01589965820313
 20
274.31350708007812
 30
0.0
 10
472.19610595703125
 20
274.11294555664062
 30
0.0
 10
472.39694213867187
 20
273.92861938476562
 30
0.0
 10
472.61093139648438
 20
273.77334594726562
 30
0.0
 10
473.07009887695312
 20
273.5279541015625
 30
0.0
 10
473.56015014648437
 20
273.37759399414062
 30
0.0
 10
474.06268310546875
 20
273.32449340820312
 30
0.0
 10
474.31201171875
 20
273.33114624023438
 30
0.0
 10
474.56109619140625
 20
273.36773681640625
 30
0.0
 10
474.807373046875
 20
273.42410278320312
 30
0.0
 10
475.04714965820312
 20
273.50677490234375
 30
0.0
 10
475.27890014648437
 20
273.61056518554687
 30
0.0
 10
475.50228881835937
 20
273.7437744140625
 30
0.0
 10
475.71450805664062
 20
273.89639282226562
 30
0.0
 10
475.91183471679687
 20
274.07467651367187
 30
0.0
 10
476.08978271484375
 20
274.27178955078125
 30
0.0
 10
476.24179077148437
 20
274.48391723632812
 30
0.0
 10
476.47763061523437
 20
274.9375
 30
0.0
 10
476.6182861328125
 20
275.42202758789062
 30
0.0
 10
476.66302490234375
 20
275.92404174804687
 30
0.0
 10
476.64630126953125
 20
276.17608642578125
 30
0.0
 10
476.6097412109375
 20
276.42523193359375
 30
0.0
 10
476.54501342773437
 20
276.67105102539062
 30
0.0
 10
476.46047973632812
 20
276.91397094726562
 30
0.0
 10
476.34982299804687
 20
277.15032958984375
 30
0.0
 10
476.21328735351562
 20
277.371826171875
 30
0.0
 10
476.0538330078125
 20
277.588623046875
 30
0.0
 10
475.8736572265625
 20
277.78924560546875
 30
0.0
 10
475.8736572265625
 20
277.78924560546875
 30
0.0
  0
LWPOLYLINE
  5
60
100
AcDbEntity
  8
0
 62
-1
420
0
370
1
 48
1.0
  6
CONTINUOUS
100
AcDbPolyline
 90
54
 70
0
 10
483.51007080078125
 20
293.70272827148437
 30
0.0
 10
483.24398803710937
 20
293.76187133789062
 30
0.0
 10
482.98098754882812
 20
293.78939819335937
 30
0.0
 10
482.460693359375
 20
293.77236938476562
 30
0.0
 10
481.9610595703125
 20
293.65756225585938
 30
0.0
 10
481.499267578125
 20
293.45220947265625
 30
0.0
 10
481.28488159179687
 20
293.31857299804687
 30
0.0
 10
481.08746337890625
 20
293.16226196289062
 30
0.0
 10
480.90228271484375
 20
292.99032592773437
 30
0.0
 10
480.73785400390625
 20
292.80209350585937
 30
0.0
 10
480.58718872070312
 20
292.59304809570312
 30
0.0
 10
480.46218872070312
 20
292.36920166015625
 30
0.0
 10
480.35476684570312
 20
292.13101196289062
 30
0.0
 10
480.27294921875
 20
291.87796020507812
 30
0.0
 10
480.21743774414062
 20
291.61831665039062
 30
0.0
 10
480.19186401367187
 20
291.35845947265625
 30
0.0
 10
480.21441650390625
 20
290.84774780273437
 30
0.0
 10
480.33486938476562
 20
290.3577880859375
 30
0.0
 10
480.54708862304687
 20
289.900634765625
 30
0.0
 10
480.68765258789062
 20
289.69085693359375
 30
0.0
 10
480.84390258789063
 20
289.49334716796875
 30
0.0
 10
481.02279663085937
 20
289.31277465820312
 30
0.0
 10
481.21737670898437
 20
289.14468383789062
 30
0.0
 10
481.43157958984375
 20
288.99542236328125
 30
0.0
 10
481.66049194335937
 20
288.87176513671875
 30
0.0
 10
481.906982421875
 20
288.76373291015625
 30
0.0
 10
482.163330078125
 20
288.68014526367187
 30
0.0
 10
482.429443359375
 20
288.620849609375
 30
0.0
 10
482.69241333007812
 20
288.59341430664062
 30
0.0
 10
483.21267700195312
 20
288.6104736328125
 30
0.0
 10
483.71234130859375
 20
288.72531127929687
 30
0.0
 10
484.17410278320312
 20
288.93060302734375
 30
0.0
 10
484.38662719726562
 20
289.06103515625
 30
0.0
 10
484.5841064453125
 20
289.21731567382812
 30
0.0
 10
484.76922607421875
 20
289.38919067382812
 30
0.0
 10
484.93545532226562
 20
289.58065795898437
 30
0.0
 10
485.0843505859375
 20
289.78643798828125
 30
0.0
 10
485.21115112304687
 20
290.01351928710937
 30
0.0
 10
485.31866455078125
 20
290.25177001953125
 30
0.0
 10
485.40045166015625
 20
290.50485229492187
 30
0.0
 10
485.45596313476562
 20
290.76449584960937
 30
0.0
 10
485.48153686523437
 20
291.02432250976562
 30
0.0
 10
485.45892333984375
 20
291.53500366210937
 30
0.0
 10
485.33856201171875
 20
292.02496337890625
 30
0.0
 10
485.12628173828125
 20
292.4820556640625
 30
0.0
 10
484.98574829101562
 20
292.69192504882812
 30
0.0
 10
484.82949829101562
 20
292.88943481445312
 30
0.0
 10
484.65054321289062
 20
293.06991577148437
 30
0.0
 10
484.4559326171875
 20
293.23806762695312
 30
0.0
 10
484.24185180664062
 20
293.38748168945312
 30
0.0
 10
484.01290893554687
 20
293.51104736328125
 30
0.0
 10
483.766357421875
 20
293.61898803710937
 30
0.0
 10
483.51007080078125
 20
293.70272827148437
 30
0.0
 10
483.51007080078125
 20
293.70272827148437
 30
0.0
  0
LWPOLYLINE
  5
61
100
AcDbEntity
  8
0
 62
-1
420
0
370
1
 48
1.0
  6
CONTINUOUS
100
AcDbPolyline
 90
54
 70
0
 10
482.16671752929687
 20
311.30258178710937
 30
0.0
 10
481.90670776367187
 20
311.22079467773437
 30
0.0
 10
481.66522216796875
 20
311.11312866210937
 30
0.0
 10
481.22311401367187
 20
310.83822631835937
 30
0.0
 10
480.84783935546875
 20
310.4888916015625
 30
0.0
 10
480.550537109375
 20
310.080322265625
 30
0.0
 10
480.43170166015625
 20
309.85739135742187
 30
0.0
 10
480.3388671875
 20
309.62322998046875
 30
0.0
 10
480.2645263671875
 20
309.38180541992187
 30
0.0
 10
480.2161865234375
 20
309.13653564453125
 30
0.0
 10
480.19024658203125
 20
308.88027954101562
 30
0.0
 10
480.19393920898437
 20
308.623779296875
 30
0.0
 10
480.219970703125
 20
308.36376953125
 30
0.0
 10
480.27566528320312
 20
308.10379028320312
 30
0.0
 10
480.357421875
 20
307.85113525390625
 30
0.0
 10
480.46517944335937
 20
307.61331176757812
 30
0.0
 10
480.74005126953125
 20
307.182373046875
 30
0.0
 10
481.08935546875
 20
306.81820678710937
 30
0.0
 10
481.50173950195313
 20
306.5284423828125
 30
0.0
 10
481.72836303710937
 20
306.41705322265625
 30
0.0
 10
481.96243286132812
 20
306.32412719726562
 30
0.0
 10
482.20767211914062
 20
306.25726318359375
 30
0.0
 10
482.460205078125
 20
306.20889282226562
 30
0.0
 10
482.7203369140625
 20
306.186767578125
 30
0.0
 10
482.98037719726562
 20
306.194091796875
 30
0.0
 10
483.24786376953125
 20
306.22378540039062
 30
0.0
 10
483.51165771484375
 20
306.27957153320312
 30
0.0
 10
483.771728515625
 20
306.36129760742187
 30
0.0
 10
484.01324462890625
 20
306.46905517578125
 30
0.0
 10
484.45529174804687
 20
306.74395751953125
 30
0.0
 10
484.83056640625
 20
307.09323120117187
 30
0.0
 10
485.12783813476562
 20
307.50186157226562
 30
0.0
 10
485.24667358398437
 20
307.7210693359375
 30
0.0
 10
485.33956909179687
 20
307.9552001953125
 30
0.0
 10
485.4139404296875
 20
308.1966552734375
 30
0.0
 10
485.46212768554687
 20
308.44546508789062
 30
0.0
 10
485.48822021484375
 20
308.69815063476562
 30
0.0
 10
485.4844970703125
 20
308.958251953125
 30
0.0
 10
485.45846557617187
 20
309.21832275390625
 30
0.0
 10
485.40274047851562
 20
309.4783935546875
 30
0.0
 10
485.321044921875
 20
309.73092651367187
 30
0.0
 10
485.2132568359375
 20
309.96875
 30
0.0
 10
484.93832397460938
 20
310.39968872070312
 30
0.0
 10
484.58908081054687
 20
310.76385498046875
 30
0.0
 10
484.17672729492187
 20
311.0535888671875
 30
0.0
 10
483.95004272460937
 20
311.16513061523437
 30
0.0
 10
483.71597290039062
 20
311.25808715820312
 30
0.0
 10
483.4708251953125
 20
311.32485961914062
 30
0.0
 10
483.21817016601562
 20
311.37313842773437
 30
0.0
 10
482.95806884765625
 20
311.39544677734375
 30
0.0
 10
482.697998046875
 20
311.38809204101562
 30
0.0
 10
482.43051147460937
 20
311.35821533203125
 30
0.0
 10
482.16671752929687
 20
311.30258178710937
 30
0.0
 10
482.16671752929687
 20
311.30258178710937
 30
0.0
  0
LWPOLYLINE
  5
62
100
AcDbEntity
  8
0
 62
-1
420
0
370
1
 48
1.0
  6
CONTINUOUS
100
AcDbPolyline
 90
54
 70
0
 10
472.20321655273438
 20
325.87295532226562
 30
0.0
 10
472.01895141601562
 20
325.67208862304687
 30
0.0
 10
471.86358642578125
 20
325.45806884765625
 30
0.0
 10
471.61819458007812
 20
324.99896240234375
 30
0.0
 10
471.46783447265625
 20
324.50885009765625
 30
0.0
 10
471.414794921875
 20
324.00628662109375
 30
0.0
 10
471.42333984375
 20
323.75381469726562
 30
0.0
 10
471.45993041992187
 20
323.50466918945312
 30
0.0
 10
471.5162353515625
 20
323.25836181640625
 30
0.0
 10
471.59701538085937
 20
323.02182006835937
 30
0.0
 10
471.70278930664062
 20
322.786865234375
 30
0.0
 10
471.83407592773437
 20
322.56668090820312
 30
0.0
 10
471.9866943359375
 20
322.3544921875
 30
0.0
 10
472.16497802734375
 20
322.15713500976562
 30
0.0
 10
472.36203002929687
 20
321.97921752929687
 30
0.0
 10
472.57421875
 20
321.82717895507812
 30
0.0
 10
473.02786254882812
 20
321.59127807617187
 30
0.0
 10
473.51242065429687
 20
321.45068359375
 30
0.0
 10
474.01443481445312
 20
321.40585327148437
 30
0.0
 10
474.26638793945312
 20
321.42269897460938
 30
0.0
 10
474.51553344726562
 20
321.45932006835937
 30
0.0
 10
474.76138305664062
 20
321.52389526367187
 30
0.0
 10
475.00421142578125
 20
321.60845947265625
 30
0.0
 10
475.24066162109375
 20
321.71920776367187
 30
0.0
 10
475.46206665039062
 20
321.855712890625
 30
0.0
 10
475.67901611328125
 20
322.01513671875
 30
0.0
 10
475.87957763671875
 20
322.19534301757812
 30
0.0
 10
476.06387329101562
 20
322.39620971679687
 30
0.0
 10
476.21914672851562
 20
322.61016845703125
 30
0.0
 10
476.46456909179687
 20
323.06930541992187
 30
0.0
 10
476.61495971679687
 20
323.5594482421875
 30
0.0
 10
476.66799926757812
 20
324.06185913085937
 30
0.0
 10
476.66134643554687
 20
324.31121826171875
 30
0.0
 10
476.62478637695312
 20
324.56036376953125
 30
0.0
 10
476.56838989257812
 20
324.80661010742187
 30
0.0
 10
476.48565673828125
 20
325.04635620117187
 30
0.0
 10
476.38189697265625
 20
325.27816772460937
 30
0.0
 10
476.24871826171875
 20
325.50149536132812
 30
0.0
 10
476.0960693359375
 20
325.71380615234375
 30
0.0
 10
475.91778564453125
 20
325.91116333007812
 30
0.0
 10
475.720703125
 20
326.08901977539062
 30
0.0
 10
475.508544921875
 20
326.24111938476562
 30
0.0
 10
475.05496215820313
 20
326.47689819335938
 30
0.0
 10
474.57040405273437
 20
326.6175537109375
 30
0.0
 10
474.06838989257812
 20
326.66229248046875
 30
0.0
 10
473.81637573242187
 20
326.64556884765625
 30
0.0
 10
473.56723022460937
 20
326.60894775390625
 30
0.0
 10
473.32144165039062
 20
326.54428100585937
 30
0.0
 10
473.0784912109375
 20
326.45980834960937
 30
0.0
 10
472.84210205078125
 20
326.34909057617187
 30
0.0
 10
472.62063598632812
 20
326.21258544921875
 30
0.0
 10
472.40390014648437
 20
326.05307006835937
 30
0.0
 10
472.20321655273438
 20
325.87295532226562
 30
0.0
 10
472.20321655273438
 20
325.87295532226562
 30
0.0
  0
LWPOLYLINE
  5
63
100
AcDbEntity
  8
0
 62
-1
420
0
370
1
 48
1.0
  6
CONTINUOUS
100
AcDbPolyline
 90
54
 70
0
 10
456.28961181640625
 20
333.5091552734375
 30
0.0
 10
456.23043823242187
 20
333.24310302734375
 30
0.0
 10
456.20294189453125
 20
332.98004150390625
 30
0.0
 10
456.219970703125
 20
332.45974731445312
 30
0.0
 10
456.3348388671875
 20
331.96011352539062
 30
0.0
 10
456.5400390625
 20
331.4984130859375
 30
0.0
 10
456.67367553710937
 20
331.28399658203125
 30
0.0
 10
456.83004760742187
 20
331.08651733398438
 30
0.0
 10
457.001953125
 20
330.90139770507812
 30
0.0
 10
457.190185546875
 20
330.73696899414062
 30
0.0
 10
457.399169921875
 20
330.58627319335937
 30
0.0
 10
457.62310791015625
 20
330.46127319335937
 30
0.0
 10
457.861328125
 20
330.35382080078125
 30
0.0
 10
458.11428833007812
 20
330.27203369140625
 30
0.0
 10
458.3740234375
 20
330.21649169921875
 30
0.0
 10
458.63385009765625
 20
330.19094848632812
 30
0.0
 10
459.14450073242187
 20
330.21347045898437
 30
0.0
 10
459.634521484375
 20
330.333984375
 30
0.0
 10
460.09161376953125
 20
330.54617309570312
 30
0.0
 10
460.3013916015625
 20
330.68673706054687
 30
0.0
 10
460.49896240234375
 20
330.843017578125
 30
0.0
 10
460.67950439453125
 20
331.02191162109375
 30
0.0
 10
460.84762573242187
 20
331.21652221679687
 30
0.0
 10
460.99691772460937
 20
331.43069458007813
 30
0.0
 10
461.12051391601562
 20
331.65957641601562
 30
0.0
 10
461.22854614257812
 20
331.90609741210937
 30
0.0
 10
461.3121337890625
 20
332.16241455078125
 30
0.0
 10
461.37142944335937
 20
332.428466796875
 30
0.0
 10
461.39883422851562
 20
332.6915283203125
 30
0.0
 10
461.38177490234375
 20
333.21182250976563
 30
0.0
 10
461.26693725585938
 20
333.71145629882812
 30
0.0
 10
461.06170654296875
 20
334.17315673828125
 30
0.0
 10
460.93121337890625
 20
334.38571166992187
 30
0.0
 10
460.77499389648437
 20
334.58322143554687
 30
0.0
 10
460.60308837890625
 20
334.76834106445312
 30
0.0
 10
460.41168212890625
 20
334.93453979492187
 30
0.0
 10
460.20587158203125
 20
335.08343505859375
 30
0.0
 10
459.978759765625
 20
335.21026611328125
 30
0.0
 10
459.74053955078125
 20
335.3177490234375
 30
0.0
 10
459.4874267578125
 20
335.3995361328125
 30
0.0
 10
459.22784423828125
 20
335.45504760742187
 30
0.0
 10
458.968017578125
 20
335.48062133789062
 30
0.0
 10
458.45733642578125
 20
335.4580078125
 30
0.0
 10
457.96734619140625
 20
335.33758544921875
 30
0.0
 10
457.51028442382812
 20
335.1253662109375
 30
0.0
 10
457.30032348632812
 20
334.98486328125
 30
0.0
 10
457.10281372070312
 20
334.82861328125
 30
0.0
 10
456.92239379882813
 20
334.64962768554687
 30
0.0
 10
456.75421142578125
 20
334.45501708984375
 30
0.0
 10
456.6048583984375
 20
334.24093627929687
 30
0.0
 10
456.481201171875
 20
334.01202392578125
 30
0.0
 10
456.37332153320312
 20
333.76547241210937
 30
0.0
 10
456.28961181640625
 20
333.5091552734375
 30
0.0
 10
456.28961181640625
 20
333.5091552734375
 30
0.0
  0
LWPOLYLINE
  5
64
100
AcDbEntity
  8
0
 62
-1
420
0
370
1
 48
1.0
  6
CONTINUOUS
100
AcDbPolyline
 90
88
 70
0
 10
425.5936279296875
 20
313.2230224609375
 30
0.0
 10
425.28118896484375
 20
312.62686157226563
 30
0.0
 10
424.98080444335937
 20
312.02667236328125
 30
0.0
 10
424.696533203125
 20
311.41421508789062
 30
0.0
 10
424.42648315429687
 20
310.7965087890625
 30
0.0
 10
424.16943359375
 20
310.1712646484375
 30
0.0
 10
423.92971801757812
 20
309.53604125976562
 30
0.0
 10
423.70419311523437
 20
308.89544677734375
 30
0.0
 10
423.492919921875
 20
308.24954223632812
 30
0.0
 10
423.29901123046875
 20
307.59365844726562
 30
0.0
 10
423.11932373046875
 20
306.93240356445312
 30
0.0
 10
422.95602416992187
 20
306.26458740234375
 30
0.0
 10
422.80914306640625
 20
305.59014892578125
 30
0.0
 10
422.67864990234375
 20
304.9091796875
 30
0.0
 10
422.56585693359375
 20
304.2237548828125
 30
0.0
 10
422.46942138671875
 20
303.53173828125
 30
0.0
 10
422.38723754882812
 20
302.83441162109375
 30
0.0
 10
422.32614135742187
 20
302.133544921875
 30
0.0
 10
422.28143310546875
 20
301.4261474609375
 30
0.0
 10
422.25439453125
 20
300.71429443359375
 30
0.0
 10
422.2449951171875
 20
299.998046875
 30
0.0
 10
422.28143310546875
 20
298.5711669921875
 30
0.0
 10
422.38833618164062
 20
297.16131591796875
 30
0.0
 10
422.56478881835937
 20
295.77194213867187
 30
0.0
 10
422.80990600585937
 20
294.40646362304687
 30
0.0
 10
423.1180419921875
 20
293.065185546875
 30
0.0
 10
423.49139404296875
 20
291.74688720703125
 30
0.0
 10
423.85549926757812
 20
290.67282104492188
 30
0.0
 10
435.25985717773437
 20
297.25711059570312
 30
0.0
 10
435.208740234375
 20
297.52191162109375
 30
0.0
 10
435.10711669921875
 20
298.23590087890625
 30
0.0
 10
435.039306640625
 20
298.95343017578125
 30
0.0
 10
435.00531005859375
 20
299.674560546875
 30
0.0
 10
435.00637817382812
 20
300.40139770507812
 30
0.0
 10
435.0430908203125
 20
301.12496948242187
 30
0.0
 10
435.11361694335937
 20
301.85214233398437
 30
0.0
 10
435.221923828125
 20
302.57479858398437
 30
0.0
 10
435.3671875
 20
303.29635620117187
 30
0.0
 10
435.54806518554687
 20
304.0146484375
 30
0.0
 10
435.7655029296875
 20
304.72625732421875
 30
0.0
 10
436.01950073242187
 20
305.43118286132812
 30
0.0
 10
436.3134765625
 20
306.13037109375
 30
0.0
 10
436.6436767578125
 20
306.81732177734375
 30
0.0
 10
437.01263427734375
 20
307.49630737304687
 30
0.0
 10
437.41616821289062
 20
308.15530395507812
 30
0.0
 10
437.84722900390625
 20
308.78692626953125
 30
0.0
 10
438.30450439453125
 20
309.38894653320312
 30
0.0
 10
438.78799438476562
 20
309.96136474609375
 30
0.0
 10
439.29678344726562
 20
310.50765991210937
 30
0.0
 10
439.82717895507812
 20
311.02127075195312
 30
0.0
 10
440.37942504882812
 20
311.50784301757813
 30
0.0
 10
440.95236206054687
 20
311.96514892578125
 30
0.0
 10
441.54556274414062
 20
312.38763427734375
 30
0.0
 10
442.15512084960937
 20
312.78338623046875
 30
0.0
 10
442.78280639648437
 20
313.14556884765625
 30
0.0
 10
443.42556762695312
 20
313.47882080078125
 30
0.0
 10
444.08087158203125
 20
313.77890014648437
 30
0.0
 10
444.75
 20
314.0478515625
 30
0.0
 10
445.12527465820312
 20
314.17666625976562
 30
0.0
 10
445.12527465820312
 20
327.30856323242187
 30
0.0
 10
444.39788818359375
 20
327.17800903320312
 30
0.0
 10
443.05661010742187
 20
326.86984252929687
 30
0.0
 10
441.74050903320312
 20
326.4952392578125
 30
0.0
 10
440.44979858398437
 20
326.05972290039062
 30
0.0
 10
439.190185546875
 20
325.56298828125
 30
0.0
 10
437.96160888671875
 20
325.00503540039062
 30
0.0
 10
436.76565551757813
 20
324.3935546875
 30
0.0
 10
435.603271484375
 20
323.72525024414062
 30
0.0
 10
434.47689819335937
 20
323.00433349609375
 30
0.0
 10
433.38876342773437
 20
322.2296142578125
 30
0.0
 10
432.86041259765625
 20
321.82449340820312
 30
0.0
 10
432.34133911132812
 20
321.4053955078125
 30
0.0
 10
431.833984375
 20
320.97662353515625
 30
0.0
 10
431.33584594726562
 20
320.53387451171875
 30
0.0
 10
430.84732055664062
 20
320.08270263671875
 30
0.0
 10
430.37234497070312
 20
319.61505126953125
 30
0.0
 10
429.90695190429687
 20
319.13894653320312
 30
0.0
 10
429.45330810546875
 20
318.6531982421875
 30
0.0
 10
429.01229858398437
 20
318.15435791015625
 30
0.0
 10
428.58087158203125
 20
317.6470947265625
 30
0.0
 10
428.162109375
 20
317.12680053710937
 30
0.0
 10
427.75851440429687
 20
316.59771728515625
 30
0.0
 10
427.36322021484375
 20
316.05807495117187
 30
0.0
 10
426.98309326171875
 20
315.5096435546875
 30
0.0
 10
426.61685180664062
 20
314.95034790039062
 30
0.0
 10
426.261474609375
 20
314.384765625
 30
0.0
 10
425.922119140625
 20
313.8070068359375
 30
0.0
 10
425.5936279296875
 20
313.2230224609375
 30
0.0
  0
LWPOLYLINE
  5
65
100
AcDbEntity
  8
0
 62
-1
420
0
370
1
 48
1.0
  6
CONTINUOUS
100
AcDbPolyline
 90
92
 70
0
 10
429.010009765625
 20
281.84036254882812
 30
0.0
 10
429.45278930664062
 20
281.34225463867187
 30
0.0
 10
429.9073486328125
 20
280.85464477539062
 30
0.0
 10
430.37161254882812
 20
280.37875366210937
 30
0.0
 10
430.84768676757812
 20
279.91336059570312
 30
0.0
 10
431.33468627929687
 20
279.46188354492188
 30
0.0
 10
431.832275390625
 20
279.01870727539062
 30
0.0
 10
432.34292602539062
 20
278.58819580078125
 30
0.0
 10
432.861083984375
 20
278.17068481445312
 30
0.0
 10
433.388916015625
 20
277.764892578125
 30
0.0
 10
433.92984008789062
 20
277.37176513671875
 30
0.0
 10
434.47824096679687
 20
276.99163818359375
 30
0.0
 10
435.03631591796875
 20
276.62326049804687
 30
0.0
 10
435.6031494140625
 20
276.27001953125
 30
0.0
 10
436.17962646484375
 20
275.92852783203125
 30
0.0
 10
436.76486206054687
 20
275.60220336914063
 30
0.0
 10
437.35977172851563
 20
275.28756713867187
 30
0.0
 10
437.96124267578125
 20
274.98941040039062
 30
0.0
 10
438.57241821289062
 20
274.70294189453125
 30
0.0
 10
439.19012451171875
 20
274.43289184570312
 30
0.0
 10
439.81661987304687
 20
274.177978515625
 30
0.0
 10
440.45059204101562
 20
273.93609619140625
 30
0.0
 10
441.0911865234375
 20
273.71060180664062
 30
0.0
 10
441.74050903320312
 20
273.500244140625
 30
0.0
 10
442.3951416015625
 20
273.30413818359375
 30
0.0
 10
443.05764770507812
 20
273.12664794921875
 30
0.0
 10
443.7254638671875
 20
272.96331787109375
 30
0.0
 10
444.39990234375
 20
272.81646728515625
 30
0.0
 10
445.07870483398437
 20
272.68719482421875
 30
0.0
 10
445.76504516601562
 20
272.57098388671875
 30
0.0
 10
446.45703125
 20
272.47454833984375
 30
0.0
 10
447.15347290039062
 20
272.39578247070312
 30
0.0
 10
447.85647583007812
 20
272.33346557617187
 30
0.0
 10
448.56390380859375
 20
272.28875732421875
 30
0.0
 10
449.2757568359375
 20
272.26168823242187
 30
0.0
 10
449.99203491210937
 20
272.2523193359375
 30
0.0
 10
451.416748046875
 20
272.28997802734375
 30
0.0
 10
452.82659912109375
 20
272.39691162109375
 30
0.0
 10
454.2159423828125
 20
272.57333374023437
 30
0.0
 10
455.5814208984375
 20
272.81845092773437
 30
0.0
 10
456.92269897460937
 20
273.1265869140625
 30
0.0
 10
458.24099731445312
 20
273.49996948242187
 30
0.0
 10
459.529541015625
 20
273.93673706054687
 30
0.0
 10
460.78915405273437
 20
274.4334716796875
 30
0.0
 10
462.0198974609375
 20
274.99020385742187
 30
0.0
 10
463.2158203125
 20
275.60162353515625
 30
0.0
 10
464.37606811523437
 20
276.27120971679687
 30
0.0
 10
465.50241088867187
 20
276.99209594726562
 30
0.0
 10
466.59054565429687
 20
277.76681518554687
 30
0.0
 10
467.118896484375
 20
278.17193603515625
 30
0.0
 10
467.64016723632812
 20
278.58981323242187
 30
0.0
 10
468.14752197265625
 20
279.0185546875
 30
0.0
 10
468.6456298828125
 20
279.46133422851562
 30
0.0
 10
469.13327026367187
 20
279.9158935546875
 30
0.0
 10
469.609130859375
 20
280.38018798828125
 30
0.0
 10
470.07455444335937
 20
280.85626220703125
 30
0.0
 10
470.52603149414062
 20
281.34326171875
 30
0.0
 10
470.96920776367187
 20
281.84085083007812
 30
0.0
 10
471.12631225585937
 20
282.0272216796875
 30
0.0
 10
459.74850463867187
 20
288.59622192382812
 30
0.0
 10
459.62564086914062
 20
288.48818969726562
 30
0.0
 10
459.05270385742187
 20
288.03091430664062
 30
0.0
 10
458.46041870117187
 20
287.60498046875
 30
0.0
 10
457.8499755859375
 20
287.212646484375
 30
0.0
 10
457.22317504882812
 20
286.8470458984375
 30
0.0
 10
456.58169555664062
 20
286.51593017578125
 30
0.0
 10
455.9241943359375
 20
286.21713256835937
 30
0.0
 10
455.25506591796875
 20
285.94818115234375
 30
0.0
 10
454.5767822265625
 20
285.71334838867187
 30
0.0
 10
453.88467407226562
 20
285.50961303710937
 30
0.0
 10
453.18685913085937
 20
285.34091186523437
 30
0.0
 10
452.47860717773437
 20
285.2042236328125
 30
0.0
 10
451.7646484375
 20
285.10260009765625
 30
0.0
 10
451.047119140625
 20
285.0347900390625
 30
0.0
 10
450.32601928710937
 20
285.00076293945313
 30
0.0
 10
449.59918212890625
 20
285.00186157226562
 30
0.0
 10
448.87554931640625
 20
285.03854370117187
 30
0.0
 10
448.1484375
 20
285.10906982421875
 30
0.0
 10
447.42578125
 20
285.21743774414062
 30
0.0
 10
446.7042236328125
 20
285.36264038085937
 30
0.0
 10
445.98593139648437
 20
285.54354858398437
 30
0.0
 10
445.27432250976562
 20
285.760986328125
 30
0.0
 10
444.5693359375
 20
286.01498413085937
 30
0.0
 10
443.87017822265625
 20
286.30892944335937
 30
0.0
 10
443.18325805664062
 20
286.63916015625
 30
0.0
 10
442.5042724609375
 20
287.00808715820313
 30
0.0
 10
441.84524536132812
 20
287.41165161132812
 30
0.0
 10
441.21365356445312
 20
287.84268188476562
 30
0.0
 10
440.61163330078125
 20
288.29995727539062
 30
0.0
 10
440.25997924804687
 20
288.59698486328125
 30
0.0
 10
428.86227416992187
 20
282.0164794921875
 30
0.0
 10
429.010009765625
 20
281.84036254882812
 30
0.0
  0
LWPOLYLINE
  5
66
100
AcDbEntity
  8
0
 62
-1
420
0
370
1
 48
1.0
  6
CONTINUOUS
100
AcDbPolyline
 90
91
 70
0
 10
455.12527465820313
 20
314.09243774414062
 30
0.0
 10
455.4378662109375
 20
313.97979736328125
 30
0.0
 10
456.1348876953125
 20
313.68707275390625
 30
0.0
 10
456.823974609375
 20
313.35562133789062
 30
0.0
 10
457.50299072265625
 20
312.9866943359375
 30
0.0
 10
458.1619873046875
 20
312.58309936523437
 30
0.0
 10
458.7935791015625
 20
312.15206909179687
 30
0.0
 10
459.39559936523437
 20
311.69479370117187
 30
0.0
 10
459.96804809570312
 20
311.2113037109375
 30
0.0
 10
460.51217651367187
 20
310.7037353515625
 30
0.0
 10
461.0279541015625
 20
310.172119140625
 30
0.0
 10
461.5145263671875
 20
309.61984252929687
 30
0.0
 10
461.96966552734375
 20
309.04818725585937
 30
0.0
 10
462.39431762695312
 20
308.4537353515625
 30
0.0
 10
462.79006958007812
 20
307.84417724609375
 30
0.0
 10
463.15225219726562
 20
307.21649169921875
 30
0.0
 10
463.48336791992187
 20
306.57501220703125
 30
0.0
 10
463.78338623046875
 20
305.919677734375
 30
0.0
 10
464.0523681640625
 20
305.25054931640625
 30
0.0
 10
464.28811645507812
 20
304.56887817382812
 30
0.0
 10
464.49093627929687
 20
303.88015747070312
 30
0.0
 10
464.6605224609375
 20
303.17892456054687
 30
0.0
 10
464.79629516601562
 20
302.47409057617187
 30
0.0
 10
464.89794921875
 20
301.76016235351562
 30
0.0
 10
464.96575927734375
 20
301.04257202148437
 30
0.0
 10
464.99850463867187
 20
300.3193359375
 30
0.0
 10
464.99871826171875
 20
299.59463500976562
 30
0.0
 10
464.96075439453125
 20
298.868896484375
 30
0.0
 10
464.89144897460937
 20
298.14389038085937
 30
0.0
 10
464.78189086914062
 20
297.41909790039062
 30
0.0
 10
464.74908447265625
 20
297.25613403320312
 30
0.0
 10
476.13116455078125
 20
290.68466186523437
 30
0.0
 10
476.27728271484375
 20
291.0997314453125
 30
0.0
 10
476.48764038085937
 20
291.74908447265625
 30
0.0
 10
476.68374633789062
 20
292.40371704101562
 30
0.0
 10
476.86343383789062
 20
293.06497192382813
 30
0.0
 10
477.02670288085937
 20
293.7327880859375
 30
0.0
 10
477.17361450195312
 20
294.40719604492187
 30
0.0
 10
477.30282592773437
 20
295.08602905273438
 30
0.0
 10
477.41690063476562
 20
295.77362060546875
 30
0.0
 10
477.51333618164062
 20
296.46563720703125
 30
0.0
 10
477.59210205078125
 20
297.16204833984375
 30
0.0
 10
477.6566162109375
 20
297.86380004882812
 30
0.0
 10
477.70132446289062
 20
298.57122802734375
 30
0.0
 10
477.72836303710937
 20
299.28305053710938
 30
0.0
 10
477.73776245117187
 20
299.99932861328125
 30
0.0
 10
477.69790649414062
 20
301.42529296875
 30
0.0
 10
477.59100341796875
 20
302.83514404296875
 30
0.0
 10
477.41455078125
 20
304.2244873046875
 30
0.0
 10
477.17160034179687
 20
305.5887451171875
 30
0.0
 10
476.86129760742187
 20
306.9312744140625
 30
0.0
 10
476.48794555664062
 20
308.24954223632812
 30
0.0
 10
476.05117797851562
 20
309.5380859375
 30
0.0
 10
475.55441284179687
 20
310.7977294921875
 30
0.0
 10
474.9998779296875
 20
312.02719116210937
 30
0.0
 10
474.38626098632812
 20
313.22439575195312
 30
0.0
 10
473.7188720703125
 20
314.38339233398438
 30
0.0
 10
472.99578857421875
 20
315.510986328125
 30
0.0
 10
472.22320556640625
 20
316.59786987304687
 30
0.0
 10
471.81594848632812
 20
317.12747192382812
 30
0.0
 10
471.4002685546875
 20
317.6474609375
 30
0.0
 10
470.96932983398437
 20
318.15609741210937
 30
0.0
 10
470.52655029296875
 20
318.65420532226562
 30
0.0
 10
470.07415771484375
 20
319.14056396484375
 30
0.0
 10
469.60989379882812
 20
319.616455078125
 30
0.0
 10
469.13381958007812
 20
320.08184814453125
 30
0.0
 10
468.6446533203125
 20
320.53457641601562
 30
0.0
 10
468.14703369140625
 20
320.97775268554687
 30
0.0
 10
467.6385498046875
 20
321.40701293945312
 30
0.0
 10
467.11825561523437
 20
321.82577514648437
 30
0.0
 10
466.59042358398437
 20
322.23153686523437
 30
0.0
 10
466.05166625976562
 20
322.62344360351562
 30
0.0
 10
465.5010986328125
 20
323.00482177734375
 30
0.0
 10
464.94515991210937
 20
323.3719482421875
 30
0.0
 10
464.37619018554687
 20
323.7264404296875
 30
0.0
 10
463.79971313476562
 20
324.06793212890625
 30
0.0
 10
463.2144775390625
 20
324.39425659179687
 30
0.0
 10
462.62173461914062
 20
324.70761108398437
 30
0.0
 10
462.01809692382812
 20
325.00704956054687
 30
0.0
 10
461.40908813476562
 20
325.29226684570312
 30
0.0
 10
460.78921508789062
 20
325.56356811523437
 30
0.0
 10
460.1627197265625
 20
325.8184814453125
 30
0.0
 10
459.52871704101562
 20
326.06036376953125
 30
0.0
 10
458.88815307617187
 20
326.28585815429687
 30
0.0
 10
458.24099731445312
 20
326.49496459960937
 30
0.0
 10
457.58636474609375
 20
326.6910400390625
 30
0.0
 10
456.92510986328125
 20
326.8707275390625
 30
0.0
 10
456.25726318359375
 20
327.03402709960937
 30
0.0
 10
455.58285522460937
 20
327.180908203125
 30
0.0
 10
455.12530517578125
 20
327.26858520507812
 30
0.0
 10
455.12527465820313
 20
314.09243774414062
 30
0.0
  0
ENDSEC
  0
SECTION
  2
OBJECTS
  0
DICTIONARY
  5
C
100
AcDbDictionary
280
0
281
1
  3
ACAD_GROUP
350
D
  3
ACAD_LAYOUT
350
1A
  3
ACAD_MLINESTYLE
350
17
  3
ACAD_PLOTSETTINGS
350
19
  3
ACAD_PLOTSTYLENAME
350
E
  3
AcDbVariableDictionary
350
67
  0
DICTIONARY
  5
D
100
AcDbDictionary
280
0
281
1
  0
ACDBDICTIONARYWDFLT
  5
E
100
AcDbDictionary
281
1
  3
Normal
350
F
100
AcDbDictionaryWithDefault
340
F
  0
ACDBPLACEHOLDER
  5
F
  0
DICTIONARY
  5
17
100
AcDbDictionary
280
0
281
1
  3
Standard
350
18
  0
MLINESTYLE
  5
18
100
AcDbMlineStyle
  2
STANDARD
 70
0
  3

 62
256
 51
90.0
 52
90.0
 71
2
 49
0.5
 62
256
  6
BYLAYER
 49
-0.5
 62
256
  6
BYLAYER
  0
DICTIONARY
  5
19
100
AcDbDictionary
280
0
281
1
  0
DICTIONARY
  5
1A
100
AcDbDictionary
281
1
  3
Layout1
350
1E
  3
Layout2
350
26
  3
Model
350
22
  0
LAYOUT
  5
1E
100
AcDbPlotSettings
  1

  2
none_device
  4

  6

 40
0.0
 41
0.0
 42
0.0
 43
0.0
 44
0.0
 45
0.0
 46
0.0
 47
0.0
 48
0.0
 49
0.0
140
0.0
141
0.0
142
1.0
143
1.0
 70
688
 72
0
 73
0
 74
5
  7

 75
16
147
1.0
148
0.0
149
0.0
100
AcDbLayout
  1
Layout1
 70
1
 71
1
 10
0.0
 20
0.0
 11
420.0
 21
297.0
 12
0.0
 22
0.0
 32
0.0
 14
100000000000000000000.0
 24
100000000000000000000.0
 34
100000000000000000000.0
 15
-100000000000000000000.0
 25
-100000000000000000000.0
 35
-100000000000000000000.0
146
0.0
 13
0.0
 23
0.0
 33
0.0
 16
1.0
 26
0.0
 36
0.0
 17
0.0
 27
1.0
 37
0.0
 76
0
330
1B
  0
LAYOUT
  5
22
100
AcDbPlotSettings
  1

  2
none_device
  4

  6

 40
0.0
 41
0.0
 42
0.0
 43
0.0
 44
0.0
 45
0.0
 46
0.0
 47
0.0
 48
0.0
 49
0.0
140
0.0
141
0.0
142
1.0
143
1.0
 70
1712
 72
0
 73
0
 74
0
  7

 75
0
147
1.0
148
0.0
149
0.0
100
AcDbLayout
  1
Model
 70
1
 71
0
 10
0.0
 20
0.0
 11
12.0
 21
9.0
 12
0.0
 22
0.0
 32
0.0
 14
0.0
 24
0.0
 34
0.0
 15
0.0
 25
0.0
 35
0.0
146
0.0
 13
0.0
 23
0.0
 33
0.0
 16
1.0
 26
0.0
 36
0.0
 17
0.0
 27
1.0
 37
0.0
 76
0
330
1F
  0
LAYOUT
  5
26
100
AcDbPlotSettings
  1

  2
none_device
  4

  6

 40
0.0
 41
0.0
 42
0.0
 43
0.0
 44
0.0
 45
0.0
 46
0.0
 47
0.0
 48
0.0
 49
0.0
140
0.0
141
0.0
142
1.0
143
1.0
 70
688
 72
0
 73
0
 74
5
  7

 75
16
147
1.0
148
0.0
149
0.0
100
AcDbLayout
  1
Layout2
 70
1
 71
2
 10
0.0
 20
0.0
 11
12.0
 21
9.0
 12
0.0
 22
0.0
 32
0.0
 14
0.0
 24
0.0
 34
0.0
 15
0.0
 25
0.0
 35
0.0
146
0.0
 13
0.0
 23
0.0
 33
0.0
 16
1.0
 26
0.0
 36
0.0
 17
0.0
 27
1.0
 37
0.0
 76
0
330
23
  0
DICTIONARY
  5
67
100
AcDbDictionary
281
1
  3
DIMASSOC
350
69
  3
HIDETEXT
350
68
  0
DICTIONARYVAR
  5
68
100
DictionaryVariables
280
0
  1
2
  0
DICTIONARYVAR
  5
69
100
DictionaryVariables
280
0
  1
1
  0
ENDSEC
  0
EOF
