999
dxflib 3.17.0.0
  0
SECTION
  2
HEADER
  9
$ACADVER
  1
AC1015
  9
$HANDSEED
  5
FFFF
  9
$INSUNITS
 70
4
  9
$DIMEXE
 40
1.25
  9
$TEXTSTYLE
  7
Standard
  9
$LIMMIN
 10
0.0
 20
0.0
  0
ENDSEC
  0
SECTION
  2
TABLES
  0
TABLE
  2
VPORT
  5
8
100
AcDbSymbolTable
 70
1
  0
VPORT
  5
30
100
AcDbSymbolTableRecord
100
AcDbViewportTableRecord
  2
*Active
 70
0
 10
0.0
 20
0.0
 11
1.0
 21
1.0
 12
286.30555555555549
 22
148.5
 13
0.0
 23
0.0
 14
10.0
 24
10.0
 15
10.0
 25
10.0
 16
0.0
 26
0.0
 36
1.0
 17
0.0
 27
0.0
 37
0.0
 40
297.0
 41
1.92798353909465
 42
50.0
 43
0.0
 44
0.0
 50
0.0
 51
0.0
 71
0
 72
100
 73
1
 74
3
 75
1
 76
1
 77
0
 78
0
281
0
 65
1
110
0.0
120
0.0
130
0.0
111
1.0
121
0.0
131
0.0
112
0.0
122
1.0
132
0.0
 79
0
146
0.0
  0
ENDTAB
  0
TABLE
  2
LTYPE
  5
5
100
AcDbSymbolTable
 70
25
  0
LTYPE
  5
14
100
AcDbSymbolTableRecord
100
AcDbLinetypeTableRecord
  2
BYBLOCK
 70
0
  3

 72
65
 73
0
 40
0.0
  0
LTYPE
  5
15
100
AcDbSymbolTableRecord
100
AcDbLinetypeTableRecord
  2
BYLAYER
 70
0
  3

 72
65
 73
0
 40
0.0
  0
LTYPE
  5
16
100
AcDbSymbolTableRecord
100
AcDbLinetypeTableRecord
  2
CONTINUOUS
 70
0
  3
Solid line
 72
65
 73
0
 40
0.0
  0
LTYPE
  5
31
100
AcDbSymbolTableRecord
100
AcDbLinetypeTableRecord
  2
ACAD_ISO02W100
 70
0
  3

 72
65
 73
0
 40
0.0
  0
LTYPE
  5
32
100
AcDbSymbolTableRecord
100
AcDbLinetypeTableRecord
  2
ACAD_ISO03W100
 70
0
  3

 72
65
 73
0
 40
0.0
  0
LTYPE
  5
33
100
AcDbSymbolTableRecord
100
AcDbLinetypeTableRecord
  2
ACAD_ISO04W100
 70
0
  3

 72
65
 73
0
 40
0.0
  0
LTYPE
  5
34
100
AcDbSymbolTableRecord
100
AcDbLinetypeTableRecord
  2
ACAD_ISO05W100
 70
0
  3

 72
65
 73
0
 40
0.0
  0
LTYPE
  5
35
100
AcDbSymbolTableRecord
100
AcDbLinetypeTableRecord
  2
BORDER
 70
0
  3

 72
65
 73
0
 40
0.0
  0
LTYPE
  5
36
100
AcDbSymbolTableRecord
100
AcDbLinetypeTableRecord
  2
BORDER2
 70
0
  3

 72
65
 73
0
 40
0.0
  0
LTYPE
  5
37
100
AcDbSymbolTableRecord
100
AcDbLinetypeTableRecord
  2
BORDERX2
 70
0
  3

 72
65
 73
0
 40
0.0
  0
LTYPE
  5
38
100
AcDbSymbolTableRecord
100
AcDbLinetypeTableRecord
  2
CENTER
 70
0
  3

 72
65
 73
0
 40
0.0
  0
LTYPE
  5
39
100
AcDbSymbolTableRecord
100
AcDbLinetypeTableRecord
  2
CENTER2
 70
0
  3

 72
65
 73
0
 40
0.0
  0
LTYPE
  5
3A
100
AcDbSymbolTableRecord
100
AcDbLinetypeTableRecord
  2
CENTERX2
 70
0
  3

 72
65
 73
0
 40
0.0
  0
LTYPE
  5
3B
100
AcDbSymbolTableRecord
100
AcDbLinetypeTableRecord
  2
DASHDOT
 70
0
  3

 72
65
 73
0
 40
0.0
  0
LTYPE
  5
3C
100
AcDbSymbolTableRecord
100
AcDbLinetypeTableRecord
  2
DASHDOT2
 70
0
  3

 72
65
 73
0
 40
0.0
  0
LTYPE
  5
3D
100
AcDbSymbolTableRecord
100
AcDbLinetypeTableRecord
  2
DASHDOTX2
 70
0
  3

 72
65
 73
0
 40
0.0
  0
LTYPE
  5
3E
100
AcDbSymbolTableRecord
100
AcDbLinetypeTableRecord
  2
DASHED
 70
0
  3

 72
65
 73
0
 40
0.0
  0
LTYPE
  5
3F
100
AcDbSymbolTableRecord
100
AcDbLinetypeTableRecord
  2
DASHED2
 70
0
  3

 72
65
 73
0
 40
0.0
  0
LTYPE
  5
40
100
AcDbSymbolTableRecord
100
AcDbLinetypeTableRecord
  2
DASHEDX2
 70
0
  3

 72
65
 73
0
 40
0.0
  0
LTYPE
  5
41
100
AcDbSymbolTableRecord
100
AcDbLinetypeTableRecord
  2
DIVIDE
 70
0
  3

 72
65
 73
0
 40
0.0
  0
LTYPE
  5
42
100
AcDbSymbolTableRecord
100
AcDbLinetypeTableRecord
  2
DIVIDE2
 70
0
  3

 72
65
 73
0
 40
0.0
  0
LTYPE
  5
43
100
AcDbSymbolTableRecord
100
AcDbLinetypeTableRecord
  2
DIVIDEX2
 70
0
  3

 72
65
 73
0
 40
0.0
  0
LTYPE
  5
44
100
AcDbSymbolTableRecord
100
AcDbLinetypeTableRecord
  2
DOT
 70
0
  3

 72
65
 73
0
 40
0.0
  0
LTYPE
  5
45
100
AcDbSymbolTableRecord
100
AcDbLinetypeTableRecord
  2
DOT2
 70
0
  3

 72
65
 73
0
 40
0.0
  0
LTYPE
  5
46
100
AcDbSymbolTableRecord
100
AcDbLinetypeTableRecord
  2
DOTX2
 70
0
  3

 72
65
 73
0
 40
0.0
  0
ENDTAB
  0
TABLE
  2
LAYER
  5
2
100
AcDbSymbolTable
 70
1
  0
LAYER
  5
10
100
AcDbSymbolTableRecord
100
AcDbLayerTableRecord
  2
0
 70
0
 62
-1
420
0
  6
CONTINUOUS
370
1
390
F
  0
ENDTAB
  0
STYLE
  5
47
100
AcDbSymbolTableRecord
100
AcDbTextStyleTableRecord
  2

 70
0
 40
0.0
 41
0.0
 50
0.0
 71
0
 42
0.0
  3

  4

1001
ACAD
1000

1071
0
  0
TABLE
  2
VIEW
  5
6
100
AcDbSymbolTable
 70
0
  0
ENDTAB
  0
TABLE
  2
UCS
  5
7
100
AcDbSymbolTable
 70
0
  0
ENDTAB
  0
TABLE
  2
APPID
  5
9
100
AcDbSymbolTable
 70
1
  0
APPID
  5
12
100
AcDbSymbolTableRecord
100
AcDbRegAppTableRecord
  2
ACAD
 70
0
  0
ENDTAB
  0
TABLE
  2
DIMSTYLE
  5
A
100
AcDbSymbolTable
 70
1
100
AcDbDimStyleTable
 71
0
  0
DIMSTYLE
105
27
100
AcDbSymbolTableRecord
100
AcDbDimStyleTableRecord
  2
Standard
 41
1.0
 42
1.0
 43
3.75
 44
1.0
 70
0
 73
0
 74
0
 77
1
 78
8
140
1.0
141
2.5
143
0.03937007874016
147
1.0
171
3
172
1
271
2
272
2
274
3
278
44
283
0
284
8
340
2B00002B
  0
ENDTAB
  0
TABLE
  2
BLOCK_RECORD
  5
1
100
AcDbSymbolTable
 70
1
  0
BLOCK_RECORD
  5
1F
100
AcDbSymbolTableRecord
100
AcDbBlockTableRecord
  2
*Model_Space
340
22
  0
BLOCK_RECORD
  5
1B
100
AcDbSymbolTableRecord
100
AcDbBlockTableRecord
  2
*Paper_Space
340
1E
  0
BLOCK_RECORD
  5
23
100
AcDbSymbolTableRecord
100
AcDbBlockTableRecord
  2
*Paper_Space0
340
26
  0
BLOCK_RECORD
  5
48
100
AcDbSymbolTableRecord
100
AcDbBlockTableRecord
  2
myblock1
340
0
  0
BLOCK_RECORD
  5
49
100
AcDbSymbolTableRecord
100
AcDbBlockTableRecord
  2
myblock2
340
0
  0
ENDTAB
  0
ENDSEC
  0
SECTION
  2
BLOCKS
  0
BLOCK
  5
20
100
AcDbEntity
  8
0
100
AcDbBlockBegin
  2
*Model_Space
 70
0
 10
0.0
 20
0.0
 30
0.0
  3
*Model_Space
  1

  0
ENDBLK
  5
21
100
AcDbEntity
  8
0
100
AcDbBlockEnd
  0
BLOCK
  5
1C
100
AcDbEntity
 67
1
  8
0
100
AcDbBlockBegin
  2
*Paper_Space
 70
0
 10
0.0
 20
0.0
 30
0.0
  3
*Paper_Space
  1

  0
ENDBLK
  5
1D
100
AcDbEntity
 67
1
  8
0
100
AcDbBlockEnd
  0
BLOCK
  5
24
100
AcDbEntity
  8
0
100
AcDbBlockBegin
  2
*Paper_Space0
 70
0
 10
0.0
 20
0.0
 30
0.0
  3
*Paper_Space0
  1

  0
ENDBLK
  5
25
100
AcDbEntity
  8
0
100
AcDbBlockEnd
  0
BLOCK
  5
4A
100
AcDbEntity
  8
0
100
AcDbBlockBegin
  2
myblock1
 70
0
 10
0.0
 20
0.0
 30
0.0
  3
myblock1
  1

  0
ENDBLK
  5
4B
100
AcDbEntity
  8
0
100
AcDbBlockEnd
  0
BLOCK
  5
4C
100
AcDbEntity
  8
0
100
AcDbBlockBegin
  2
myblock2
 70
0
 10
0.0
 20
0.0
 30
0.0
  3
myblock2
  1

  0
ENDBLK
  5
4D
100
AcDbEntity
  8
0
100
AcDbBlockEnd
  0
ENDSEC
  0
SECTION
  2
ENTITIES
  0
LWPOLYLINE
  5
4E
100
AcDbEntity
  8
0
 62
-1
420
0
370
1
 48
1.0
  6
CONTINUOUS
100
AcDbPolyline
 90
259
 70
0
 10
412.75244140625
 20
300.0029296875
 30
0.0
 10
412.76504516601562
 20
299.04046630859375
 30
0.0
 10
412.79998779296875
 20
298.08538818359375
 30
0.0
 10
412.86004638671875
 20
297.13543701171875
 30
0.0
 10
412.94497680664062
 20
296.19290161132812
 30
0.0
 10
413.05252075195312
 20
295.25790405273437
 30
0.0
 10
413.18252563476562
 20
294.33041381835937
 30
0.0
 10
413.33502197265625
 20
293.40792846679687
 30
0.0
 10
413.510009765625
 20
292.49542236328125
 30
0.0
 10
413.70755004882812
 20
291.59042358398437
 30
0.0
 10
413.925048828125
 20
290.69293212890625
 30
0.0
 10
414.1650390625
 20
289.805419921875
 30
0.0
 10
414.42755126953125
 20
288.92544555664062
 30
0.0
 10
414.71002197265625
 20
288.05535888671875
 30
0.0
 10
415.01251220703125
 20
287.19293212890625
 30
0.0
 10
415.33505249023437
 20
286.34292602539062
 30
0.0
 10
415.68002319335937
 20
285.50296020507812
 30
0.0
 10
416.04248046875
 20
284.67041015625
 30
0.0
 10
416.42498779296875
 20
283.85296630859375
 30
0.0
 10
416.82754516601562
 20
283.04293823242187
 30
0.0
 10
417.24752807617187
 20
282.24542236328125
 30
0.0
 10
417.68753051757812
 20
281.46038818359375
 30
0.0
 10
418.14505004882812
 20
280.68545532226562
 30
0.0
 10
418.6199951171875
 20
279.9229736328125
 30
0.0
 10
419.11502075195312
 20
279.17294311523437
 30
0.0
 10
419.62503051757812
 20
278.43789672851563
 30
0.0
 10
420.15252685546875
 20
277.71292114257812
 30
0.0
 10
420.697509765625
 20
277.0029296875
 30
0.0
 10
421.257568359375
 20
276.30545043945312
 30
0.0
 10
421.83505249023437
 20
275.62289428710937
 30
0.0
 10
422.43002319335938
 20
274.95294189453125
 30
0.0
 10
423.0374755859375
 20
274.30050659179687
 30
0.0
 10
423.66250610351562
 20
273.66043090820312
 30
0.0
 10
424.30252075195312
 20
273.03546142578125
 30
0.0
 10
424.95504760742187
 20
272.425537109375
 30
0.0
 10
425.62503051757813
 20
271.83291625976562
 30
0.0
 10
426.30755615234375
 20
271.25546264648437
 30
0.0
 10
427.00497436523437
 20
270.69549560546875
 30
0.0
 10
427.71511840820312
 20
270.15042114257812
 30
0.0
 10
428.43756103515625
 20
269.62039184570312
 30
0.0
 10
429.17495727539062
 20
269.11044311523438
 30
0.0
 10
429.92501831054687
 20
268.61795043945313
 30
0.0
 10
430.68511962890625
 20
268.14047241210937
 30
0.0
 10
431.46005249023437
 20
267.6829833984375
 30
0.0
 10
432.24505615234375
 20
267.24542236328125
 30
0.0
 10
433.04254150390625
 20
266.82293701171875
 30
0.0
 10
433.85250854492187
 20
266.42050170898437
 30
0.0
 10
434.67001342773437
 20
266.0379638671875
 30
0.0
 10
435.50250244140625
 20
265.67550659179687
 30
0.0
 10
436.34255981445312
 20
265.3304443359375
 30
0.0
 10
437.19256591796875
 20
265.00796508789062
 30
0.0
 10
438.05252075195312
 20
264.70550537109375
 30
0.0
 10
438.9224853515625
 20
264.42056274414062
 30
0.0
 10
439.80258178710937
 20
264.16046142578125
 30
0.0
 10
440.69009399414062
 20
263.91796875
 30
0.0
 10
441.58758544921875
 20
263.70053100585937
 30
0.0
 10
442.4925537109375
 20
263.5029296875
 30
0.0
 10
443.40509033203125
 20
263.32794189453125
 30
0.0
 10
444.32757568359375
 20
263.17547607421875
 30
0.0
 10
445.25506591796875
 20
263.0455322265625
 30
0.0
 10
446.18997192382812
 20
262.93792724609375
 30
0.0
 10
447.13247680664062
 20
262.85299682617187
 30
0.0
 10
448.08255004882812
 20
262.79302978515625
 30
0.0
 10
449.03750610351562
 20
262.75546264648437
 30
0.0
 10
449.99752807617187
 20
262.74298095703125
 30
0.0
 10
450.96505737304687
 20
262.76296997070312
 30
0.0
 10
451.9200439453125
 20
262.79794311523437
 30
0.0
 10
452.86749267578125
 20
262.85797119140625
 30
0.0
 10
453.80996704101562
 20
262.9429931640625
 30
0.0
 10
454.74758911132812
 20
263.050537109375
 30
0.0
 10
455.67501831054687
 20
263.18048095703125
 30
0.0
 10
456.59750366210937
 20
263.33297729492187
 30
0.0
 10
457.51004028320312
 20
263.50799560546875
 30
0.0
 10
458.41506958007812
 20
263.70553588867187
 30
0.0
 10
459.31256103515625
 20
263.92306518554687
 30
0.0
 10
460.199951171875
 20
264.1629638671875
 30
0.0
 10
461.08004760742187
 20
264.425537109375
 30
0.0
 10
461.95004272460937
 20
264.70794677734375
 30
0.0
 10
462.81002807617187
 20
265.01046752929687
 30
0.0
 10
463.66250610351562
 20
265.3330078125
 30
0.0
 10
464.50247192382812
 20
265.677978515625
 30
0.0
 10
465.33248901367187
 20
266.04049682617187
 30
0.0
 10
466.15252685546875
 20
266.42303466796875
 30
0.0
 10
466.96005249023437
 20
266.82553100585937
 30
0.0
 10
467.75747680664062
 20
267.24542236328125
 30
0.0
 10
468.54498291015625
 20
267.68545532226562
 30
0.0
 10
469.31744384765625
 20
268.14300537109375
 30
0.0
 10
470.07998657226562
 20
268.61795043945313
 30
0.0
 10
470.82992553710938
 20
269.11306762695312
 30
0.0
 10
471.5650634765625
 20
269.62289428710937
 30
0.0
 10
472.28997802734375
 20
270.15048217773437
 30
0.0
 10
472.99993896484375
 20
270.69552612304687
 30
0.0
 10
473.697509765625
 20
271.25543212890625
 30
0.0
 10
474.3800048828125
 20
271.83297729492187
 30
0.0
 10
475.04745483398437
 20
272.42791748046875
 30
0.0
 10
475.7025146484375
 20
273.03549194335937
 30
0.0
 10
476.342529296875
 20
273.66055297851562
 30
0.0
 10
476.96502685546875
 20
274.30050659179687
 30
0.0
 10
477.57504272460937
 20
274.95303344726562
 30
0.0
 10
478.16751098632812
 20
275.62301635742187
 30
0.0
 10
478.74496459960937
 20
276.30548095703125
 30
0.0
 10
479.30746459960937
 20
277.00296020507812
 30
0.0
 10
479.85000610351562
 20
277.71298217773438
 30
0.0
 10
480.3800048828125
 20
278.43545532226562
 30
0.0
 10
480.88995361328125
 20
279.1729736328125
 30
0.0
 10
481.38247680664062
 20
279.9229736328125
 30
0.0
 10
481.85751342773437
 20
280.68301391601562
 30
0.0
 10
482.31500244140625
 20
281.45797729492187
 30
0.0
 10
482.75494384765625
 20
282.242919921875
 30
0.0
 10
483.17501831054687
 20
283.04049682617187
 30
0.0
 10
483.57754516601562
 20
283.85052490234375
 30
0.0
 10
483.95999145507812
 20
284.66799926757812
 30
0.0
 10
484.322509765625
 20
285.50048828125
 30
0.0
 10
484.66500854492187
 20
286.34051513671875
 30
0.0
 10
484.987548828125
 20
287.19049072265625
 30
0.0
 10
485.28997802734375
 20
288.05050659179687
 30
0.0
 10
485.57241821289063
 20
288.92050170898437
 30
0.0
 10
485.83499145507812
 20
289.80047607421875
 30
0.0
 10
486.07501220703125
 20
290.68801879882813
 30
0.0
 10
486.29244995117187
 20
291.58544921875
 30
0.0
 10
486.48995971679687
 20
292.49041748046875
 30
0.0
 10
486.6650390625
 20
293.40301513671875
 30
0.0
 10
486.81747436523437
 20
294.32553100585937
 30
0.0
 10
486.94488525390625
 20
295.25296020507813
 30
0.0
 10
487.052490234375
 20
296.18798828125
 30
0.0
 10
487.13497924804687
 20
297.1304931640625
 30
0.0
 10
487.19497680664062
 20
298.08050537109375
 30
0.0
 10
487.22991943359375
 20
299.03549194335937
 30
0.0
 10
487.24246215820313
 20
299.9954833984375
 30
0.0
 10
487.24246215820313
 20
300.9654541015625
 30
0.0
 10
487.2073974609375
 20
301.92047119140625
 30
0.0
 10
487.14749145507812
 20
302.86798095703125
 30
0.0
 10
487.06243896484375
 20
303.81051635742187
 30
0.0
 10
486.95501708984375
 20
304.7479248046875
 30
0.0
 10
486.824951171875
 20
305.67547607421875
 30
0.0
 10
486.6724853515625
 20
306.5980224609375
 30
0.0
 10
486.4974365234375
 20
307.51046752929687
 30
0.0
 10
486.29998779296875
 20
308.41549682617187
 30
0.0
 10
486.08248901367187
 20
309.31295776367187
 30
0.0
 10
485.84243774414062
 20
310.20050048828125
 30
0.0
 10
485.57989501953125
 20
311.08047485351562
 30
0.0
 10
485.29745483398437
 20
311.95050048828125
 30
0.0
 10
484.99493408203125
 20
312.81045532226562
 30
0.0
 10
484.67001342773437
 20
313.6605224609375
 30
0.0
 10
484.32742309570312
 20
314.50299072265625
 30
0.0
 10
483.9649658203125
 20
315.33297729492187
 30
0.0
 10
483.58001708984375
 20
316.15301513671875
 30
0.0
 10
483.179931640625
 20
316.96047973632812
 30
0.0
 10
482.75738525390625
 20
317.75799560546875
 30
0.0
 10
482.32000732421875
 20
318.54302978515625
 30
0.0
 10
481.86245727539062
 20
319.31796264648437
 30
0.0
 10
481.385009765625
 20
320.08050537109375
 30
0.0
 10
480.89242553710937
 20
320.8304443359375
 30
0.0
 10
480.38238525390625
 20
321.5654296875
 30
0.0
 10
479.85491943359375
 20
322.29046630859375
 30
0.0
 10
479.31005859375
 20
323.00051879882812
 30
0.0
 10
478.7474365234375
 20
323.69796752929687
 30
0.0
 10
478.16989135742187
 20
324.3804931640625
 30
0.0
 10
477.57745361328125
 20
325.04800415039062
 30
0.0
 10
476.96749877929687
 20
325.70294189453125
 30
0.0
 10
476.34246826171875
 20
326.34298706054687
 30
0.0
 10
475.7049560546875
 20
326.96548461914062
 30
0.0
 10
475.04989624023437
 20
327.57550048828125
 30
0.0
 10
474.37994384765625
 20
328.16799926757812
 30
0.0
 10
473.69741821289062
 20
328.7454833984375
 30
0.0
 10
473.0
 20
329.30801391601562
 30
0.0
 10
472.28997802734375
 20
329.85305786132813
 30
0.0
 10
471.5673828125
 20
330.38043212890625
 30
0.0
 10
470.82992553710938
 20
330.89047241210937
 30
0.0
 10
470.0799560546875
 20
331.38296508789062
 30
0.0
 10
469.3173828125
 20
331.85794067382812
 30
0.0
 10
468.54495239257812
 20
332.3154296875
 30
0.0
 10
467.7574462890625
 20
332.75540161132812
 30
0.0
 10
466.95993041992187
 20
333.17538452148437
 30
0.0
 10
466.1524658203125
 20
333.57794189453125
 30
0.0
 10
465.33245849609375
 20
333.96044921875
 30
0.0
 10
464.50244140625
 20
334.32296752929687
 30
0.0
 10
463.65988159179687
 20
334.66793823242187
 30
0.0
 10
462.80990600585937
 20
334.990478515625
 30
0.0
 10
461.94992065429687
 20
335.29287719726562
 30
0.0
 10
461.07992553710937
 20
335.57550048828125
 30
0.0
 10
460.19989013671875
 20
335.837890625
 30
0.0
 10
459.31243896484375
 20
336.07794189453125
 30
0.0
 10
458.41497802734375
 20
336.29550170898437
 30
0.0
 10
457.50997924804687
 20
336.49298095703125
 30
0.0
 10
456.59500122070312
 20
336.66796875
 30
0.0
 10
455.6749267578125
 20
336.8204345703125
 30
0.0
 10
454.74496459960937
 20
336.950439453125
 30
0.0
 10
453.81002807617187
 20
337.05795288085937
 30
0.0
 10
452.86746215820312
 20
337.14044189453125
 30
0.0
 10
451.91748046875
 20
337.200439453125
 30
0.0
 10
450.96243286132812
 20
337.2379150390625
 30
0.0
 10
450.00247192382813
 20
337.24795532226562
 30
0.0
 10
449.0399169921875
 20
337.24032592773437
 30
0.0
 10
448.0849609375
 20
337.2054443359375
 30
0.0
 10
447.13742065429687
 20
337.1453857421875
 30
0.0
 10
446.19488525390625
 20
337.06039428710937
 30
0.0
 10
445.25741577148437
 20
336.95294189453125
 30
0.0
 10
444.329833984375
 20
336.8228759765625
 30
0.0
 10
443.40744018554687
 20
336.67044067382812
 30
0.0
 10
442.49496459960937
 20
336.49542236328125
 30
0.0
 10
441.5899658203125
 20
336.29794311523437
 30
0.0
 10
440.69247436523437
 20
336.0804443359375
 30
0.0
 10
439.804931640625
 20
335.84039306640625
 30
0.0
 10
438.92495727539062
 20
335.5780029296875
 30
0.0
 10
438.05499267578125
 20
335.29544067382812
 30
0.0
 10
437.1949462890625
 20
334.99288940429688
 30
0.0
 10
436.34490966796875
 20
334.66790771484375
 30
0.0
 10
435.50247192382812
 20
334.325439453125
 30
0.0
 10
434.6724853515625
 20
333.96292114257812
 30
0.0
 10
433.85247802734375
 20
333.5804443359375
 30
0.0
 10
433.04498291015625
 20
333.1778564453125
 30
0.0
 10
432.24746704101562
 20
332.7579345703125
 30
0.0
 10
431.45999145507812
 20
332.31790161132812
 30
0.0
 10
430.68746948242187
 20
331.86041259765625
 30
0.0
 10
429.92498779296875
 20
331.38296508789062
 30
0.0
 10
429.17495727539062
 20
330.89044189453125
 30
0.0
 10
428.43753051757812
 20
330.38046264648437
 30
0.0
 10
427.71499633789062
 20
329.85296630859375
 30
0.0
 10
427.00494384765625
 20
329.30795288085937
 30
0.0
 10
426.30746459960937
 20
328.74545288085937
 30
0.0
 10
425.62496948242187
 20
328.16796875
 30
0.0
 10
424.95498657226562
 20
327.57546997070312
 30
0.0
 10
424.302490234375
 20
326.96542358398437
 30
0.0
 10
423.66250610351562
 20
326.34042358398437
 30
0.0
 10
423.0374755859375
 20
325.7030029296875
 30
0.0
 10
422.427490234375
 20
325.04791259765625
 30
0.0
 10
421.8349609375
 20
324.37789916992187
 30
0.0
 10
421.25750732421875
 20
323.6954345703125
 30
0.0
 10
420.69500732421875
 20
322.99789428710937
 30
0.0
 10
420.1500244140625
 20
322.2879638671875
 30
0.0
 10
419.62249755859375
 20
321.5654296875
 30
0.0
 10
419.11248779296875
 20
320.82791137695312
 30
0.0
 10
418.61752319335937
 20
320.07797241210937
 30
0.0
 10
418.14248657226562
 20
319.31546020507812
 30
0.0
 10
417.68505859375
 20
318.54046630859375
 30
0.0
 10
417.2449951171875
 20
317.75537109375
 30
0.0
 10
416.82498168945312
 20
316.95791625976562
 30
0.0
 10
416.42251586914062
 20
316.14791870117187
 30
0.0
 10
416.03997802734375
 20
315.32791137695312
 30
0.0
 10
415.67495727539062
 20
314.4979248046875
 30
0.0
 10
415.33248901367187
 20
313.65792846679687
 30
0.0
 10
415.00750732421875
 20
312.80535888671875
 30
0.0
 10
414.7049560546875
 20
311.94540405273438
 30
0.0
 10
414.4224853515625
 20
311.07537841796875
 30
0.0
 10
414.15997314453125
 20
310.1954345703125
 30
0.0
 10
413.92001342773437
 20
309.30789184570312
 30
0.0
 10
413.69998168945312
 20
308.41043090820312
 30
0.0
 10
413.50250244140625
 20
307.50302124023437
 30
0.0
 10
413.32742309570312
 20
306.59039306640625
 30
0.0
 10
413.17501831054687
 20
305.66793823242187
 30
0.0
 10
413.04495239257812
 20
304.74041748046875
 30
0.0
 10
412.9375
 20
303.8028564453125
 30
0.0
 10
412.85250854492188
 20
302.86041259765625
 30
0.0
 10
412.79248046875
 20
301.910400390625
 30
0.0
 10
412.7550048828125
 20
300.95541381835937
 30
0.0
 10
412.74258422851562
 20
299.99298095703125
 30
0.0
 10
412.75244140625
 20
300.0029296875
 30
0.0
 10
412.75244140625
 20
300.0029296875
 30
0.0
  0
LWPOLYLINE
  5
4F
100
AcDbEntity
  8
0
 62
-1
420
0
370
1
 48
1.0
  6
CONTINUOUS
100
AcDbPolyline
 90
259
 70
0
 10
410.99752807617187
 20
300.00283813476562
 30
0.0
 10
411.01004028320312
 20
298.99533081054687
 30
0.0
 10
411.0474853515625
 20
297.99533081054687
 30
0.0
 10
411.11001586914062
 20
297.00289916992187
 30
0.0
 10
411.19998168945312
 20
296.015380859375
 30
0.0
 10
411.31005859375
 20
295.03536987304687
 30
0.0
 10
411.44754028320312
 20
294.0628662109375
 30
0.0
 10
411.60751342773437
 20
293.09783935546875
 30
0.0
 10
411.78994750976562
 20
292.14285278320312
 30
0.0
 10
411.99502563476562
 20
291.1953125
 30
0.0
 10
412.22503662109375
 20
290.25531005859375
 30
0.0
 10
412.47750854492187
 20
289.32540893554687
 30
0.0
 10
412.75003051757813
 20
288.40533447265625
 30
0.0
 10
413.04754638671875
 20
287.492919921875
 30
0.0
 10
413.36502075195312
 20
286.59283447265625
 30
0.0
 10
413.7025146484375
 20
285.70285034179687
 30
0.0
 10
414.06256103515625
 20
284.82037353515625
 30
0.0
 10
414.44253540039062
 20
283.952880859375
 30
0.0
 10
414.842529296875
 20
283.0928955078125
 30
0.0
 10
415.26251220703125
 20
282.24789428710937
 30
0.0
 10
415.705078125
 20
281.412841796875
 30
0.0
 10
416.16500854492187
 20
280.58782958984375
 30
0.0
 10
416.64248657226562
 20
279.77786254882812
 30
0.0
 10
417.14004516601562
 20
278.98037719726562
 30
0.0
 10
417.657470703125
 20
278.19537353515625
 30
0.0
 10
418.1925048828125
 20
277.42535400390625
 30
0.0
 10
418.74502563476562
 20
276.66531372070313
 30
0.0
 10
419.31503295898437
 20
275.92294311523437
 30
0.0
 10
419.90252685546875
 20
275.19287109375
 30
0.0
 10
420.50747680664062
 20
274.4779052734375
 30
0.0
 10
421.1275634765625
 20
273.77789306640625
 30
0.0
 10
421.76504516601562
 20
273.09286499023437
 30
0.0
 10
422.42001342773437
 20
272.42288208007812
 30
0.0
 10
423.08743286132812
 20
271.76785278320312
 30
0.0
 10
423.77252197265625
 20
271.13034057617187
 30
0.0
 10
424.47247314453125
 20
270.5103759765625
 30
0.0
 10
425.18753051757813
 20
269.90536499023437
 30
0.0
 10
425.91754150390625
 20
269.31784057617187
 30
0.0
 10
426.66253662109375
 20
268.745361328125
 30
0.0
 10
427.4200439453125
 20
268.19287109375
 30
0.0
 10
428.19003295898438
 20
267.65780639648437
 30
0.0
 10
428.97500610351562
 20
267.14288330078125
 30
0.0
 10
429.7725830078125
 20
266.6429443359375
 30
0.0
 10
430.58251953125
 20
266.1654052734375
 30
0.0
 10
431.40509033203125
 20
265.70294189453125
 30
0.0
 10
432.24002075195312
 20
265.26284790039062
 30
0.0
 10
433.08758544921875
 20
264.84295654296875
 30
0.0
 10
433.94503784179687
 20
264.44046020507812
 30
0.0
 10
434.81256103515625
 20
264.06039428710937
 30
0.0
 10
435.69500732421875
 20
263.70037841796875
 30
0.0
 10
436.58505249023437
 20
263.36044311523438
 30
0.0
 10
437.48507690429687
 20
263.04293823242187
 30
0.0
 10
438.39501953125
 20
262.74786376953125
 30
0.0
 10
439.31747436523437
 20
262.47286987304687
 30
0.0
 10
440.24755859375
 20
262.220458984375
 30
0.0
 10
441.18505859375
 20
261.99295043945312
 30
0.0
 10
442.132568359375
 20
261.78533935546875
 30
0.0
 10
443.09005737304687
 20
261.60040283203125
 30
0.0
 10
444.052490234375
 20
261.44036865234375
 30
0.0
 10
445.02508544921875
 20
261.30535888671875
 30
0.0
 10
446.00509643554687
 20
261.19290161132812
 30
0.0
 10
446.99002075195312
 20
261.10293579101563
 30
0.0
 10
447.98501586914063
 20
261.04046630859375
 30
0.0
 10
448.98504638671875
 20
261.00289916992188
 30
0.0
 10
449.99005126953125
 20
260.98797607421875
 30
0.0
 10
451.00747680664062
 20
261.01296997070312
 30
0.0
 10
452.00750732421875
 20
261.0504150390625
 30
0.0
 10
452.99996948242187
 20
261.11294555664062
 30
0.0
 10
453.987548828125
 20
261.20291137695312
 30
0.0
 10
454.967529296875
 20
261.31298828125
 30
0.0
 10
455.93997192382812
 20
261.450439453125
 30
0.0
 10
456.90499877929687
 20
261.61041259765625
 30
0.0
 10
457.86007690429688
 20
261.79296875
 30
0.0
 10
458.8074951171875
 20
261.99801635742187
 30
0.0
 10
459.74752807617187
 20
262.22787475585938
 30
0.0
 10
460.67745971679687
 20
262.48043823242187
 30
0.0
 10
461.59759521484375
 20
262.75289916992187
 30
0.0
 10
462.510009765625
 20
263.05044555664062
 30
0.0
 10
463.40997314453125
 20
263.36795043945312
 30
0.0
 10
464.29998779296875
 20
263.70550537109375
 30
0.0
 10
465.18252563476562
 20
264.06536865234375
 30
0.0
 10
466.05001831054687
 20
264.4454345703125
 30
0.0
 10
466.91000366210937
 20
264.845458984375
 30
0.0
 10
467.75494384765625
 20
265.26797485351562
 30
0.0
 10
468.59005737304687
 20
265.70791625976562
 30
0.0
 10
469.4124755859375
 20
266.16790771484375
 30
0.0
 10
470.22494506835937
 20
266.64794921875
 30
0.0
 10
471.0224609375
 20
267.1453857421875
 30
0.0
 10
471.8074951171875
 20
267.66043090820312
 30
0.0
 10
472.57748413085937
 20
268.19546508789062
 30
0.0
 10
473.33499145507812
 20
268.7479248046875
 30
0.0
 10
474.08004760742188
 20
269.31796264648437
 30
0.0
 10
474.80996704101562
 20
269.90542602539062
 30
0.0
 10
475.52496337890625
 20
270.51043701171875
 30
0.0
 10
476.22491455078125
 20
271.13290405273437
 30
0.0
 10
476.91000366210937
 20
271.77041625976562
 30
0.0
 10
477.57742309570312
 20
272.42300415039062
 30
0.0
 10
478.23248291015625
 20
273.09292602539062
 30
0.0
 10
478.8699951171875
 20
273.77798461914062
 30
0.0
 10
479.489990234375
 20
274.47796630859375
 30
0.0
 10
480.09490966796875
 20
275.19296264648437
 30
0.0
 10
480.68243408203125
 20
275.92291259765625
 30
0.0
 10
481.25253295898437
 20
276.66796875
 30
0.0
 10
481.804931640625
 20
277.42547607421875
 30
0.0
 10
482.33999633789062
 20
278.1954345703125
 30
0.0
 10
482.85751342773437
 20
278.98049926757812
 30
0.0
 10
483.35504150390625
 20
279.77786254882812
 30
0.0
 10
483.8349609375
 20
280.58792114257812
 30
0.0
 10
484.29489135742187
 20
281.410400390625
 30
0.0
 10
484.73495483398438
 20
282.24542236328125
 30
0.0
 10
485.15496826171875
 20
283.09295654296875
 30
0.0
 10
485.55740356445312
 20
283.95046997070312
 30
0.0
 10
485.93743896484375
 20
284.8204345703125
 30
0.0
 10
486.29498291015625
 20
285.70050048828125
 30
0.0
 10
486.635009765625
 20
286.59292602539062
 30
0.0
 10
486.95257568359375
 20
287.49285888671875
 30
0.0
 10
487.24749755859375
 20
288.40292358398437
 30
0.0
 10
487.5224609375
 20
289.32546997070312
 30
0.0
 10
487.7724609375
 20
290.25543212890625
 30
0.0
 10
488.00250244140625
 20
291.19296264648437
 30
0.0
 10
488.2099609375
 20
292.140380859375
 30
0.0
 10
488.39251708984375
 20
293.09796142578125
 30
0.0
 10
488.55255126953125
 20
294.06295776367188
 30
0.0
 10
488.6873779296875
 20
295.03292846679687
 30
0.0
 10
488.800048828125
 20
296.012939453125
 30
0.0
 10
488.88751220703125
 20
297.00039672851562
 30
0.0
 10
488.94992065429687
 20
297.99542236328125
 30
0.0
 10
488.98745727539062
 20
298.99539184570312
 30
0.0
 10
489.0
 20
300.00042724609375
 30
0.0
 10
488.989990234375
 20
301.010498046875
 30
0.0
 10
488.95248413085937
 20
302.01043701171875
 30
0.0
 10
488.88995361328125
 20
303.00286865234375
 30
0.0
 10
488.7999267578125
 20
303.99044799804687
 30
0.0
 10
488.68997192382812
 20
304.97042846679687
 30
0.0
 10
488.55245971679687
 20
305.94296264648437
 30
0.0
 10
488.39248657226562
 20
306.90789794921875
 30
0.0
 10
488.2099609375
 20
307.86285400390625
 30
0.0
 10
488.00241088867187
 20
308.81039428710937
 30
0.0
 10
487.77499389648437
 20
309.75039672851562
 30
0.0
 10
487.52243041992187
 20
310.68045043945313
 30
0.0
 10
487.24993896484375
 20
311.60037231445312
 30
0.0
 10
486.9525146484375
 20
312.51290893554687
 30
0.0
 10
486.6348876953125
 20
313.41290283203125
 30
0.0
 10
486.29742431640625
 20
314.30291748046875
 30
0.0
 10
485.93746948242187
 20
315.18539428710937
 30
0.0
 10
485.55743408203125
 20
316.0528564453125
 30
0.0
 10
485.15499877929687
 20
316.91293334960937
 30
0.0
 10
484.73495483398438
 20
317.75787353515625
 30
0.0
 10
484.29489135742187
 20
318.5928955078125
 30
0.0
 10
483.83499145507812
 20
319.41546630859375
 30
0.0
 10
483.35498046875
 20
320.22793579101562
 30
0.0
 10
482.85745239257812
 20
321.025390625
 30
0.0
 10
482.33990478515625
 20
321.81045532226562
 30
0.0
 10
481.80496215820312
 20
322.5804443359375
 30
0.0
 10
481.25241088867187
 20
323.33792114257812
 30
0.0
 10
480.68243408203125
 20
324.0828857421875
 30
0.0
 10
480.094970703125
 20
324.81298828125
 30
0.0
 10
479.48989868164062
 20
325.52786254882812
 30
0.0
 10
478.86993408203125
 20
326.2279052734375
 30
0.0
 10
478.22998046875
 20
326.91290283203125
 30
0.0
 10
477.57742309570312
 20
327.5804443359375
 30
0.0
 10
476.907470703125
 20
328.23541259765625
 30
0.0
 10
476.222412109375
 20
328.87286376953125
 30
0.0
 10
475.52239990234375
 20
329.49285888671875
 30
0.0
 10
474.80743408203125
 20
330.09783935546875
 30
0.0
 10
474.07745361328125
 20
330.6854248046875
 30
0.0
 10
473.33248901367187
 20
331.25546264648437
 30
0.0
 10
472.57498168945312
 20
331.80789184570313
 30
0.0
 10
471.80239868164062
 20
332.3428955078125
 30
0.0
 10
471.01742553710937
 20
332.8603515625
 30
0.0
 10
470.21994018554687
 20
333.35791015625
 30
0.0
 10
469.40985107421875
 20
333.83786010742187
 30
0.0
 10
468.58740234375
 20
334.29791259765625
 30
0.0
 10
467.75241088867187
 20
334.73788452148437
 30
0.0
 10
466.90496826171875
 20
335.15789794921875
 30
0.0
 10
466.04498291015625
 20
335.56036376953125
 30
0.0
 10
465.177490234375
 20
335.9404296875
 30
0.0
 10
464.29489135742187
 20
336.2978515625
 30
0.0
 10
463.40496826171875
 20
336.63790893554687
 30
0.0
 10
462.50241088867187
 20
336.95538330078125
 30
0.0
 10
461.5924072265625
 20
337.2503662109375
 30
0.0
 10
460.669921875
 20
337.525390625
 30
0.0
 10
459.73992919921875
 20
337.77542114257812
 30
0.0
 10
458.79995727539062
 20
338.00543212890625
 30
0.0
 10
457.85244750976562
 20
338.21292114257812
 30
0.0
 10
456.89498901367187
 20
338.39532470703125
 30
0.0
 10
455.92996215820312
 20
338.55535888671875
 30
0.0
 10
454.9573974609375
 20
338.69039916992187
 30
0.0
 10
453.97738647460938
 20
338.80288696289062
 30
0.0
 10
452.98995971679687
 20
338.89041137695312
 30
0.0
 10
451.99740600585937
 20
338.95285034179687
 30
0.0
 10
450.99496459960937
 20
338.99041748046875
 30
0.0
 10
449.9874267578125
 20
339.00289916992187
 30
0.0
 10
448.99249267578125
 20
338.99288940429687
 30
0.0
 10
447.99240112304687
 20
338.95535278320312
 30
0.0
 10
446.99993896484375
 20
338.89288330078125
 30
0.0
 10
446.01248168945312
 20
338.80291748046875
 30
0.0
 10
445.03237915039063
 20
338.69284057617187
 30
0.0
 10
444.05996704101562
 20
338.55535888671875
 30
0.0
 10
443.09487915039062
 20
338.39535522460937
 30
0.0
 10
442.13995361328125
 20
338.21279907226562
 30
0.0
 10
441.18997192382812
 20
338.00543212890625
 30
0.0
 10
440.25244140625
 20
337.77780151367187
 30
0.0
 10
439.3223876953125
 20
337.52532958984375
 30
0.0
 10
438.39999389648437
 20
337.25283813476562
 30
0.0
 10
437.48995971679687
 20
336.95535278320312
 30
0.0
 10
436.58993530273437
 20
336.63787841796875
 30
0.0
 10
435.6973876953125
 20
336.30029296875
 30
0.0
 10
434.81747436523437
 20
335.94039916992187
 30
0.0
 10
433.94744873046875
 20
335.56033325195312
 30
0.0
 10
433.0899658203125
 20
335.15789794921875
 30
0.0
 10
432.24249267578125
 20
334.73776245117187
 30
0.0
 10
431.40744018554687
 20
334.29788208007812
 30
0.0
 10
430.58499145507812
 20
333.8377685546875
 30
0.0
 10
429.77499389648437
 20
333.35787963867187
 30
0.0
 10
428.97747802734375
 20
332.86041259765625
 30
0.0
 10
428.19247436523437
 20
332.34283447265625
 30
0.0
 10
427.41995239257812
 20
331.80783081054687
 30
0.0
 10
426.66244506835937
 20
331.25537109375
 30
0.0
 10
425.91995239257812
 20
330.68533325195312
 30
0.0
 10
425.19003295898437
 20
330.09786987304687
 30
0.0
 10
424.47494506835937
 20
329.49276733398437
 30
0.0
 10
423.77493286132812
 20
328.87286376953125
 30
0.0
 10
423.0899658203125
 20
328.23284912109375
 30
0.0
 10
422.41995239257812
 20
327.580322265625
 30
0.0
 10
421.76495361328125
 20
326.91030883789062
 30
0.0
 10
421.12741088867187
 20
326.22537231445312
 30
0.0
 10
420.50735473632812
 20
325.52529907226562
 30
0.0
 10
419.90252685546875
 20
324.81033325195312
 30
0.0
 10
419.31497192382812
 20
324.08038330078125
 30
0.0
 10
418.74502563476562
 20
323.33535766601562
 30
0.0
 10
418.1925048828125
 20
322.577880859375
 30
0.0
 10
417.65744018554687
 20
321.80526733398437
 30
0.0
 10
417.13998413085937
 20
321.02035522460937
 30
0.0
 10
416.64251708984375
 20
320.222900390625
 30
0.0
 10
416.16244506835937
 20
319.41281127929687
 30
0.0
 10
415.70248413085937
 20
318.59033203125
 30
0.0
 10
415.26251220703125
 20
317.75540161132812
 30
0.0
 10
414.84246826171875
 20
316.9078369140625
 30
0.0
 10
414.44003295898437
 20
316.0478515625
 30
0.0
 10
414.05999755859375
 20
315.18035888671875
 30
0.0
 10
413.70001220703125
 20
314.2978515625
 30
0.0
 10
413.36248779296875
 20
313.40780639648437
 30
0.0
 10
413.044921875
 20
312.50537109375
 30
0.0
 10
412.74752807617187
 20
311.5953369140625
 30
0.0
 10
412.47494506835937
 20
310.6728515625
 30
0.0
 10
412.22247314453125
 20
309.7427978515625
 30
0.0
 10
411.99246215820312
 20
308.80282592773437
 30
0.0
 10
411.78750610351562
 20
307.85540771484375
 30
0.0
 10
411.60250854492187
 20
306.8978271484375
 30
0.0
 10
411.44497680664062
 20
305.93280029296875
 30
0.0
 10
411.30752563476562
 20
304.96035766601562
 30
0.0
 10
411.19503784179687
 20
303.98037719726562
 30
0.0
 10
411.10751342773437
 20
302.99285888671875
 30
0.0
 10
411.04498291015625
 20
302.00039672851562
 30
0.0
 10
411.00747680664062
 20
300.99783325195312
 30
0.0
 10
410.99252319335938
 20
299.99032592773437
 30
0.0
 10
410.99752807617187
 20
300.00283813476562
 30
0.0
 10
410.99752807617187
 20
300.00283813476562
 30
0.0
  0
LWPOLYLINE
  5
50
100
AcDbEntity
  8
0
 62
-1
420
0
370
1
 48
1.0
  6
CONTINUOUS
100
AcDbPolyline
 90
2
 70
0
 10
450.003173828125
 20
339.0037841796875
 30
0.0
 10
450.00564575195312
 20
337.25131225585937
 30
0.0
  0
LWPOLYLINE
  5
51
100
AcDbEntity
  8
0
 62
-1
420
0
370
1
 48
1.0
  6
CONTINUOUS
100
AcDbPolyline
 90
2
 70
0
 10
454.08047485351562
 20
338.79019165039062
 30
0.0
 10
453.89971923828125
 20
337.047119140625
 30
0.0
  0
LWPOLYLINE
  5
52
100
AcDbEntity
  8
0
 62
-1
420
0
370
1
 48
1.0
  6
CONTINUOUS
100
AcDbPolyline
 90
2
 70
0
 10
458.11309814453125
 20
338.1517333984375
 30
0.0
 10
457.75112915039062
 20
336.43701171875
 30
0.0
  0
LWPOLYLINE
  5
53
100
AcDbEntity
  8
0
 62
-1
420
0
370
1
 48
1.0
  6
CONTINUOUS
100
AcDbPolyline
 90
2
 70
0
 10
462.05691528320313
 20
337.09518432617188
 30
0.0
 10
461.51766967773437
 20
335.427734375
 30
0.0
  0
LWPOLYLINE
  5
54
100
AcDbEntity
  8
0
 62
-1
420
0
370
1
 48
1.0
  6
CONTINUOUS
100
AcDbPolyline
 90
2
 70
0
 10
465.86883544921875
 20
335.63223266601562
 30
0.0
 10
465.15823364257812
 20
334.03018188476562
 30
0.0
  0
LWPOLYLINE
  5
55
100
AcDbEntity
  8
0
 62
-1
420
0
370
1
 48
1.0
  6
CONTINUOUS
100
AcDbPolyline
 90
2
 70
0
 10
469.5067138671875
 20
333.77877807617187
 30
0.0
 10
468.632568359375
 20
332.25979614257813
 30
0.0
  0
LWPOLYLINE
  5
56
100
AcDbEntity
  8
0
 62
-1
420
0
370
1
 48
1.0
  6
CONTINUOUS
100
AcDbPolyline
 90
2
 70
0
 10
472.93109130859375
 20
331.55520629882812
 30
0.0
 10
471.90298461914062
 20
330.13604736328125
 30
0.0
  0
LWPOLYLINE
  5
57
100
AcDbEntity
  8
0
 62
-1
420
0
370
1
 48
1.0
  6
CONTINUOUS
100
AcDbPolyline
 90
2
 70
0
 10
476.10418701171875
 20
328.98583984375
 30
0.0
 10
474.93328857421875
 20
327.68191528320312
 30
0.0
  0
LWPOLYLINE
  5
58
100
AcDbEntity
  8
0
 62
-1
420
0
370
1
 48
1.0
  6
CONTINUOUS
100
AcDbPolyline
 90
2
 70
0
 10
478.99136352539062
 20
326.09906005859375
 30
0.0
 10
477.69058227539062
 20
324.924560546875
 30
0.0
  0
LWPOLYLINE
  5
59
100
AcDbEntity
  8
0
 62
-1
420
0
370
1
 48
1.0
  6
CONTINUOUS
100
AcDbPolyline
 90
2
 70
0
 10
481.56103515625
 20
322.9261474609375
 30
0.0
 10
480.14462280273437
 20
321.89401245117187
 30
0.0
  0
LWPOLYLINE
  5
5A
100
AcDbEntity
  8
0
 62
-1
420
0
370
1
 48
1.0
  6
CONTINUOUS
100
AcDbPolyline
 90
2
 70
0
 10
483.7847900390625
 20
319.50204467773437
 30
0.0
 10
482.268310546875
 20
318.62362670898437
 30
0.0
  0
LWPOLYLINE
  5
5B
100
AcDbEntity
  8
0
 62
-1
420
0
370
1
 48
1.0
  6
CONTINUOUS
100
AcDbPolyline
 90
2
 70
0
 10
485.63861083984375
 20
315.86422729492187
 30
0.0
 10
484.03857421875
 20
315.14913940429687
 30
0.0
  0
LWPOLYLINE
  5
5C
100
AcDbEntity
  8
0
 62
-1
420
0
370
1
 48
1.0
  6
CONTINUOUS
100
AcDbPolyline
 90
2
 70
0
 10
487.10189819335937
 20
312.05242919921875
 30
0.0
 10
485.43597412109375
 20
311.50863647460938
 30
0.0
  0
LWPOLYLINE
  5
5D
100
AcDbEntity
  8
0
 62
-1
420
0
370
1
 48
1.0
  6
CONTINUOUS
100
AcDbPolyline
 90
2
 70
0
 10
488.158935546875
 20
308.10882568359375
 30
0.0
 10
486.44512939453125
 20
307.74200439453125
 30
0.0
  0
LWPOLYLINE
  5
5E
100
AcDbEntity
  8
0
 62
-1
420
0
370
1
 48
1.0
  6
CONTINUOUS
100
AcDbPolyline
 90
2
 70
0
 10
488.79779052734375
 20
304.07620239257812
 30
0.0
 10
487.05517578125
 20
303.89059448242187
 30
0.0
  0
LWPOLYLINE
  5
5F
100
AcDbEntity
  8
0
 62
-1
420
0
370
1
 48
1.0
  6
CONTINUOUS
100
AcDbPolyline
 90
2
 70
0
 10
489.0115966796875
 20
299.99884033203125
 30
0.0
 10
487.25912475585937
 20
299.99639892578125
 30
0.0
  0
LWPOLYLINE
  5
60
100
AcDbEntity
  8
0
 62
-1
420
0
370
1
 48
1.0
  6
CONTINUOUS
100
AcDbPolyline
 90
2
 70
0
 10
488.79818725585937
 20
295.92160034179687
 30
0.0
 10
487.05499267578125
 20
296.10232543945313
 30
0.0
  0
LWPOLYLINE
  5
61
100
AcDbEntity
  8
0
 62
-1
420
0
370
1
 48
1.0
  6
CONTINUOUS
100
AcDbPolyline
 90
2
 70
0
 10
488.1595458984375
 20
291.888916015625
 30
0.0
 10
486.44491577148437
 20
292.25088500976562
 30
0.0
  0
LWPOLYLINE
  5
62
100
AcDbEntity
  8
0
 62
-1
420
0
370
1
 48
1.0
  6
CONTINUOUS
100
AcDbPolyline
 90
2
 70
0
 10
487.10308837890625
 20
287.945068359375
 30
0.0
 10
485.4356689453125
 20
288.48434448242187
 30
0.0
  0
LWPOLYLINE
  5
63
100
AcDbEntity
  8
0
 62
-1
420
0
370
1
 48
1.0
  6
CONTINUOUS
100
AcDbPolyline
 90
2
 70
0
 10
485.64007568359375
 20
284.13323974609375
 30
0.0
 10
484.03811645507812
 20
284.84384155273437
 30
0.0
  0
LWPOLYLINE
  5
64
100
AcDbEntity
  8
0
 62
-1
420
0
370
1
 48
1.0
  6
CONTINUOUS
100
AcDbPolyline
 90
2
 70
0
 10
483.78668212890625
 20
280.49530029296875
 30
0.0
 10
482.2677001953125
 20
281.3695068359375
 30
0.0
  0
LWPOLYLINE
  5
65
100
AcDbEntity
  8
0
 62
-1
420
0
370
1
 48
1.0
  6
CONTINUOUS
100
AcDbPolyline
 90
2
 70
0
 10
481.56314086914062
 20
277.07107543945312
 30
0.0
 10
480.1439208984375
 20
278.09918212890625
 30
0.0
  0
LWPOLYLINE
  5
66
100
AcDbEntity
  8
0
 62
-1
420
0
370
1
 48
1.0
  6
CONTINUOUS
100
AcDbPolyline
 90
2
 70
0
 10
478.99380493164062
 20
273.89797973632812
 30
0.0
 10
477.68978881835937
 20
275.06875610351562
 30
0.0
  0
LWPOLYLINE
  5
67
100
AcDbEntity
  8
0
 62
-1
420
0
370
1
 48
1.0
  6
CONTINUOUS
100
AcDbPolyline
 90
2
 70
0
 10
476.10687255859375
 20
271.0107421875
 30
0.0
 10
474.93234252929687
 20
272.31149291992187
 30
0.0
  0
LWPOLYLINE
  5
68
100
AcDbEntity
  8
0
 62
-1
420
0
370
1
 48
1.0
  6
CONTINUOUS
100
AcDbPolyline
 90
2
 70
0
 10
472.93392944335937
 20
268.44107055664062
 30
0.0
 10
471.90191650390625
 20
269.857421875
 30
0.0
  0
LWPOLYLINE
  5
69
100
AcDbEntity
  8
0
 62
-1
420
0
370
1
 48
1.0
  6
CONTINUOUS
100
AcDbPolyline
 90
2
 70
0
 10
469.5098876953125
 20
266.21728515625
 30
0.0
 10
468.63150024414062
 20
267.73373413085937
 30
0.0
  0
LWPOLYLINE
  5
6A
100
AcDbEntity
  8
0
 62
-1
420
0
370
1
 48
1.0
  6
CONTINUOUS
100
AcDbPolyline
 90
2
 70
0
 10
465.8720703125
 20
264.36343383789062
 30
0.0
 10
465.15707397460938
 20
265.96337890625
 30
0.0
  0
LWPOLYLINE
  5
6B
100
AcDbEntity
  8
0
 62
-1
420
0
370
1
 48
1.0
  6
CONTINUOUS
100
AcDbPolyline
 90
2
 70
0
 10
462.06045532226562
 20
262.90005493164063
 30
0.0
 10
461.51651000976562
 20
264.5660400390625
 30
0.0
  0
LWPOLYLINE
  5
6C
100
AcDbEntity
  8
0
 62
-1
420
0
370
1
 48
1.0
  6
CONTINUOUS
100
AcDbPolyline
 90
2
 70
0
 10
458.11672973632812
 20
261.84320068359375
 30
0.0
 10
457.75
 20
263.55685424804687
 30
0.0
  0
LWPOLYLINE
  5
6D
100
AcDbEntity
  8
0
 62
-1
420
0
370
1
 48
1.0
  6
CONTINUOUS
100
AcDbPolyline
 90
2
 70
0
 10
454.08407592773437
 20
261.20437622070312
 30
0.0
 10
453.89840698242187
 20
262.94699096679687
 30
0.0
  0
LWPOLYLINE
  5
6E
100
AcDbEntity
  8
0
 62
-1
420
0
370
1
 48
1.0
  6
CONTINUOUS
100
AcDbPolyline
 90
2
 70
0
 10
450.00680541992187
 20
260.99029541015625
 30
0.0
 10
450.00433349609375
 20
262.74288940429687
 30
0.0
  0
LWPOLYLINE
  5
6F
100
AcDbEntity
  8
0
 62
-1
420
0
370
1
 48
1.0
  6
CONTINUOUS
100
AcDbPolyline
 90
2
 70
0
 10
445.929443359375
 20
261.20388793945313
 30
0.0
 10
446.1102294921875
 20
262.94711303710937
 30
0.0
  0
LWPOLYLINE
  5
70
100
AcDbEntity
  8
0
 62
-1
420
0
370
1
 48
1.0
  6
CONTINUOUS
100
AcDbPolyline
 90
2
 70
0
 10
441.89675903320312
 20
261.84246826171875
 30
0.0
 10
442.2587890625
 20
263.55712890625
 30
0.0
  0
LWPOLYLINE
  5
71
100
AcDbEntity
  8
0
 62
-1
420
0
370
1
 48
1.0
  6
CONTINUOUS
100
AcDbPolyline
 90
2
 70
0
 10
437.95303344726562
 20
262.89892578125
 30
0.0
 10
438.49224853515625
 20
264.56646728515625
 30
0.0
  0
LWPOLYLINE
  5
72
100
AcDbEntity
  8
0
 62
-1
420
0
370
1
 48
1.0
  6
CONTINUOUS
100
AcDbPolyline
 90
2
 70
0
 10
434.1412353515625
 20
264.36199951171875
 30
0.0
 10
434.851806640625
 20
265.9639892578125
 30
0.0
  0
LWPOLYLINE
  5
73
100
AcDbEntity
  8
0
 62
-1
420
0
370
1
 48
1.0
  6
CONTINUOUS
100
AcDbPolyline
 90
2
 70
0
 10
430.50320434570312
 20
266.21548461914062
 30
0.0
 10
431.37734985351562
 20
267.73440551757812
 30
0.0
  0
LWPOLYLINE
  5
74
100
AcDbEntity
  8
0
 62
-1
420
0
370
1
 48
1.0
  6
CONTINUOUS
100
AcDbPolyline
 90
2
 70
0
 10
427.07891845703125
 20
268.43899536132813
 30
0.0
 10
428.10699462890625
 20
269.85818481445312
 30
0.0
  0
LWPOLYLINE
  5
75
100
AcDbEntity
  8
0
 62
-1
420
0
370
1
 48
1.0
  6
CONTINUOUS
100
AcDbPolyline
 90
2
 70
0
 10
423.90582275390625
 20
271.00823974609375
 30
0.0
 10
425.07659912109375
 20
272.31222534179687
 30
0.0
  0
LWPOLYLINE
  5
76
100
AcDbEntity
  8
0
 62
-1
420
0
370
1
 48
1.0
  6
CONTINUOUS
100
AcDbPolyline
 90
2
 70
0
 10
421.01861572265625
 20
273.8951416015625
 30
0.0
 10
422.31930541992187
 20
275.06961059570312
 30
0.0
  0
LWPOLYLINE
  5
77
100
AcDbEntity
  8
0
 62
-1
420
0
370
1
 48
1.0
  6
CONTINUOUS
100
AcDbPolyline
 90
2
 70
0
 10
418.44891357421875
 20
277.068115234375
 30
0.0
 10
419.8653564453125
 20
278.1002197265625
 30
0.0
  0
LWPOLYLINE
  5
78
100
AcDbEntity
  8
0
 62
-1
420
0
370
1
 48
1.0
  6
CONTINUOUS
100
AcDbPolyline
 90
2
 70
0
 10
416.22509765625
 20
280.4921875
 30
0.0
 10
417.74163818359375
 20
281.37054443359375
 30
0.0
  0
LWPOLYLINE
  5
79
100
AcDbEntity
  8
0
 62
-1
420
0
370
1
 48
1.0
  6
CONTINUOUS
100
AcDbPolyline
 90
2
 70
0
 10
414.37130737304687
 20
284.13009643554687
 30
0.0
 10
415.97137451171875
 20
284.8450927734375
 30
0.0
  0
LWPOLYLINE
  5
7A
100
AcDbEntity
  8
0
 62
-1
420
0
370
1
 48
1.0
  6
CONTINUOUS
100
AcDbPolyline
 90
2
 70
0
 10
412.90802001953125
 20
287.94168090820312
 30
0.0
 10
414.57394409179687
 20
288.48553466796875
 30
0.0
  0
LWPOLYLINE
  5
7B
100
AcDbEntity
  8
0
 62
-1
420
0
370
1
 48
1.0
  6
CONTINUOUS
100
AcDbPolyline
 90
2
 70
0
 10
411.85107421875
 20
291.88540649414062
 30
0.0
 10
413.5648193359375
 20
292.2520751953125
 30
0.0
  0
LWPOLYLINE
  5
7C
100
AcDbEntity
  8
0
 62
-1
420
0
370
1
 48
1.0
  6
CONTINUOUS
100
AcDbPolyline
 90
2
 70
0
 10
411.21221923828125
 20
295.91799926757812
 30
0.0
 10
412.954833984375
 20
296.10360717773437
 30
0.0
  0
LWPOLYLINE
  5
7D
100
AcDbEntity
  8
0
 62
-1
420
0
370
1
 48
1.0
  6
CONTINUOUS
100
AcDbPolyline
 90
2
 70
0
 10
410.99832153320312
 20
299.99526977539062
 30
0.0
 10
412.75082397460938
 20
299.99774169921875
 30
0.0
  0
LWPOLYLINE
  5
7E
100
AcDbEntity
  8
0
 62
-1
420
0
370
1
 48
1.0
  6
CONTINUOUS
100
AcDbPolyline
 90
2
 70
0
 10
411.21188354492187
 20
304.07266235351562
 30
0.0
 10
412.95501708984375
 20
303.89190673828125
 30
0.0
  0
LWPOLYLINE
  5
7F
100
AcDbEntity
  8
0
 62
-1
420
0
370
1
 48
1.0
  6
CONTINUOUS
100
AcDbPolyline
 90
2
 70
0
 10
411.850341796875
 20
308.10528564453125
 30
0.0
 10
413.56509399414062
 20
307.74325561523438
 30
0.0
  0
LWPOLYLINE
  5
80
100
AcDbEntity
  8
0
 62
-1
420
0
370
1
 48
1.0
  6
CONTINUOUS
100
AcDbPolyline
 90
2
 70
0
 10
412.9068603515625
 20
312.04913330078125
 30
0.0
 10
414.57437133789062
 20
311.50991821289062
 30
0.0
  0
LWPOLYLINE
  5
81
100
AcDbEntity
  8
0
 62
-1
420
0
370
1
 48
1.0
  6
CONTINUOUS
100
AcDbPolyline
 90
2
 70
0
 10
414.369873046875
 20
315.86102294921875
 30
0.0
 10
415.971923828125
 20
315.15029907226562
 30
0.0
  0
LWPOLYLINE
  5
82
100
AcDbEntity
  8
0
 62
-1
420
0
370
1
 48
1.0
  6
CONTINUOUS
100
AcDbPolyline
 90
2
 70
0
 10
416.22323608398437
 20
319.49884033203125
 30
0.0
 10
417.74224853515625
 20
318.62472534179687
 30
0.0
  0
LWPOLYLINE
  5
83
100
AcDbEntity
  8
0
 62
-1
420
0
370
1
 48
1.0
  6
CONTINUOUS
100
AcDbPolyline
 90
2
 70
0
 10
418.44683837890625
 20
322.92318725585938
 30
0.0
 10
419.86614990234375
 20
321.89508056640625
 30
0.0
  0
LWPOLYLINE
  5
84
100
AcDbEntity
  8
0
 62
-1
420
0
370
1
 48
1.0
  6
CONTINUOUS
100
AcDbPolyline
 90
2
 70
0
 10
421.01611328125
 20
326.09622192382812
 30
0.0
 10
422.32015991210937
 20
324.9254150390625
 30
0.0
  0
LWPOLYLINE
  5
85
100
AcDbEntity
  8
0
 62
-1
420
0
370
1
 48
1.0
  6
CONTINUOUS
100
AcDbPolyline
 90
2
 70
0
 10
423.90298461914062
 20
328.98348999023437
 30
0.0
 10
425.07754516601562
 20
327.68270874023437
 30
0.0
  0
LWPOLYLINE
  5
86
100
AcDbEntity
  8
0
 62
-1
420
0
370
1
 48
1.0
  6
CONTINUOUS
100
AcDbPolyline
 90
2
 70
0
 10
427.07589721679687
 20
331.55307006835937
 30
0.0
 10
428.10806274414062
 20
330.13668823242187
 30
0.0
  0
LWPOLYLINE
  5
87
100
AcDbEntity
  8
0
 62
-1
420
0
370
1
 48
1.0
  6
CONTINUOUS
100
AcDbPolyline
 90
2
 70
0
 10
430.5
 20
333.77700805664062
 30
0.0
 10
431.37844848632812
 20
332.26046752929687
 30
0.0
  0
LWPOLYLINE
  5
88
100
AcDbEntity
  8
0
 62
-1
420
0
370
1
 48
1.0
  6
CONTINUOUS
100
AcDbPolyline
 90
2
 70
0
 10
434.13787841796875
 20
335.63064575195312
 30
0.0
 10
434.8529052734375
 20
334.0306396484375
 30
0.0
  0
LWPOLYLINE
  5
89
100
AcDbEntity
  8
0
 62
-1
420
0
370
1
 48
1.0
  6
CONTINUOUS
100
AcDbPolyline
 90
2
 70
0
 10
437.94955444335937
 20
337.0941162109375
 30
0.0
 10
438.49337768554687
 20
335.4281005859375
 30
0.0
  0
LWPOLYLINE
  5
8A
100
AcDbEntity
  8
0
 62
-1
420
0
370
1
 48
1.0
  6
CONTINUOUS
100
AcDbPolyline
 90
2
 70
0
 10
441.89324951171875
 20
338.15097045898437
 30
0.0
 10
442.26007080078125
 20
336.43719482421875
 30
0.0
  0
LWPOLYLINE
  5
8B
100
AcDbEntity
  8
0
 62
-1
420
0
370
1
 48
1.0
  6
CONTINUOUS
100
AcDbPolyline
 90
2
 70
0
 10
445.92587280273437
 20
338.78985595703125
 30
0.0
 10
446.11154174804687
 20
337.04727172851562
 30
0.0
  0
LWPOLYLINE
  5
8C
100
AcDbEntity
  8
0
 62
-1
420
0
370
1
 48
1.0
  6
CONTINUOUS
100
AcDbPolyline
 90
132
 70
0
 10
481.2799072265625
 20
282.232666015625
 30
0.0
 10
456.69509887695312
 20
296.42324829101562
 30
0.0
 10
456.84210205078125
 20
296.70834350585937
 30
0.0
 10
456.9949951171875
 20
297.04644775390625
 30
0.0
 10
457.12899780273437
 20
297.38839721679687
 30
0.0
 10
457.2445068359375
 20
297.74099731445312
 30
0.0
 10
457.34677124023437
 20
298.10128784179687
 30
0.0
 10
457.43170166015625
 20
298.46807861328125
 30
0.0
 10
457.49920654296875
 20
298.84136962890625
 30
0.0
 10
457.54934692382812
 20
299.22116088867187
 30
0.0
 10
457.57797241210937
 20
299.60638427734375
 30
0.0
 10
457.58761596679687
 20
299.99545288085937
 30
0.0
 10
457.57687377929687
 20
300.3857421875
 30
0.0
 10
457.54946899414062
 20
300.77154541015625
 30
0.0
 10
457.50115966796875
 20
301.15179443359375
 30
0.0
 10
457.43316650390625
 20
301.52227783203125
 30
0.0
 10
457.35003662109375
 20
301.89096069335937
 30
0.0
 10
457.24868774414062
 20
302.25250244140625
 30
0.0
 10
457.12762451171875
 20
302.60427856445313
 30
0.0
 10
456.99249267578125
 20
302.95013427734375
 30
0.0
 10
456.84033203125
 20
303.28460693359375
 30
0.0
 10
456.67257690429687
 20
303.61053466796875
 30
0.0
 10
456.4892578125
 20
303.92779541015625
 30
0.0
 10
456.29306030273437
 20
304.23486328125
 30
0.0
 10
455.85507202148437
 20
304.8189697265625
 30
0.0
 10
455.36654663085937
 20
305.3582763671875
 30
0.0
 10
454.82705688476562
 20
305.84591674804688
 30
0.0
 10
454.24496459960937
 20
306.2841796875
 30
0.0
 10
453.93963623046875
 20
306.48159790039062
 30
0.0
 10
453.6209716796875
 20
306.66204833984375
 30
0.0
 10
453.29205322265625
 20
306.83084106445312
 30
0.0
 10
452.95657348632812
 20
306.98220825195312
 30
0.0
 10
452.61199951171875
 20
307.11773681640625
 30
0.0
 10
452.32662963867187
 20
307.21554565429687
 30
0.0
 10
452.3267822265625
 20
319.99606323242187
 30
0.0
 10
451.62539672851562
 20
319.99578857421875
 30
0.0
 10
451.625732421875
 20
307.4052734375
 30
0.0
 10
451.53268432617188
 20
307.42724609375
 30
0.0
 10
451.340576171875
 20
307.46066284179687
 30
0.0
 10
451.33843994140625
 20
325.51046752929687
 30
0.0
 10
450.63967895507812
 20
325.5086669921875
 30
0.0
 10
450.63922119140625
 20
307.55197143554687
 30
0.0
 10
450.39553833007812
 20
307.5693359375
 30
0.0
 10
450.3463134765625
 20
307.56954956054687
 30
0.0
 10
450.34442138671875
 20
328.5615234375
 30
0.0
 10
449.64453125
 20
328.56390380859375
 30
0.0
 10
449.64492797851562
 20
307.56930541992187
 30
0.0
 10
449.61614990234375
 20
307.56826782226562
 30
0.0
 10
449.35528564453125
 20
307.54971313476562
 30
0.0
 10
449.35543823242187
 20
322.63125610351562
 30
0.0
 10
448.65557861328125
 20
322.63357543945312
 30
0.0
 10
448.65499877929687
 20
307.45370483398437
 30
0.0
 10
448.4796142578125
 20
307.42459106445312
 30
0.0
 10
448.1109619140625
 20
307.3414306640625
 30
0.0
 10
447.75204467773437
 20
307.23855590820312
 30
0.0
 10
447.3975830078125
 20
307.1190185546875
 30
0.0
 10
447.05441284179687
 20
306.98239135742187
 30
0.0
 10
446.71728515625
 20
306.83172607421875
 30
0.0
 10
446.391357421875
 20
306.66400146484375
 30
0.0
 10
446.0740966796875
 20
306.48068237304687
 30
0.0
 10
445.76705932617187
 20
306.28445434570312
 30
0.0
 10
445.18292236328125
 20
305.84646606445312
 30
0.0
 10
444.64364624023437
 20
305.35797119140625
 30
0.0
 10
444.15597534179687
 20
304.81845092773437
 30
0.0
 10
443.71771240234375
 20
304.23635864257812
 30
0.0
 10
443.52142333984375
 20
303.92684936523437
 30
0.0
 10
443.33831787109375
 20
303.60971069335938
 30
0.0
 10
443.17108154296875
 20
303.283447265625
 30
0.0
 10
443.01968383789062
 20
302.947998046875
 30
0.0
 10
442.8841552734375
 20
302.6033935546875
 30
0.0
 10
442.76446533203125
 20
302.2496337890625
 30
0.0
 10
442.6595458984375
 20
301.89089965820312
 30
0.0
 10
442.5772705078125
 20
301.52255249023437
 30
0.0
 10
442.51129150390625
 20
301.15191650390625
 30
0.0
 10
442.46115112304687
 20
300.77212524414062
 30
0.0
 10
442.43255615234375
 20
300.38693237304687
 30
0.0
 10
442.425537109375
 20
299.99630737304687
 30
0.0
 10
442.43362426757812
 20
299.6075439453125
 30
0.0
 10
442.46371459960937
 20
299.22021484375
 30
0.0
 10
442.511962890625
 20
298.8399658203125
 30
0.0
 10
442.5799560546875
 20
298.469482421875
 30
0.0
 10
442.66046142578125
 20
298.10232543945312
 30
0.0
 10
442.76181030273437
 20
297.74075317382812
 30
0.0
 10
442.87286376953125
 20
297.426513671875
 30
0.0
 10
426.83071899414062
 20
288.1641845703125
 30
0.0
 10
427.18115234375
 20
287.55661010742188
 30
0.0
 10
443.14132690429687
 20
296.77462768554688
 30
0.0
 10
443.17019653320312
 20
296.70864868164062
 30
0.0
 10
443.27188110351562
 20
296.51251220703125
 30
0.0
 10
422.58441162109375
 20
284.56903076171875
 30
0.0
 10
422.9364013671875
 20
283.96408081054687
 30
0.0
 10
443.62384033203125
 20
295.9075927734375
 30
0.0
 10
443.7200927734375
 20
295.75689697265625
 30
0.0
 10
443.78439331054687
 20
295.66690063476562
 30
0.0
 10
425.786376953125
 20
285.27508544921875
 30
0.0
 10
426.13681030273437
 20
284.66751098632812
 30
0.0
 10
444.21572875976562
 20
295.10781860351562
 30
0.0
 10
444.64398193359375
 20
294.63504028320313
 30
0.0
 10
445.18344116210937
 20
294.14736938476562
 30
0.0
 10
445.76553344726562
 20
293.70907592773437
 30
0.0
 10
446.07351684570312
 20
293.51016235351562
 30
0.0
 10
446.39218139648438
 20
293.32968139648437
 30
0.0
 10
446.71847534179687
 20
293.16244506835937
 30
0.0
 10
447.05239868164062
 20
293.0084228515625
 30
0.0
 10
447.39849853515625
 20
292.87554931640625
 30
0.0
 10
447.75228881835937
 20
292.75588989257812
 30
0.0
 10
448.10992431640625
 20
292.65512084960937
 30
0.0
 10
448.47930908203125
 20
292.56866455078125
 30
0.0
 10
448.8499755859375
 20
292.502685546875
 30
0.0
 10
449.23129272460937
 20
292.4552001953125
 30
0.0
 10
449.61495971679687
 20
292.42391967773437
 30
0.0
 10
450.0067138671875
 20
292.41275024414062
 30
0.0
 10
450.39697265625
 20
292.42349243164062
 30
0.0
 10
450.78170776367188
 20
292.455078125
 30
0.0
 10
451.160400390625
 20
292.500732421875
 30
0.0
 10
451.53353881835937
 20
292.56719970703125
 30
0.0
 10
451.8995361328125
 20
292.65185546875
 30
0.0
 10
452.2611083984375
 20
292.75320434570312
 30
0.0
 10
452.6129150390625
 20
292.87429809570312
 30
0.0
 10
452.95870971679687
 20
293.0093994140625
 30
0.0
 10
453.29324340820312
 20
293.16159057617187
 30
0.0
 10
453.62176513671875
 20
293.32778930664062
 30
0.0
 10
453.93902587890625
 20
293.51107788085937
 30
0.0
 10
454.24612426757812
 20
293.707275390625
 30
0.0
 10
454.82757568359375
 20
294.14682006835937
 30
0.0
 10
455.3695068359375
 20
294.63381958007812
 30
0.0
 10
455.85455322265625
 20
295.17486572265625
 30
0.0
 10
456.29278564453125
 20
295.75692749023437
 30
0.0
 10
456.44638061523437
 20
295.992431640625
 30
0.0
 10
481.02969360351562
 20
281.79928588867187
 30
0.0
 10
481.2799072265625
 20
282.232666015625
 30
0.0
 10
481.2799072265625
 20
282.232666015625
 30
0.0
  0
LWPOLYLINE
  5
8D
100
AcDbEntity
  8
0
 62
-1
420
0
370
1
 48
1.0
  6
CONTINUOUS
100
AcDbPolyline
 90
7
 70
0
 10
442.0186767578125
 20
329.7923583984375
 30
0.0
 10
442.5286865234375
 20
329.49798583984375
 30
0.0
 10
442.23431396484375
 20
328.98794555664062
 30
0.0
 10
441.72421264648437
 20
329.28237915039062
 30
0.0
 10
442.0186767578125
 20
329.7923583984375
 30
0.0
 10
442.0186767578125
 20
329.7923583984375
 30
0.0
 10
442.0186767578125
 20
329.7923583984375
 30
0.0
  0
LWPOLYLINE
  5
8E
100
AcDbEntity
  8
0
 62
-1
420
0
370
1
 48
1.0
  6
CONTINUOUS
100
AcDbPolyline
 90
12
 70
0
 10
442.41207885742187
 20
328.67095947265625
 30
0.0
 10
442.35830688476562
 20
328.87152099609375
 30
0.0
 10
442.7550048828125
 20
329.55862426757812
 30
0.0
 10
441.95809936523437
 20
330.018798828125
 30
0.0
 10
441.49795532226562
 20
329.22174072265625
 30
0.0
 10
442.177734375
 20
328.82925415039062
 30
0.0
 10
442.23251342773437
 20
328.62521362304687
 30
0.0
 10
442.2896728515625
 20
327.00491333007812
 30
0.0
 10
443.17630004882812
 20
327.24249267578125
 30
0.0
 10
442.41207885742187
 20
328.67095947265625
 30
0.0
 10
442.41207885742187
 20
328.67095947265625
 30
0.0
 10
442.41207885742187
 20
328.67095947265625
 30
0.0
  0
LWPOLYLINE
  5
8F
100
AcDbEntity
  8
0
 62
-1
420
0
370
1
 48
1.0
  6
CONTINUOUS
100
AcDbPolyline
 90
7
 70
0
 10
428.1904296875
 20
321.8114013671875
 30
0.0
 10
428.77938842773437
 20
321.8114013671875
 30
0.0
 10
428.77938842773437
 20
321.22247314453125
 30
0.0
 10
428.19036865234375
 20
321.22235107421875
 30
0.0
 10
428.1904296875
 20
321.8114013671875
 30
0.0
 10
428.1904296875
 20
321.8114013671875
 30
0.0
 10
428.1904296875
 20
321.8114013671875
 30
0.0
  0
LWPOLYLINE
  5
90
100
AcDbEntity
  8
0
 62
-1
420
0
370
1
 48
1.0
  6
CONTINUOUS
100
AcDbPolyline
 90
12
 70
0
 10
429.09185791015625
 20
321.03680419921875
 30
0.0
 10
428.94500732421875
 20
321.18356323242187
 30
0.0
 10
428.94503784179687
 20
321.97711181640625
 30
0.0
 10
428.02474975585938
 20
321.97711181640625
 30
0.0
 10
428.02474975585938
 20
321.05673217773437
 30
0.0
 10
428.80978393554687
 20
321.05673217773437
 30
0.0
 10
428.95925903320312
 20
320.90740966796875
 30
0.0
 10
429.81884765625
 20
319.5328369140625
 30
0.0
 10
430.46786499023437
 20
320.1817626953125
 30
0.0
 10
429.09185791015625
 20
321.03680419921875
 30
0.0
 10
429.09185791015625
 20
321.03680419921875
 30
0.0
 10
429.09185791015625
 20
321.03680419921875
 30
0.0
  0
LWPOLYLINE
  5
91
100
AcDbEntity
  8
0
 62
-1
420
0
370
1
 48
1.0
  6
CONTINUOUS
100
AcDbPolyline
 90
7
 70
0
 10
420.20416259765625
 20
307.98541259765625
 30
0.0
 10
420.71417236328125
 20
308.27981567382812
 30
0.0
 10
421.00872802734375
 20
307.76983642578125
 30
0.0
 10
420.49862670898437
 20
307.475341796875
 30
0.0
 10
420.20416259765625
 20
307.98541259765625
 30
0.0
 10
420.20416259765625
 20
307.98541259765625
 30
0.0
 10
420.20416259765625
 20
307.98541259765625
 30
0.0
  0
LWPOLYLINE
  5
92
100
AcDbEntity
  8
0
 62
-1
420
0
370
1
 48
1.0
  6
CONTINUOUS
100
AcDbPolyline
 90
12
 70
0
 10
421.3720703125
 20
307.76528930664062
 30
0.0
 10
421.17153930664062
 20
307.81900024414062
 30
0.0
 10
420.77481079101562
 20
308.50619506835937
 30
0.0
 10
419.9779052734375
 20
308.04605102539062
 30
0.0
 10
420.43798828125
 20
307.24911499023437
 30
0.0
 10
421.11782836914062
 20
307.64166259765625
 30
0.0
 10
421.32196044921875
 20
307.58694458007812
 30
0.0
 10
422.75372314453125
 20
306.82626342773437
 30
0.0
 10
422.9913330078125
 20
307.71292114257812
 30
0.0
 10
421.3720703125
 20
307.76528930664062
 30
0.0
 10
421.3720703125
 20
307.76528930664062
 30
0.0
 10
421.3720703125
 20
307.76528930664062
 30
0.0
  0
LWPOLYLINE
  5
93
100
AcDbEntity
  8
0
 62
-1
420
0
370
1
 48
1.0
  6
CONTINUOUS
100
AcDbPolyline
 90
7
 70
0
 10
420.20089721679687
 20
292.01889038085938
 30
0.0
 10
420.49533081054687
 20
292.52886962890625
 30
0.0
 10
421.00540161132812
 20
292.23443603515625
 30
0.0
 10
420.71087646484375
 20
291.724365234375
 30
0.0
 10
420.20089721679687
 20
292.01889038085938
 30
0.0
 10
420.20089721679687
 20
292.01889038085938
 30
0.0
 10
420.20089721679687
 20
292.01889038085938
 30
0.0
  0
LWPOLYLINE
  5
94
100
AcDbEntity
  8
0
 62
-1
420
0
370
1
 48
1.0
  6
CONTINUOUS
100
AcDbPolyline
 90
12
 70
0
 10
421.3223876953125
 20
292.41229248046875
 30
0.0
 10
421.121826171875
 20
292.35842895507812
 30
0.0
 10
420.4346923828125
 20
292.75518798828125
 30
0.0
 10
419.97457885742187
 20
291.95828247070312
 30
0.0
 10
420.77157592773437
 20
291.49810791015625
 30
0.0
 10
421.1640625
 20
292.17791748046875
 30
0.0
 10
421.36810302734375
 20
292.23272705078125
 30
0.0
 10
422.98843383789062
 20
292.28985595703125
 30
0.0
 10
422.7508544921875
 20
293.17642211914062
 30
0.0
 10
421.3223876953125
 20
292.41229248046875
 30
0.0
 10
421.3223876953125
 20
292.41229248046875
 30
0.0
 10
421.3223876953125
 20
292.41229248046875
 30
0.0
  0
LWPOLYLINE
  5
95
100
AcDbEntity
  8
0
 62
-1
420
0
370
1
 48
1.0
  6
CONTINUOUS
100
AcDbPolyline
 90
7
 70
0
 10
428.18118286132812
 20
278.18978881835937
 30
0.0
 10
428.18109130859375
 20
278.7786865234375
 30
0.0
 10
428.77008056640625
 20
278.77877807617187
 30
0.0
 10
428.77005004882812
 20
278.18978881835937
 30
0.0
 10
428.18118286132812
 20
278.18978881835937
 30
0.0
 10
428.18118286132812
 20
278.18978881835937
 30
0.0
 10
428.18118286132812
 20
278.18978881835937
 30
0.0
  0
LWPOLYLINE
  5
96
100
AcDbEntity
  8
0
 62
-1
420
0
370
1
 48
1.0
  6
CONTINUOUS
100
AcDbPolyline
 90
12
 70
0
 10
428.9556884765625
 20
279.09121704101562
 30
0.0
 10
428.80889892578125
 20
278.94439697265625
 30
0.0
 10
428.01544189453125
 20
278.94442749023437
 30
0.0
 10
428.015380859375
 20
278.02420043945313
 30
0.0
 10
428.93569946289062
 20
278.02420043945313
 30
0.0
 10
428.9356689453125
 20
278.8092041015625
 30
0.0
 10
429.08511352539062
 20
278.95864868164062
 30
0.0
 10
430.459716796875
 20
279.81826782226562
 30
0.0
 10
429.81072998046875
 20
280.46725463867187
 30
0.0
 10
428.9556884765625
 20
279.09121704101562
 30
0.0
 10
428.9556884765625
 20
279.09121704101562
 30
0.0
 10
428.9556884765625
 20
279.09121704101562
 30
0.0
  0
LWPOLYLINE
  5
97
100
AcDbEntity
  8
0
 62
-1
420
0
370
1
 48
1.0
  6
CONTINUOUS
100
AcDbPolyline
 90
7
 70
0
 10
442.00680541992187
 20
270.203369140625
 30
0.0
 10
441.71237182617187
 20
270.71343994140625
 30
0.0
 10
442.22238159179687
 20
271.0079345703125
 30
0.0
 10
442.51690673828125
 20
270.49786376953125
 30
0.0
 10
442.00680541992187
 20
270.203369140625
 30
0.0
 10
442.00680541992187
 20
270.203369140625
 30
0.0
 10
442.00680541992187
 20
270.203369140625
 30
0.0
  0
LWPOLYLINE
  5
98
100
AcDbEntity
  8
0
 62
-1
420
0
370
1
 48
1.0
  6
CONTINUOUS
100
AcDbPolyline
 90
12
 70
0
 10
442.22698974609375
 20
271.37136840820312
 30
0.0
 10
442.17324829101562
 20
271.17080688476562
 30
0.0
 10
441.48602294921875
 20
270.7740478515625
 30
0.0
 10
441.9461669921875
 20
269.97708129882812
 30
0.0
 10
442.74319458007812
 20
270.43728637695312
 30
0.0
 10
442.35067749023437
 20
271.11709594726562
 30
0.0
 10
442.40530395507812
 20
271.32113647460937
 30
0.0
 10
443.16595458984375
 20
272.75299072265625
 30
0.0
 10
442.27938842773437
 20
272.99050903320312
 30
0.0
 10
442.22698974609375
 20
271.37136840820312
 30
0.0
 10
442.22698974609375
 20
271.37136840820312
 30
0.0
 10
442.22698974609375
 20
271.37136840820312
 30
0.0
  0
LWPOLYLINE
  5
99
100
AcDbEntity
  8
0
 62
-1
420
0
370
1
 48
1.0
  6
CONTINUOUS
100
AcDbPolyline
 90
7
 70
0
 10
457.97354125976562
 20
270.19998168945312
 30
0.0
 10
457.46347045898437
 20
270.49444580078125
 30
0.0
 10
457.75796508789062
 20
271.0045166015625
 30
0.0
 10
458.26797485351562
 20
270.71005249023437
 30
0.0
 10
457.97354125976562
 20
270.19998168945312
 30
0.0
 10
457.97354125976562
 20
270.19998168945312
 30
0.0
 10
457.97354125976562
 20
270.19998168945312
 30
0.0
  0
LWPOLYLINE
  5
9A
100
AcDbEntity
  8
0
 62
-1
420
0
370
1
 48
1.0
  6
CONTINUOUS
100
AcDbPolyline
 90
12
 70
0
 10
457.5802001953125
 20
271.321533203125
 30
0.0
 10
457.63394165039062
 20
271.12100219726562
 30
0.0
 10
457.2371826171875
 20
270.433837890625
 30
0.0
 10
458.03411865234375
 20
269.97369384765625
 30
0.0
 10
458.49423217773437
 20
270.77072143554687
 30
0.0
 10
457.81439208984375
 20
271.1632080078125
 30
0.0
 10
457.75970458984375
 20
271.3673095703125
 30
0.0
 10
457.7025146484375
 20
272.987548828125
 30
0.0
 10
456.81597900390625
 20
272.75003051757812
 30
0.0
 10
457.5802001953125
 20
271.321533203125
 30
0.0
 10
457.5802001953125
 20
271.321533203125
 30
0.0
 10
457.5802001953125
 20
271.321533203125
 30
0.0
  0
LWPOLYLINE
  5
9B
100
AcDbEntity
  8
0
 62
-1
420
0
370
1
 48
1.0
  6
CONTINUOUS
100
AcDbPolyline
 90
7
 70
0
 10
471.80255126953125
 20
278.180419921875
 30
0.0
 10
471.213623046875
 20
278.18045043945312
 30
0.0
 10
471.21356201171875
 20
278.76934814453125
 30
0.0
 10
471.80255126953125
 20
278.76947021484375
 30
0.0
 10
471.80255126953125
 20
278.180419921875
 30
0.0
 10
471.80255126953125
 20
278.180419921875
 30
0.0
 10
471.80255126953125
 20
278.180419921875
 30
0.0
  0
LWPOLYLINE
  5
9C
100
AcDbEntity
  8
0
 62
-1
420
0
370
1
 48
1.0
  6
CONTINUOUS
100
AcDbPolyline
 90
12
 70
0
 10
470.90118408203125
 20
278.95504760742187
 30
0.0
 10
471.04800415039062
 20
278.80825805664062
 30
0.0
 10
471.04803466796875
 20
278.01480102539062
 30
0.0
 10
471.96820068359375
 20
278.0147705078125
 30
0.0
 10
471.96826171875
 20
278.93508911132812
 30
0.0
 10
471.18316650390625
 20
278.93508911132812
 30
0.0
 10
471.03378295898437
 20
279.08441162109375
 30
0.0
 10
470.17413330078125
 20
280.45907592773437
 30
0.0
 10
469.52511596679687
 20
279.81005859375
 30
0.0
 10
470.90118408203125
 20
278.95504760742187
 30
0.0
 10
470.90118408203125
 20
278.95504760742187
 30
0.0
 10
470.90118408203125
 20
278.95504760742187
 30
0.0
  0
LWPOLYLINE
  5
9D
100
AcDbEntity
  8
0
 62
-1
420
0
370
1
 48
1.0
  6
CONTINUOUS
100
AcDbPolyline
 90
7
 70
0
 10
479.78878784179687
 20
292.0059814453125
 30
0.0
 10
479.27880859375
 20
291.71148681640625
 30
0.0
 10
478.9842529296875
 20
292.2215576171875
 30
0.0
 10
479.49435424804688
 20
292.51602172851562
 30
0.0
 10
479.78878784179687
 20
292.0059814453125
 30
0.0
 10
479.78878784179687
 20
292.0059814453125
 30
0.0
 10
479.78878784179687
 20
292.0059814453125
 30
0.0
  0
LWPOLYLINE
  5
9E
100
AcDbEntity
  8
0
 62
-1
420
0
370
1
 48
1.0
  6
CONTINUOUS
100
AcDbPolyline
 90
12
 70
0
 10
478.620849609375
 20
292.22607421875
 30
0.0
 10
478.8214111328125
 20
292.17233276367188
 30
0.0
 10
479.21817016601562
 20
291.48513793945312
 30
0.0
 10
480.01507568359375
 20
291.94525146484375
 30
0.0
 10
479.55499267578125
 20
292.74221801757813
 30
0.0
 10
478.8751220703125
 20
292.34970092773437
 30
0.0
 10
478.6710205078125
 20
292.40438842773437
 30
0.0
 10
477.23928833007812
 20
293.16506958007813
 30
0.0
 10
477.001708984375
 20
292.2784423828125
 30
0.0
 10
478.620849609375
 20
292.22607421875
 30
0.0
 10
478.620849609375
 20
292.22607421875
 30
0.0
 10
478.620849609375
 20
292.22607421875
 30
0.0
  0
LWPOLYLINE
  5
9F
100
AcDbEntity
  8
0
 62
-1
420
0
370
1
 48
1.0
  6
CONTINUOUS
100
AcDbPolyline
 90
7
 70
0
 10
479.79238891601562
 20
307.97256469726562
 30
0.0
 10
479.4979248046875
 20
307.46249389648438
 30
0.0
 10
478.98785400390625
 20
307.75701904296875
 30
0.0
 10
479.2823486328125
 20
308.26699829101563
 30
0.0
 10
479.79238891601562
 20
307.97256469726562
 30
0.0
 10
479.79238891601562
 20
307.97256469726562
 30
0.0
 10
479.79238891601562
 20
307.97256469726562
 30
0.0
  0
LWPOLYLINE
  5
A0
100
AcDbEntity
  8
0
 62
-1
420
0
370
1
 48
1.0
  6
CONTINUOUS
100
AcDbPolyline
 90
12
 70
0
 10
478.67086791992187
 20
307.57916259765625
 30
0.0
 10
478.87142944335937
 20
307.63290405273438
 30
0.0
 10
479.55859375
 20
307.23617553710938
 30
0.0
 10
480.01873779296875
 20
308.03305053710938
 30
0.0
 10
479.22174072265625
 20
308.49325561523437
 30
0.0
 10
478.82919311523437
 20
307.81341552734375
 30
0.0
 10
478.62515258789062
 20
307.75875854492187
 30
0.0
 10
477.00485229492187
 20
307.7015380859375
 30
0.0
 10
477.242431640625
 20
306.81500244140625
 30
0.0
 10
478.67086791992187
 20
307.57916259765625
 30
0.0
 10
478.67086791992187
 20
307.57916259765625
 30
0.0
 10
478.67086791992187
 20
307.57916259765625
 30
0.0
  0
LWPOLYLINE
  5
A1
100
AcDbEntity
  8
0
 62
-1
420
0
370
1
 48
1.0
  6
CONTINUOUS
100
AcDbPolyline
 90
7
 70
0
 10
471.81207275390625
 20
321.80181884765625
 30
0.0
 10
471.81204223632812
 20
321.21292114257812
 30
0.0
 10
471.22311401367187
 20
321.21286010742187
 30
0.0
 10
471.22308349609375
 20
321.80184936523437
 30
0.0
 10
471.81207275390625
 20
321.80181884765625
 30
0.0
 10
471.81207275390625
 20
321.80181884765625
 30
0.0
 10
471.81207275390625
 20
321.80181884765625
 30
0.0
  0
LWPOLYLINE
  5
A2
100
AcDbEntity
  8
0
 62
-1
420
0
370
1
 48
1.0
  6
CONTINUOUS
100
AcDbPolyline
 90
12
 70
0
 10
471.03744506835937
 20
320.90045166015625
 30
0.0
 10
471.18423461914062
 20
321.04727172851563
 30
0.0
 10
471.977783203125
 20
321.04718017578125
 30
0.0
 10
471.977783203125
 20
321.96746826171875
 30
0.0
 10
471.05740356445312
 20
321.96746826171875
 30
0.0
 10
471.05752563476562
 20
321.182373046875
 30
0.0
 10
470.90814208984375
 20
321.03302001953125
 30
0.0
 10
469.53350830078125
 20
320.17337036132812
 30
0.0
 10
470.1824951171875
 20
319.52435302734375
 30
0.0
 10
471.03744506835937
 20
320.90045166015625
 30
0.0
 10
471.03744506835937
 20
320.90045166015625
 30
0.0
 10
471.03744506835937
 20
320.90045166015625
 30
0.0
  0
LWPOLYLINE
  5
A3
100
AcDbEntity
  8
0
 62
-1
420
0
370
1
 48
1.0
  6
CONTINUOUS
100
AcDbPolyline
 90
7
 70
0
 10
457.986328125
 20
329.78799438476562
 30
0.0
 10
458.28085327148437
 20
329.2779541015625
 30
0.0
 10
457.770751953125
 20
328.98345947265625
 30
0.0
 10
457.47637939453125
 20
329.49343872070312
 30
0.0
 10
457.986328125
 20
329.78799438476562
 30
0.0
 10
457.986328125
 20
329.78799438476562
 30
0.0
 10
457.986328125
 20
329.78799438476562
 30
0.0
  0
LWPOLYLINE
  5
A4
100
AcDbEntity
  8
0
 62
-1
420
0
370
1
 48
1.0
  6
CONTINUOUS
100
AcDbPolyline
 90
12
 70
0
 10
457.76626586914062
 20
328.6199951171875
 30
0.0
 10
457.82000732421875
 20
328.82052612304687
 30
0.0
 10
458.50717163085937
 20
329.21728515625
 30
0.0
 10
458.04708862304687
 20
330.01419067382812
 30
0.0
 10
457.25009155273437
 20
329.55404663085937
 30
0.0
 10
457.64254760742187
 20
328.87423706054687
 30
0.0
 10
457.587890625
 20
328.67013549804687
 30
0.0
 10
456.82723999023437
 20
327.23834228515625
 30
0.0
 10
457.71380615234375
 20
327.00082397460937
 30
0.0
 10
457.76626586914062
 20
328.6199951171875
 30
0.0
 10
457.76626586914062
 20
328.6199951171875
 30
0.0
 10
457.76626586914062
 20
328.6199951171875
 30
0.0
  0
LWPOLYLINE
  5
A5
100
AcDbEntity
  8
0
 62
-1
420
0
370
1
 48
1.0
  6
CONTINUOUS
100
AcDbPolyline
 90
41
 70
0
 10
452.88497924804687
 20
335.39996337890625
 30
0.0
 10
452.76248168945312
 20
335.39498901367187
 30
0.0
 10
452.65496826171875
 20
335.38247680664062
 30
0.0
 10
452.56747436523437
 20
335.3599853515625
 30
0.0
 10
452.49746704101562
 20
335.32748413085937
 30
0.0
 10
452.44497680664062
 20
335.2874755859375
 30
0.0
 10
452.40997314453125
 20
335.23748779296875
 30
0.0
 10
452.39248657226562
 20
335.17996215820312
 30
0.0
 10
452.39498901367187
 20
335.11248779296875
 30
0.0
 10
452.39498901367187
 20
328.13247680664062
 30
0.0
 10
452.39248657226562
 20
328.07498168945312
 30
0.0
 10
452.40997314453125
 20
328.02496337890625
 30
0.0
 10
452.44497680664062
 20
327.98248291015625
 30
0.0
 10
452.49746704101562
 20
327.94998168945312
 30
0.0
 10
452.56747436523437
 20
327.9224853515625
 30
0.0
 10
452.65496826171875
 20
327.9024658203125
 30
0.0
 10
452.76248168945312
 20
327.89248657226562
 30
0.0
 10
452.88497924804687
 20
327.88748168945312
 30
0.0
 10
452.88497924804687
 20
327.68246459960937
 30
0.0
 10
451.0899658203125
 20
327.68246459960937
 30
0.0
 10
451.0899658203125
 20
327.88748168945312
 30
0.0
 10
451.21246337890625
 20
327.88247680664062
 30
0.0
 10
451.31997680664062
 20
327.88748168945312
 30
0.0
 10
451.407470703125
 20
327.9024658203125
 30
0.0
 10
451.47747802734375
 20
327.927490234375
 30
0.0
 10
451.52996826171875
 20
327.9649658203125
 30
0.0
 10
451.56246948242187
 20
328.00997924804687
 30
0.0
 10
451.57998657226562
 20
328.06747436523437
 30
0.0
 10
451.57998657226562
 20
328.13247680664062
 30
0.0
 10
451.57998657226562
 20
335.11248779296875
 30
0.0
 10
451.57998657226562
 20
335.17996215820312
 30
0.0
 10
451.56246948242187
 20
335.23748779296875
 30
0.0
 10
451.52996826171875
 20
335.2874755859375
 30
0.0
 10
451.47747802734375
 20
335.32748413085937
 30
0.0
 10
451.407470703125
 20
335.3599853515625
 30
0.0
 10
451.31997680664062
 20
335.38247680664062
 30
0.0
 10
451.21246337890625
 20
335.39498901367187
 30
0.0
 10
451.0899658203125
 20
335.39996337890625
 30
0.0
 10
451.0899658203125
 20
335.60247802734375
 30
0.0
 10
452.88497924804687
 20
335.60247802734375
 30
0.0
 10
452.88497924804687
 20
335.39996337890625
 30
0.0
  0
LWPOLYLINE
  5
A6
100
AcDbEntity
  8
0
 62
-1
420
0
370
1
 48
1.0
  6
CONTINUOUS
100
AcDbPolyline
 90
41
 70
0
 10
454.76248168945312
 20
335.39996337890625
 30
0.0
 10
454.62997436523437
 20
335.39498901367187
 30
0.0
 10
454.51498413085937
 20
335.37997436523437
 30
0.0
 10
454.41998291015625
 20
335.35247802734375
 30
0.0
 10
454.344970703125
 20
335.31747436523437
 30
0.0
 10
454.2874755859375
 20
335.27249145507812
 30
0.0
 10
454.24996948242187
 20
335.2149658203125
 30
0.0
 10
454.23248291015625
 20
335.14996337890625
 30
0.0
 10
454.23248291015625
 20
335.07247924804688
 30
0.0
 10
454.23248291015625
 20
328.2149658203125
 30
0.0
 10
454.23248291015625
 20
328.13748168945312
 30
0.0
 10
454.25247192382812
 20
328.07247924804687
 30
0.0
 10
454.29248046875
 20
328.01498413085937
 30
0.0
 10
454.35498046875
 20
327.969970703125
 30
0.0
 10
454.43746948242187
 20
327.93496704101562
 30
0.0
 10
454.5374755859375
 20
327.907470703125
 30
0.0
 10
454.6624755859375
 20
327.89248657226562
 30
0.0
 10
454.80496215820313
 20
327.88748168945312
 30
0.0
 10
454.80496215820313
 20
327.68246459960937
 30
0.0
 10
452.92498779296875
 20
327.68246459960937
 30
0.0
 10
452.92498779296875
 20
327.88748168945312
 30
0.0
 10
453.04998779296875
 20
327.89248657226562
 30
0.0
 10
453.15496826171875
 20
327.9024658203125
 30
0.0
 10
453.24246215820313
 20
327.9224853515625
 30
0.0
 10
453.31246948242187
 20
327.94998168945312
 30
0.0
 10
453.36495971679687
 20
327.98248291015625
 30
0.0
 10
453.39996337890625
 20
328.02496337890625
 30
0.0
 10
453.41748046875
 20
328.07498168945312
 30
0.0
 10
453.41497802734375
 20
328.13247680664062
 30
0.0
 10
453.41497802734375
 20
335.11248779296875
 30
0.0
 10
453.41748046875
 20
335.17996215820312
 30
0.0
 10
453.39996337890625
 20
335.23748779296875
 30
0.0
 10
453.36495971679687
 20
335.2874755859375
 30
0.0
 10
453.31246948242187
 20
335.32748413085937
 30
0.0
 10
453.24246215820313
 20
335.3599853515625
 30
0.0
 10
453.15496826171875
 20
335.38247680664062
 30
0.0
 10
453.04998779296875
 20
335.39498901367187
 30
0.0
 10
452.92498779296875
 20
335.39996337890625
 30
0.0
 10
452.92498779296875
 20
335.60247802734375
 30
0.0
 10
454.76248168945312
 20
335.60247802734375
 30
0.0
 10
454.76248168945312
 20
335.39996337890625
 30
0.0
  0
LWPOLYLINE
  5
A7
100
AcDbEntity
  8
0
 62
-1
420
0
370
1
 48
1.0
  6
CONTINUOUS
100
AcDbPolyline
 90
77
 70
0
 10
446.35247802734375
 20
328.04998779296875
 30
0.0
 10
446.344970703125
 20
328.01248168945312
 30
0.0
 10
446.36495971679687
 20
327.97998046875
 30
0.0
 10
446.407470703125
 20
327.95248413085937
 30
0.0
 10
446.47747802734375
 20
327.927490234375
 30
0.0
 10
446.56997680664062
 20
327.90997314453125
 30
0.0
 10
446.68997192382812
 20
327.89749145507812
 30
0.0
 10
446.83746337890625
 20
327.88998413085937
 30
0.0
 10
447.00747680664062
 20
327.88748168945312
 30
0.0
 10
447.00747680664062
 20
327.68246459960937
 30
0.0
 10
445.2099609375
 20
327.68246459960937
 30
0.0
 10
445.2099609375
 20
327.88748168945312
 30
0.0
 10
445.37496948242187
 20
327.88998413085937
 30
0.0
 10
445.5224609375
 20
327.89749145507812
 30
0.0
 10
445.64996337890625
 20
327.90997314453125
 30
0.0
 10
445.76248168945312
 20
327.927490234375
 30
0.0
 10
445.85498046875
 20
327.95248413085937
 30
0.0
 10
445.92996215820312
 20
327.97998046875
 30
0.0
 10
445.98748779296875
 20
328.01248168945312
 30
0.0
 10
446.0274658203125
 20
328.04998779296875
 30
0.0
 10
447.86495971679687
 20
331.43997192382813
 30
0.0
 10
446.0274658203125
 20
335.11248779296875
 30
0.0
 10
445.98748779296875
 20
335.17996215820312
 30
0.0
 10
445.92996215820312
 20
335.23748779296875
 30
0.0
 10
445.85498046875
 20
335.2874755859375
 30
0.0
 10
445.76248168945312
 20
335.32748413085937
 30
0.0
 10
445.64996337890625
 20
335.3599853515625
 30
0.0
 10
445.5224609375
 20
335.38247680664062
 30
0.0
 10
445.37496948242187
 20
335.39498901367187
 30
0.0
 10
445.2099609375
 20
335.39996337890625
 30
0.0
 10
445.2099609375
 20
335.60247802734375
 30
0.0
 10
447.61996459960937
 20
335.60247802734375
 30
0.0
 10
447.61996459960937
 20
335.39996337890625
 30
0.0
 10
447.4124755859375
 20
335.39498901367187
 30
0.0
 10
447.23748779296875
 20
335.38247680664062
 30
0.0
 10
447.094970703125
 20
335.3599853515625
 30
0.0
 10
446.98748779296875
 20
335.32748413085937
 30
0.0
 10
446.90997314453125
 20
335.2874755859375
 30
0.0
 10
446.86996459960937
 20
335.23748779296875
 30
0.0
 10
446.8599853515625
 20
335.17996215820312
 30
0.0
 10
446.88497924804687
 20
335.11248779296875
 30
0.0
 10
448.35498046875
 20
332.17498779296875
 30
0.0
 10
450.0274658203125
 20
335.15496826171875
 30
0.0
 10
450.0374755859375
 20
335.21246337890625
 30
0.0
 10
450.02496337890625
 20
335.26248168945312
 30
0.0
 10
449.99246215820313
 20
335.30496215820312
 30
0.0
 10
449.93496704101562
 20
335.33746337890625
 30
0.0
 10
449.8599853515625
 20
335.364990234375
 30
0.0
 10
449.75997924804687
 20
335.38497924804687
 30
0.0
 10
449.63998413085937
 20
335.39498901367187
 30
0.0
 10
449.49746704101562
 20
335.39996337890625
 30
0.0
 10
449.49746704101562
 20
335.60247802734375
 30
0.0
 10
450.92498779296875
 20
335.60247802734375
 30
0.0
 10
450.92498779296875
 20
335.39996337890625
 30
0.0
 10
450.72247314453125
 20
335.38497924804687
 30
0.0
 10
450.55746459960937
 20
335.33746337890625
 30
0.0
 10
450.43496704101562
 20
335.26248168945312
 30
0.0
 10
450.35498046875
 20
335.15496826171875
 30
0.0
 10
448.47747802734375
 20
331.84747314453125
 30
0.0
 10
450.39498901367187
 20
328.04998779296875
 30
0.0
 10
450.48995971679687
 20
327.97998046875
 30
0.0
 10
450.6099853515625
 20
327.927490234375
 30
0.0
 10
450.75497436523437
 20
327.89749145507812
 30
0.0
 10
450.92498779296875
 20
327.88748168945312
 30
0.0
 10
450.92498779296875
 20
327.68246459960937
 30
0.0
 10
448.9649658203125
 20
327.68246459960937
 30
0.0
 10
448.9649658203125
 20
327.88748168945312
 30
0.0
 10
449.12496948242187
 20
327.88247680664062
 30
0.0
 10
449.25997924804687
 20
327.89248657226562
 30
0.0
 10
449.36495971679687
 20
327.91497802734375
 30
0.0
 10
449.44497680664062
 20
327.94998168945312
 30
0.0
 10
449.49996948242187
 20
327.99746704101562
 30
0.0
 10
449.52496337890625
 20
328.05746459960937
 30
0.0
 10
449.52496337890625
 20
328.12997436523437
 30
0.0
 10
449.49746704101562
 20
328.2149658203125
 30
0.0
 10
448.0274658203125
 20
331.11248779296875
 30
0.0
 10
446.35247802734375
 20
328.04998779296875
 30
0.0
  0
LWPOLYLINE
  5
A8
100
AcDbEntity
  8
0
 62
-1
420
0
370
1
 48
1.0
  6
CONTINUOUS
100
AcDbPolyline
 90
41
 70
0
 10
468.94747924804687
 20
329.94247436523437
 30
0.0
 10
468.72747802734375
 20
330.05996704101562
 30
0.0
 10
468.52996826171875
 20
330.14498901367187
 30
0.0
 10
468.35498046875
 20
330.19747924804687
 30
0.0
 10
468.19998168945312
 20
330.219970703125
 30
0.0
 10
468.06747436523437
 20
330.20999145507812
 30
0.0
 10
467.95748901367187
 20
330.16998291015625
 30
0.0
 10
467.86746215820312
 20
330.09747314453125
 30
0.0
 10
467.7974853515625
 20
329.99246215820312
 30
0.0
 10
464.55245971679687
 20
324.37246704101562
 30
0.0
 10
464.49746704101562
 20
324.26248168945312
 30
0.0
 10
464.47998046875
 20
324.14996337890625
 30
0.0
 10
464.50247192382812
 20
324.03497314453125
 30
0.0
 10
464.56246948242187
 20
323.91998291015625
 30
0.0
 10
464.6624755859375
 20
323.79998779296875
 30
0.0
 10
464.79998779296875
 20
323.68246459960937
 30
0.0
 10
464.97747802734375
 20
323.55996704101562
 30
0.0
 10
465.19247436523437
 20
323.43746948242187
 30
0.0
 10
465.0899658203125
 20
323.25997924804687
 30
0.0
 10
462.61495971679687
 20
324.68997192382812
 30
0.0
 10
462.71746826171875
 20
324.864990234375
 30
0.0
 10
462.93997192382812
 20
324.7349853515625
 30
0.0
 10
463.13748168945312
 20
324.63998413085937
 30
0.0
 10
463.31497192382812
 20
324.57998657226562
 30
0.0
 10
463.46746826171875
 20
324.552490234375
 30
0.0
 10
463.59747314453125
 20
324.55746459960938
 30
0.0
 10
463.70248413085937
 20
324.59747314453125
 30
0.0
 10
463.78497314453125
 20
324.6724853515625
 30
0.0
 10
463.844970703125
 20
324.77996826171875
 30
0.0
 10
467.09246826171875
 20
330.4024658203125
 30
0.0
 10
467.13998413085937
 20
330.51748657226562
 30
0.0
 10
467.1524658203125
 20
330.63497924804687
 30
0.0
 10
467.12997436523437
 20
330.75497436523437
 30
0.0
 10
467.06997680664062
 20
330.87496948242187
 30
0.0
 10
466.9749755859375
 20
330.99746704101562
 30
0.0
 10
466.84246826171875
 20
331.11996459960937
 30
0.0
 10
466.67498779296875
 20
331.24496459960937
 30
0.0
 10
466.47247314453125
 20
331.37246704101562
 30
0.0
 10
466.57498168945312
 20
331.5474853515625
 30
0.0
 10
469.04998779296875
 20
330.11996459960937
 30
0.0
 10
468.94747924804687
 20
329.94247436523437
 30
0.0
  0
LWPOLYLINE
  5
A9
100
AcDbEntity
  8
0
 62
-1
420
0
370
1
 48
1.0
  6
CONTINUOUS
100
AcDbPolyline
 90
41
 70
0
 10
480.49996948242187
 20
317.95248413085937
 30
0.0
 10
480.38748168945312
 20
318.13247680664062
 30
0.0
 10
480.27996826171875
 20
318.27996826171875
 30
0.0
 10
480.1724853515625
 20
318.39498901367187
 30
0.0
 10
480.06747436523437
 20
318.48248291015625
 30
0.0
 10
479.96246337890625
 20
318.53497314453125
 30
0.0
 10
479.8599853515625
 20
318.55746459960937
 30
0.0
 10
479.75997924804687
 20
318.5474853515625
 30
0.0
 10
479.6624755859375
 20
318.50747680664062
 30
0.0
 10
473.969970703125
 20
315.219970703125
 30
0.0
 10
473.88247680664062
 20
315.1624755859375
 30
0.0
 10
473.81997680664062
 20
315.08746337890625
 30
0.0
 10
473.7874755859375
 20
314.989990234375
 30
0.0
 10
473.77996826171875
 20
314.87496948242187
 30
0.0
 10
473.80245971679687
 20
314.739990234375
 30
0.0
 10
473.8499755859375
 20
314.58499145507812
 30
0.0
 10
473.92745971679687
 20
314.40997314453125
 30
0.0
 10
474.02996826171875
 20
314.21746826171875
 30
0.0
 10
473.85247802734375
 20
314.114990234375
 30
0.0
 10
472.4849853515625
 20
316.4849853515625
 30
0.0
 10
472.6624755859375
 20
316.58746337890625
 30
0.0
 10
472.78497314453125
 20
316.37246704101562
 30
0.0
 10
472.90496826171875
 20
316.19247436523437
 30
0.0
 10
473.01998901367187
 20
316.052490234375
 30
0.0
 10
473.13497924804687
 20
315.95248413085937
 30
0.0
 10
473.24496459960937
 20
315.88748168945312
 30
0.0
 10
473.35498046875
 20
315.86248779296875
 30
0.0
 10
473.4599609375
 20
315.87747192382812
 30
0.0
 10
473.56246948242187
 20
315.927490234375
 30
0.0
 10
479.21746826171875
 20
319.19247436523437
 30
0.0
 10
479.31497192382812
 20
319.25497436523437
 30
0.0
 10
479.37997436523437
 20
319.34246826171875
 30
0.0
 10
479.41497802734375
 20
319.44998168945312
 30
0.0
 10
479.41998291015625
 20
319.57998657226562
 30
0.0
 10
479.39498901367187
 20
319.73248291015625
 30
0.0
 10
479.33746337890625
 20
319.907470703125
 30
0.0
 10
479.24996948242187
 20
320.10498046875
 30
0.0
 10
479.13247680664062
 20
320.32247924804687
 30
0.0
 10
479.30996704101562
 20
320.42498779296875
 30
0.0
 10
480.67745971679687
 20
318.05499267578125
 30
0.0
 10
480.49996948242187
 20
317.95248413085937
 30
0.0
  0
LWPOLYLINE
  5
AA
100
AcDbEntity
  8
0
 62
-1
420
0
370
1
 48
1.0
  6
CONTINUOUS
100
AcDbPolyline
 90
41
 70
0
 10
482.17498779296875
 20
315.05499267578125
 30
0.0
 10
482.04498291015625
 20
315.26748657226563
 30
0.0
 10
481.91998291015625
 20
315.43997192382812
 30
0.0
 10
481.79998779296875
 20
315.57748413085937
 30
0.0
 10
481.68496704101562
 20
315.67999267578125
 30
0.0
 10
481.57498168945312
 20
315.74249267578125
 30
0.0
 10
481.469970703125
 20
315.76998901367187
 30
0.0
 10
481.36996459960937
 20
315.75997924804688
 30
0.0
 10
481.27496337890625
 20
315.71246337890625
 30
0.0
 10
475.58248901367187
 20
312.427490234375
 30
0.0
 10
475.48748779296875
 20
312.364990234375
 30
0.0
 10
475.4224853515625
 20
312.27996826171875
 30
0.0
 10
475.38998413085937
 20
312.1724853515625
 30
0.0
 10
475.38998413085937
 20
312.04498291015625
 30
0.0
 10
475.4224853515625
 20
311.89498901367187
 30
0.0
 10
475.4849853515625
 20
311.7249755859375
 30
0.0
 10
475.57998657226562
 20
311.532470703125
 30
0.0
 10
475.70498657226562
 20
311.31997680664062
 30
0.0
 10
475.5274658203125
 20
311.21746826171875
 30
0.0
 10
474.15997314453125
 20
313.58499145507812
 30
0.0
 10
474.33746337890625
 20
313.68746948242187
 30
0.0
 10
474.44497680664062
 20
313.49746704101562
 30
0.0
 10
474.55245971679687
 20
313.3399658203125
 30
0.0
 10
474.657470703125
 20
313.219970703125
 30
0.0
 10
474.76248168945312
 20
313.13247680664062
 30
0.0
 10
474.86746215820312
 20
313.07998657226562
 30
0.0
 10
474.969970703125
 20
313.06497192382812
 30
0.0
 10
475.07247924804687
 20
313.08248901367187
 30
0.0
 10
475.17498779296875
 20
313.13497924804687
 30
0.0
 10
480.86746215820312
 20
316.41998291015625
 30
0.0
 10
480.96746826171875
 20
316.4749755859375
 30
0.0
 10
481.0374755859375
 20
316.5474853515625
 30
0.0
 10
481.07748413085937
 20
316.64248657226562
 30
0.0
 10
481.0849609375
 20
316.75747680664062
 30
0.0
 10
481.06246948242187
 20
316.89248657226563
 30
0.0
 10
481.00747680664062
 20
317.04998779296875
 30
0.0
 10
480.9224853515625
 20
317.2249755859375
 30
0.0
 10
480.80746459960937
 20
317.4224853515625
 30
0.0
 10
480.98248291015625
 20
317.52496337890625
 30
0.0
 10
482.3499755859375
 20
315.157470703125
 30
0.0
 10
482.17498779296875
 20
315.05499267578125
 30
0.0
  0
LWPOLYLINE
  5
AB
100
AcDbEntity
  8
0
 62
-1
420
0
370
1
 48
1.0
  6
CONTINUOUS
100
AcDbPolyline
 90
41
 70
0
 10
485.39498901367187
 20
301.93496704101562
 30
0.0
 10
485.38748168945312
 20
302.19247436523437
 30
0.0
 10
485.36996459960937
 20
302.41497802734375
 30
0.0
 10
485.33746337890625
 20
302.60247802734375
 30
0.0
 10
485.29248046875
 20
302.75247192382812
 30
0.0
 10
485.2349853515625
 20
302.86749267578125
 30
0.0
 10
485.16497802734375
 20
302.94747924804687
 30
0.0
 10
485.08248901367187
 20
302.989990234375
 30
0.0
 10
484.98748779296875
 20
302.99746704101562
 30
0.0
 10
478.37246704101562
 20
302.99746704101562
 30
0.0
 10
478.25997924804687
 20
302.989990234375
 30
0.0
 10
478.1624755859375
 20
302.94747924804687
 30
0.0
 10
478.07998657226562
 20
302.86749267578125
 30
0.0
 10
478.01748657226562
 20
302.75247192382812
 30
0.0
 10
477.969970703125
 20
302.60247802734375
 30
0.0
 10
477.93746948242187
 20
302.41497802734375
 30
0.0
 10
477.9224853515625
 20
302.19247436523437
 30
0.0
 10
477.92498779296875
 20
301.93496704101562
 30
0.0
 10
477.719970703125
 20
301.93496704101562
 30
0.0
 10
477.719970703125
 20
304.83248901367187
 30
0.0
 10
477.92498779296875
 20
304.83248901367187
 30
0.0
 10
477.9224853515625
 20
304.60247802734375
 30
0.0
 10
477.93496704101562
 20
304.4024658203125
 30
0.0
 10
477.96246337890625
 20
304.22998046875
 30
0.0
 10
478.00497436523437
 20
304.08746337890625
 30
0.0
 10
478.06497192382812
 20
303.9749755859375
 30
0.0
 10
478.13748168945312
 20
303.89248657226562
 30
0.0
 10
478.22747802734375
 20
303.83746337890625
 30
0.0
 10
478.33248901367187
 20
303.81246948242187
 30
0.0
 10
484.98748779296875
 20
303.81246948242187
 30
0.0
 10
485.08248901367187
 20
303.81997680664062
 30
0.0
 10
485.16497802734375
 20
303.8599853515625
 30
0.0
 10
485.2349853515625
 20
303.93746948242187
 30
0.0
 10
485.29248046875
 20
304.0474853515625
 30
0.0
 10
485.33746337890625
 20
304.19247436523437
 30
0.0
 10
485.36996459960937
 20
304.36996459960937
 30
0.0
 10
485.38748168945312
 20
304.58499145507812
 30
0.0
 10
485.39498901367187
 20
304.83248901367187
 30
0.0
 10
485.5999755859375
 20
304.83248901367187
 30
0.0
 10
485.5999755859375
 20
301.93496704101562
 30
0.0
 10
485.39498901367187
 20
301.93496704101562
 30
0.0
  0
LWPOLYLINE
  5
AC
100
AcDbEntity
  8
0
 62
-1
420
0
370
1
 48
1.0
  6
CONTINUOUS
100
AcDbPolyline
 90
41
 70
0
 10
485.39498901367187
 20
295.157470703125
 30
0.0
 10
485.3974609375
 20
295.407470703125
 30
0.0
 10
485.38497924804687
 20
295.62246704101562
 30
0.0
 10
485.35748291015625
 20
295.80499267578125
 30
0.0
 10
485.31497192382812
 20
295.95498657226562
 30
0.0
 10
485.25497436523437
 20
296.06997680664062
 30
0.0
 10
485.18246459960937
 20
296.1524658203125
 30
0.0
 10
485.09246826171875
 20
296.20248413085937
 30
0.0
 10
484.98748779296875
 20
296.219970703125
 30
0.0
 10
478.33248901367187
 20
296.219970703125
 30
0.0
 10
478.22747802734375
 20
296.20248413085937
 30
0.0
 10
478.13748168945312
 20
296.1524658203125
 30
0.0
 10
478.06497192382812
 20
296.06997680664062
 30
0.0
 10
478.00497436523437
 20
295.95498657226562
 30
0.0
 10
477.96246337890625
 20
295.80499267578125
 30
0.0
 10
477.93496704101562
 20
295.62246704101562
 30
0.0
 10
477.9224853515625
 20
295.407470703125
 30
0.0
 10
477.92498779296875
 20
295.157470703125
 30
0.0
 10
477.719970703125
 20
295.157470703125
 30
0.0
 10
477.719970703125
 20
298.09747314453125
 30
0.0
 10
477.92498779296875
 20
298.09747314453125
 30
0.0
 10
477.9224853515625
 20
297.8499755859375
 30
0.0
 10
477.93496704101562
 20
297.63247680664062
 30
0.0
 10
477.96246337890625
 20
297.44998168945312
 30
0.0
 10
478.00497436523437
 20
297.302490234375
 30
0.0
 10
478.06497192382812
 20
297.18746948242187
 30
0.0
 10
478.13748168945312
 20
297.10247802734375
 30
0.0
 10
478.22747802734375
 20
297.05499267578125
 30
0.0
 10
478.33248901367187
 20
297.0374755859375
 30
0.0
 10
484.98748779296875
 20
297.0374755859375
 30
0.0
 10
485.08248901367187
 20
297.05499267578125
 30
0.0
 10
485.16497802734375
 20
297.10247802734375
 30
0.0
 10
485.2349853515625
 20
297.18746948242187
 30
0.0
 10
485.29248046875
 20
297.302490234375
 30
0.0
 10
485.33746337890625
 20
297.44998168945312
 30
0.0
 10
485.36996459960937
 20
297.63247680664062
 30
0.0
 10
485.38748168945312
 20
297.8499755859375
 30
0.0
 10
485.39498901367187
 20
298.09747314453125
 30
0.0
 10
485.5999755859375
 20
298.09747314453125
 30
0.0
 10
485.5999755859375
 20
295.157470703125
 30
0.0
 10
485.39498901367187
 20
295.157470703125
 30
0.0
  0
LWPOLYLINE
  5
AD
100
AcDbEntity
  8
0
 62
-1
420
0
370
1
 48
1.0
  6
CONTINUOUS
100
AcDbPolyline
 90
41
 70
0
 10
485.39498901367187
 20
298.50497436523437
 30
0.0
 10
485.38748168945312
 20
298.782470703125
 30
0.0
 10
485.36996459960937
 20
299.01748657226562
 30
0.0
 10
485.33746337890625
 20
299.2149658203125
 30
0.0
 10
485.29248046875
 20
299.37246704101562
 30
0.0
 10
485.2349853515625
 20
299.489990234375
 30
0.0
 10
485.16497802734375
 20
299.56997680664062
 30
0.0
 10
485.08248901367187
 20
299.60748291015625
 30
0.0
 10
484.98748779296875
 20
299.60748291015625
 30
0.0
 10
478.29248046875
 20
299.60748291015625
 30
0.0
 10
478.20748901367187
 20
299.5899658203125
 30
0.0
 10
478.13247680664062
 20
299.5374755859375
 30
0.0
 10
478.06747436523437
 20
299.45248413085937
 30
0.0
 10
478.01748657226562
 20
299.33248901367187
 30
0.0
 10
477.97747802734375
 20
299.177490234375
 30
0.0
 10
477.94747924804687
 20
298.98748779296875
 30
0.0
 10
477.92996215820312
 20
298.76248168945312
 30
0.0
 10
477.92498779296875
 20
298.50497436523437
 30
0.0
 10
477.719970703125
 20
298.50497436523437
 30
0.0
 10
477.719970703125
 20
301.5274658203125
 30
0.0
 10
477.92498779296875
 20
301.5274658203125
 30
0.0
 10
477.91998291015625
 20
301.26998901367187
 30
0.0
 10
477.92996215820312
 20
301.04498291015625
 30
0.0
 10
477.94998168945312
 20
300.85498046875
 30
0.0
 10
477.9849853515625
 20
300.69998168945312
 30
0.0
 10
478.032470703125
 20
300.57998657226563
 30
0.0
 10
478.09246826171875
 20
300.49496459960937
 30
0.0
 10
478.16497802734375
 20
300.44247436523437
 30
0.0
 10
478.24996948242187
 20
300.42498779296875
 30
0.0
 10
484.94497680664062
 20
300.42498779296875
 30
0.0
 10
485.04998779296875
 20
300.44247436523437
 30
0.0
 10
485.14248657226562
 20
300.49496459960937
 30
0.0
 10
485.219970703125
 20
300.57998657226563
 30
0.0
 10
485.282470703125
 20
300.69998168945312
 30
0.0
 10
485.33248901367187
 20
300.85498046875
 30
0.0
 10
485.36746215820313
 20
301.04498291015625
 30
0.0
 10
485.38748168945312
 20
301.26998901367187
 30
0.0
 10
485.39498901367187
 20
301.5274658203125
 30
0.0
 10
485.5999755859375
 20
301.5274658203125
 30
0.0
 10
485.5999755859375
 20
298.50497436523437
 30
0.0
 10
485.39498901367187
 20
298.50497436523437
 30
0.0
  0
LWPOLYLINE
  5
AE
100
AcDbEntity
  8
0
 62
-1
420
0
370
1
 48
1.0
  6
CONTINUOUS
100
AcDbPolyline
 90
44
 70
0
 10
478.62747192382812
 20
278.38247680664062
 30
0.0
 10
478.44998168945312
 20
278.4849853515625
 30
0.0
 10
478.5274658203125
 20
278.62997436523437
 30
0.0
 10
478.57998657226562
 20
278.76498413085937
 30
0.0
 10
478.61248779296875
 20
278.89248657226562
 30
0.0
 10
478.62496948242187
 20
279.00997924804688
 30
0.0
 10
478.61248779296875
 20
279.11749267578125
 30
0.0
 10
478.57998657226562
 20
279.2149658203125
 30
0.0
 10
478.5274658203125
 20
279.302490234375
 30
0.0
 10
478.44998168945312
 20
279.37997436523437
 30
0.0
 10
473.13247680664062
 20
284.61996459960937
 30
0.0
 10
473.47747802734375
 20
285.219970703125
 30
0.0
 10
480.8974609375
 20
283.29498291015625
 30
0.0
 10
480.97747802734375
 20
283.282470703125
 30
0.0
 10
481.05996704101562
 20
283.29248046875
 30
0.0
 10
481.13998413085937
 20
283.32498168945312
 30
0.0
 10
481.219970703125
 20
283.37997436523437
 30
0.0
 10
481.2974853515625
 20
283.45748901367187
 30
0.0
 10
481.37747192382812
 20
283.55746459960937
 30
0.0
 10
481.45498657226562
 20
283.67999267578125
 30
0.0
 10
481.532470703125
 20
283.82247924804688
 30
0.0
 10
481.7099609375
 20
283.719970703125
 30
0.0
 10
480.5474853515625
 20
281.70498657226562
 30
0.0
 10
480.36996459960937
 20
281.80746459960937
 30
0.0
 10
480.47998046875
 20
281.99496459960937
 30
0.0
 10
480.55996704101562
 20
282.157470703125
 30
0.0
 10
480.6099853515625
 20
282.2974853515625
 30
0.0
 10
480.62496948242187
 20
282.41497802734375
 30
0.0
 10
480.61248779296875
 20
282.50747680664062
 30
0.0
 10
480.56747436523437
 20
282.57748413085937
 30
0.0
 10
480.49246215820312
 20
282.62496948242187
 30
0.0
 10
480.38497924804687
 20
282.64749145507812
 30
0.0
 10
473.68746948242187
 20
284.43997192382812
 30
0.0
 10
478.57748413085937
 20
279.68496704101562
 30
0.0
 10
478.67745971679687
 20
279.60748291015625
 30
0.0
 10
478.77496337890625
 20
279.56497192382812
 30
0.0
 10
478.86996459960937
 20
279.55499267578125
 30
0.0
 10
478.9649658203125
 20
279.57998657226562
 30
0.0
 10
479.05746459960937
 20
279.63497924804687
 30
0.0
 10
479.14996337890625
 20
279.7249755859375
 30
0.0
 10
479.23995971679687
 20
279.84747314453125
 30
0.0
 10
479.32998657226562
 20
280.00497436523437
 30
0.0
 10
479.50497436523437
 20
279.9024658203125
 30
0.0
 10
478.62747192382812
 20
278.38247680664062
 30
0.0
  0
LWPOLYLINE
  5
AF
100
AcDbEntity
  8
0
 62
-1
420
0
370
1
 48
1.0
  6
CONTINUOUS
100
AcDbPolyline
 90
41
 70
0
 10
481.55496215820312
 20
283.85748291015625
 30
0.0
 10
481.64248657226563
 20
284.0274658203125
 30
0.0
 10
481.70748901367187
 20
284.17999267578125
 30
0.0
 10
481.74496459960937
 20
284.31497192382813
 30
0.0
 10
481.75747680664062
 20
284.43496704101562
 30
0.0
 10
481.74496459960937
 20
284.53997802734375
 30
0.0
 10
481.70498657226562
 20
284.62747192382812
 30
0.0
 10
481.64248657226563
 20
284.69998168945312
 30
0.0
 10
481.55245971679687
 20
284.75497436523437
 30
0.0
 10
475.8599853515625
 20
288.03997802734375
 30
0.0
 10
475.75747680664062
 20
288.0899658203125
 30
0.0
 10
475.6524658203125
 20
288.10247802734375
 30
0.0
 10
475.54248046875
 20
288.07498168945312
 30
0.0
 10
475.42996215820312
 20
288.00747680664062
 30
0.0
 10
475.31246948242187
 20
287.9024658203125
 30
0.0
 10
475.19247436523437
 20
287.75747680664062
 30
0.0
 10
475.06747436523437
 20
287.57247924804687
 30
0.0
 10
474.93997192382812
 20
287.34747314453125
 30
0.0
 10
474.76498413085937
 20
287.44747924804687
 30
0.0
 10
476.21246337890625
 20
289.95748901367187
 30
0.0
 10
476.38998413085937
 20
289.85748291015625
 30
0.0
 10
476.2724609375
 20
289.63748168945312
 30
0.0
 10
476.18496704101562
 20
289.44247436523437
 30
0.0
 10
476.12496948242187
 20
289.26998901367187
 30
0.0
 10
476.094970703125
 20
289.11996459960937
 30
0.0
 10
476.094970703125
 20
288.99249267578125
 30
0.0
 10
476.12246704101562
 20
288.88748168945312
 30
0.0
 10
476.18246459960937
 20
288.80746459960937
 30
0.0
 10
476.26998901367187
 20
288.74746704101562
 30
0.0
 10
481.9599609375
 20
285.46246337890625
 30
0.0
 10
482.05996704101562
 20
285.407470703125
 30
0.0
 10
482.1624755859375
 20
285.38748168945312
 30
0.0
 10
482.26248168945312
 20
285.39749145507812
 30
0.0
 10
482.36248779296875
 20
285.44247436523437
 30
0.0
 10
482.4599609375
 20
285.51998901367187
 30
0.0
 10
482.55996704101562
 20
285.62747192382812
 30
0.0
 10
482.65997314453125
 20
285.76998901367187
 30
0.0
 10
482.75747680664062
 20
285.94497680664062
 30
0.0
 10
482.93496704101562
 20
285.84246826171875
 30
0.0
 10
481.72998046875
 20
283.75747680664062
 30
0.0
 10
481.55496215820312
 20
283.85748291015625
 30
0.0
  0
LWPOLYLINE
  5
B0
100
AcDbEntity
  8
0
 62
-1
420
0
370
1
 48
1.0
  6
CONTINUOUS
100
AcDbPolyline
 90
44
 70
0
 10
464.67745971679687
 20
267.36749267578125
 30
0.0
 10
464.57498168945312
 20
267.54248046875
 30
0.0
 10
464.76748657226562
 20
267.66998291015625
 30
0.0
 10
464.93246459960937
 20
267.79248046875
 30
0.0
 10
465.06747436523437
 20
267.907470703125
 30
0.0
 10
465.1724853515625
 20
268.01748657226562
 30
0.0
 10
465.24996948242187
 20
268.12246704101562
 30
0.0
 10
465.29998779296875
 20
268.21746826171875
 30
0.0
 10
465.31997680664062
 20
268.30746459960937
 30
0.0
 10
465.31246948242187
 20
268.39248657226563
 30
0.0
 10
463.6724853515625
 20
275.88497924804687
 30
0.0
 10
464.13247680664062
 20
276.14996337890625
 30
0.0
 10
469.80245971679687
 20
270.9849853515625
 30
0.0
 10
469.87246704101562
 20
270.927490234375
 30
0.0
 10
469.96246337890625
 20
270.89248657226562
 30
0.0
 10
470.06497192382812
 20
270.87997436523437
 30
0.0
 10
470.18746948242187
 20
270.88998413085937
 30
0.0
 10
470.32247924804687
 20
270.9224853515625
 30
0.0
 10
470.47747802734375
 20
270.97747802734375
 30
0.0
 10
470.6474609375
 20
271.05746459960937
 30
0.0
 10
470.83248901367187
 20
271.157470703125
 30
0.0
 10
470.93496704101562
 20
270.97998046875
 30
0.0
 10
468.74246215820312
 20
269.7149658203125
 30
0.0
 10
468.64248657226562
 20
269.88998413085937
 30
0.0
 10
468.79998779296875
 20
269.99746704101562
 30
0.0
 10
468.92498779296875
 20
270.0999755859375
 30
0.0
 10
469.01998901367187
 20
270.19747924804687
 30
0.0
 10
469.0849609375
 20
270.2874755859375
 30
0.0
 10
469.11996459960937
 20
270.37246704101562
 30
0.0
 10
469.12246704101562
 20
270.45248413085937
 30
0.0
 10
469.094970703125
 20
270.52499389648437
 30
0.0
 10
469.0374755859375
 20
270.59246826171875
 30
0.0
 10
464.21746826171875
 20
275.01998901367187
 30
0.0
 10
465.594970703125
 20
268.55499267578125
 30
0.0
 10
465.64248657226562
 20
268.4849853515625
 30
0.0
 10
465.71746826171875
 20
268.43997192382812
 30
0.0
 10
465.81497192382812
 20
268.42498779296875
 30
0.0
 10
465.93496704101562
 20
268.43496704101562
 30
0.0
 10
466.08248901367187
 20
268.47247314453125
 30
0.0
 10
466.24996948242187
 20
268.5374755859375
 30
0.0
 10
466.44497680664062
 20
268.62997436523437
 30
0.0
 10
466.6624755859375
 20
268.74746704101562
 30
0.0
 10
466.76498413085937
 20
268.56997680664062
 30
0.0
 10
464.67745971679687
 20
267.36749267578125
 30
0.0
  0
LWPOLYLINE
  5
B1
100
AcDbEntity
  8
0
 62
-1
420
0
370
1
 48
1.0
  6
CONTINUOUS
100
AcDbPolyline
 90
41
 70
0
 10
445.35748291015625
 20
264.60748291015625
 30
0.0
 10
445.6524658203125
 20
264.61248779296875
 30
0.0
 10
445.907470703125
 20
264.62997436523437
 30
0.0
 10
446.11746215820313
 20
264.65997314453125
 30
0.0
 10
446.2874755859375
 20
264.69998168945312
 30
0.0
 10
446.41497802734375
 20
264.74996948242187
 30
0.0
 10
446.49996948242187
 20
264.81497192382812
 30
0.0
 10
446.54248046875
 20
264.88998413085937
 30
0.0
 10
446.54248046875
 20
264.9749755859375
 30
0.0
 10
446.54248046875
 20
271.66998291015625
 30
0.0
 10
446.52496337890625
 20
271.76498413085937
 30
0.0
 10
446.46746826171875
 20
271.8499755859375
 30
0.0
 10
446.37496948242187
 20
271.91998291015625
 30
0.0
 10
446.24746704101562
 20
271.97747802734375
 30
0.0
 10
446.07998657226562
 20
272.02249145507812
 30
0.0
 10
445.87496948242187
 20
272.05499267578125
 30
0.0
 10
445.63497924804687
 20
272.07247924804687
 30
0.0
 10
445.35748291015625
 20
272.07998657226563
 30
0.0
 10
445.35748291015625
 20
272.282470703125
 30
0.0
 10
448.62496948242187
 20
272.282470703125
 30
0.0
 10
448.62496948242187
 20
272.07998657226563
 30
0.0
 10
448.32748413085937
 20
272.08248901367187
 30
0.0
 10
448.06997680664062
 20
272.06747436523437
 30
0.0
 10
447.85247802734375
 20
272.03997802734375
 30
0.0
 10
447.67498779296875
 20
271.99746704101562
 30
0.0
 10
447.5374755859375
 20
271.93746948242187
 30
0.0
 10
447.43997192382812
 20
271.864990234375
 30
0.0
 10
447.37997436523437
 20
271.77499389648437
 30
0.0
 10
447.3599853515625
 20
271.66998291015625
 30
0.0
 10
447.3599853515625
 20
264.93496704101562
 30
0.0
 10
447.37246704101562
 20
264.85748291015625
 30
0.0
 10
447.40997314453125
 20
264.79248046875
 30
0.0
 10
447.4749755859375
 20
264.7349853515625
 30
0.0
 10
447.56246948242187
 20
264.68997192382812
 30
0.0
 10
447.67745971679687
 20
264.65496826171875
 30
0.0
 10
447.81747436523437
 20
264.62747192382812
 30
0.0
 10
447.98248291015625
 20
264.61248779296875
 30
0.0
 10
448.17498779296875
 20
264.60748291015625
 30
0.0
 10
448.17498779296875
 20
264.40496826171875
 30
0.0
 10
445.35748291015625
 20
264.40496826171875
 30
0.0
 10
445.35748291015625
 20
264.60748291015625
 30
0.0
  0
LWPOLYLINE
  5
B2
100
AcDbEntity
  8
0
 62
-1
420
0
370
1
 48
1.0
  6
CONTINUOUS
100
AcDbPolyline
 90
45
 70
0
 10
448.2149658203125
 20
264.40496826171875
 30
0.0
 10
448.2149658203125
 20
264.60748291015625
 30
0.0
 10
448.38748168945312
 20
264.6099853515625
 30
0.0
 10
448.53997802734375
 20
264.61996459960937
 30
0.0
 10
448.66998291015625
 20
264.63497924804687
 30
0.0
 10
448.7774658203125
 20
264.657470703125
 30
0.0
 10
448.86248779296875
 20
264.68746948242187
 30
0.0
 10
448.92745971679687
 20
264.72247314453125
 30
0.0
 10
448.97247314453125
 20
264.76498413085937
 30
0.0
 10
448.99246215820312
 20
264.81246948242187
 30
0.0
 10
450.90997314453125
 20
272.282470703125
 30
0.0
 10
451.76748657226563
 20
272.282470703125
 30
0.0
 10
453.64498901367187
 20
265.01748657226562
 30
0.0
 10
453.67996215820313
 20
264.92999267578125
 30
0.0
 10
453.73995971679687
 20
264.85498046875
 30
0.0
 10
453.82748413085937
 20
264.7874755859375
 30
0.0
 10
453.94247436523437
 20
264.72998046875
 30
0.0
 10
454.08248901367187
 20
264.68496704101562
 30
0.0
 10
454.24996948242187
 20
264.64749145507812
 30
0.0
 10
454.44497680664062
 20
264.62246704101562
 30
0.0
 10
454.66748046875
 20
264.60748291015625
 30
0.0
 10
454.66748046875
 20
264.40496826171875
 30
0.0
 10
452.01248168945312
 20
264.40496826171875
 30
0.0
 10
452.01248168945312
 20
264.60748291015625
 30
0.0
 10
452.22998046875
 20
264.61248779296875
 30
0.0
 10
452.41748046875
 20
264.62747192382812
 30
0.0
 10
452.57247924804687
 20
264.65496826171875
 30
0.0
 10
452.69747924804687
 20
264.68997192382812
 30
0.0
 10
452.7874755859375
 20
264.7349853515625
 30
0.0
 10
452.84747314453125
 20
264.79248046875
 30
0.0
 10
452.87496948242187
 20
264.85748291015625
 30
0.0
 10
452.86996459960937
 20
264.93496704101562
 30
0.0
 10
451.23748779296875
 20
271.5899658203125
 30
0.0
 10
451.07498168945312
 20
271.5899658203125
 30
0.0
 10
449.3599853515625
 20
264.85247802734375
 30
0.0
 10
449.36495971679687
 20
264.80499267578125
 30
0.0
 10
449.3974609375
 20
264.75997924804688
 30
0.0
 10
449.4599609375
 20
264.72247314453125
 30
0.0
 10
449.55245971679687
 20
264.68997192382812
 30
0.0
 10
449.67498779296875
 20
264.6624755859375
 30
0.0
 10
449.82748413085937
 20
264.63748168945312
 30
0.0
 10
450.00747680664062
 20
264.61996459960937
 30
0.0
 10
450.21746826171875
 20
264.60748291015625
 30
0.0
 10
450.21746826171875
 20
264.40496826171875
 30
0.0
 10
448.2149658203125
 20
264.40496826171875
 30
0.0
  0
LWPOLYLINE
  5
B3
100
AcDbEntity
  8
0
 62
-1
420
0
370
1
 48
1.0
  6
CONTINUOUS
100
AcDbPolyline
 90
41
 70
0
 10
430.05746459960937
 20
270.6524658203125
 30
0.0
 10
430.19497680664062
 20
270.56997680664062
 30
0.0
 10
430.31997680664062
 20
270.50747680664062
 30
0.0
 10
430.42996215820312
 20
270.469970703125
 30
0.0
 10
430.52996826171875
 20
270.45248413085937
 30
0.0
 10
430.61248779296875
 20
270.45748901367187
 30
0.0
 10
430.68496704101562
 20
270.4849853515625
 30
0.0
 10
430.74246215820312
 20
270.5374755859375
 30
0.0
 10
430.78497314453125
 20
270.6099853515625
 30
0.0
 10
434.19497680664062
 20
276.51498413085937
 30
0.0
 10
434.23748779296875
 20
276.5899658203125
 30
0.0
 10
434.25247192382812
 20
276.66497802734375
 30
0.0
 10
434.239990234375
 20
276.739990234375
 30
0.0
 10
434.20248413085937
 20
276.81497192382812
 30
0.0
 10
434.13998413085937
 20
276.88998413085937
 30
0.0
 10
434.04998779296875
 20
276.96746826171875
 30
0.0
 10
433.93496704101562
 20
277.04498291015625
 30
0.0
 10
433.79248046875
 20
277.12246704101562
 30
0.0
 10
433.89498901367187
 20
277.29998779296875
 30
0.0
 10
435.802490234375
 20
276.19747924804687
 30
0.0
 10
435.69998168945312
 20
276.02249145507812
 30
0.0
 10
435.5224609375
 20
276.11749267578125
 30
0.0
 10
435.364990234375
 20
276.18746948242187
 30
0.0
 10
435.22747802734375
 20
276.2349853515625
 30
0.0
 10
435.10748291015625
 20
276.25997924804688
 30
0.0
 10
435.00497436523437
 20
276.25747680664062
 30
0.0
 10
434.9224853515625
 20
276.23248291015625
 30
0.0
 10
434.85748291015625
 20
276.18496704101562
 30
0.0
 10
434.80996704101562
 20
276.11248779296875
 30
0.0
 10
431.4224853515625
 20
270.24249267578125
 30
0.0
 10
431.37997436523437
 20
270.16998291015625
 30
0.0
 10
431.35748291015625
 20
270.09747314453125
 30
0.0
 10
431.3599853515625
 20
270.0274658203125
 30
0.0
 10
431.38748168945312
 20
269.95748901367187
 30
0.0
 10
431.43496704101562
 20
269.88998413085937
 30
0.0
 10
431.50497436523437
 20
269.82247924804688
 30
0.0
 10
431.5999755859375
 20
269.75747680664062
 30
0.0
 10
431.71746826171875
 20
269.69497680664062
 30
0.0
 10
431.614990234375
 20
269.51748657226562
 30
0.0
 10
429.95498657226563
 20
270.47747802734375
 30
0.0
 10
430.05746459960937
 20
270.6524658203125
 30
0.0
  0
LWPOLYLINE
  5
B4
100
AcDbEntity
  8
0
 62
-1
420
0
370
1
 48
1.0
  6
CONTINUOUS
100
AcDbPolyline
 90
41
 70
0
 10
428.21746826171875
 20
271.7149658203125
 30
0.0
 10
428.35748291015625
 20
271.62997436523437
 30
0.0
 10
428.48248291015625
 20
271.56997680664062
 30
0.0
 10
428.594970703125
 20
271.53497314453125
 30
0.0
 10
428.69497680664062
 20
271.52249145507812
 30
0.0
 10
428.782470703125
 20
271.532470703125
 30
0.0
 10
428.85748291015625
 20
271.56747436523437
 30
0.0
 10
428.91998291015625
 20
271.62496948242187
 30
0.0
 10
428.96746826171875
 20
271.70748901367187
 30
0.0
 10
432.35498046875
 20
277.57498168945312
 30
0.0
 10
432.3974609375
 20
277.64996337890625
 30
0.0
 10
432.41497802734375
 20
277.72747802734375
 30
0.0
 10
432.40496826171875
 20
277.80746459960937
 30
0.0
 10
432.36996459960937
 20
277.88748168945312
 30
0.0
 10
432.30996704101562
 20
277.96746826171875
 30
0.0
 10
432.2249755859375
 20
278.04998779296875
 30
0.0
 10
432.11248779296875
 20
278.13497924804687
 30
0.0
 10
431.9749755859375
 20
278.219970703125
 30
0.0
 10
432.05496215820313
 20
278.36248779296875
 30
0.0
 10
433.85748291015625
 20
277.31997680664062
 30
0.0
 10
433.75747680664062
 20
277.14498901367187
 30
0.0
 10
433.59747314453125
 20
277.22998046875
 30
0.0
 10
433.45498657226562
 20
277.29248046875
 30
0.0
 10
433.32998657226562
 20
277.32998657226562
 30
0.0
 10
433.2249755859375
 20
277.344970703125
 30
0.0
 10
433.13497924804687
 20
277.33746337890625
 30
0.0
 10
433.06246948242187
 20
277.30499267578125
 30
0.0
 10
433.00997924804687
 20
277.24996948242187
 30
0.0
 10
432.97247314453125
 20
277.1724853515625
 30
0.0
 10
429.60498046875
 20
271.3399658203125
 30
0.0
 10
429.56246948242187
 20
271.26498413085937
 30
0.0
 10
429.5474853515625
 20
271.18496704101562
 30
0.0
 10
429.55996704101562
 20
271.10748291015625
 30
0.0
 10
429.5999755859375
 20
271.02499389648437
 30
0.0
 10
429.66497802734375
 20
270.93997192382812
 30
0.0
 10
429.75497436523437
 20
270.85498046875
 30
0.0
 10
429.87496948242187
 20
270.76498413085937
 30
0.0
 10
430.01998901367187
 20
270.67498779296875
 30
0.0
 10
429.91998291015625
 20
270.49746704101562
 30
0.0
 10
428.114990234375
 20
271.5374755859375
 30
0.0
 10
428.21746826171875
 20
271.7149658203125
 30
0.0
  0
LWPOLYLINE
  5
B5
100
AcDbEntity
  8
0
 62
-1
420
0
370
1
 48
1.0
  6
CONTINUOUS
100
AcDbPolyline
 90
45
 70
0
 10
431.57998657226562
 20
269.5374755859375
 30
0.0
 10
431.68246459960937
 20
269.7149658203125
 30
0.0
 10
431.79248046875
 20
269.657470703125
 30
0.0
 10
431.8974609375
 20
269.614990234375
 30
0.0
 10
431.989990234375
 20
269.5899658203125
 30
0.0
 10
432.07748413085937
 20
269.58248901367187
 30
0.0
 10
432.15496826171875
 20
269.5899658203125
 30
0.0
 10
432.2249755859375
 20
269.614990234375
 30
0.0
 10
432.2874755859375
 20
269.65496826171875
 30
0.0
 10
432.3399658203125
 20
269.71249389648437
 30
0.0
 10
437.4649658203125
 20
275.239990234375
 30
0.0
 10
438.13748168945312
 20
274.8499755859375
 30
0.0
 10
435.9124755859375
 20
267.64999389648437
 30
0.0
 10
435.89248657226562
 20
267.57247924804687
 30
0.0
 10
435.89498901367187
 20
267.49496459960937
 30
0.0
 10
435.9224853515625
 20
267.4124755859375
 30
0.0
 10
435.9749755859375
 20
267.32998657226562
 30
0.0
 10
436.04998779296875
 20
267.24746704101562
 30
0.0
 10
436.14996337890625
 20
267.15997314453125
 30
0.0
 10
436.2724609375
 20
267.06997680664062
 30
0.0
 10
436.41998291015625
 20
266.97998046875
 30
0.0
 10
436.31747436523437
 20
266.802490234375
 30
0.0
 10
434.40997314453125
 20
267.90496826171875
 30
0.0
 10
434.50997924804687
 20
268.08248901367187
 30
0.0
 10
434.6624755859375
 20
267.99996948242187
 30
0.0
 10
434.7974853515625
 20
267.93997192382812
 30
0.0
 10
434.91748046875
 20
267.89999389648438
 30
0.0
 10
435.01998901367187
 20
267.88247680664062
 30
0.0
 10
435.10748291015625
 20
267.88497924804687
 30
0.0
 10
435.17996215820312
 20
267.907470703125
 30
0.0
 10
435.2349853515625
 20
267.95248413085937
 30
0.0
 10
435.27496337890625
 20
268.01748657226562
 30
0.0
 10
437.32998657226562
 20
274.51498413085937
 30
0.0
 10
437.25997924804687
 20
274.55499267578125
 30
0.0
 10
432.62496948242187
 20
269.5474853515625
 30
0.0
 10
432.58746337890625
 20
269.47998046875
 30
0.0
 10
432.57748413085937
 20
269.40997314453125
 30
0.0
 10
432.59246826171875
 20
269.33499145507812
 30
0.0
 10
432.63497924804687
 20
269.25997924804687
 30
0.0
 10
432.70248413085937
 20
269.177490234375
 30
0.0
 10
432.79498291015625
 20
269.094970703125
 30
0.0
 10
432.91497802734375
 20
269.00747680664062
 30
0.0
 10
433.06246948242187
 20
268.91748046875
 30
0.0
 10
432.9599609375
 20
268.74249267578125
 30
0.0
 10
431.57998657226562
 20
269.5374755859375
 30
0.0
  0
LWPOLYLINE
  5
B6
100
AcDbEntity
  8
0
 62
-1
420
0
370
1
 48
1.0
  6
CONTINUOUS
100
AcDbPolyline
 90
41
 70
0
 10
418.56997680664062
 20
283.677490234375
 30
0.0
 10
418.62246704101562
 20
283.59747314453125
 30
0.0
 10
418.67498779296875
 20
283.532470703125
 30
0.0
 10
418.72998046875
 20
283.48248291015625
 30
0.0
 10
418.78497314453125
 20
283.44998168945312
 30
0.0
 10
418.84246826171875
 20
283.42999267578125
 30
0.0
 10
418.9024658203125
 20
283.427490234375
 30
0.0
 10
418.96246337890625
 20
283.43997192382812
 30
0.0
 10
419.0224609375
 20
283.46746826171875
 30
0.0
 10
424.92498779296875
 20
286.87496948242187
 30
0.0
 10
424.99496459960937
 20
286.92498779296875
 30
0.0
 10
425.04998779296875
 20
286.98248291015625
 30
0.0
 10
425.0849609375
 20
287.0474853515625
 30
0.0
 10
425.10247802734375
 20
287.11996459960937
 30
0.0
 10
425.10247802734375
 20
287.19747924804687
 30
0.0
 10
425.08746337890625
 20
287.28497314453125
 30
0.0
 10
425.052490234375
 20
287.37997436523437
 30
0.0
 10
424.99996948242187
 20
287.48248291015625
 30
0.0
 10
425.17498779296875
 20
287.58499145507812
 30
0.0
 10
426.13497924804687
 20
285.92498779296875
 30
0.0
 10
425.95748901367187
 20
285.82247924804687
 30
0.0
 10
425.86996459960937
 20
285.97998046875
 30
0.0
 10
425.78497314453125
 20
286.10748291015625
 30
0.0
 10
425.69998168945312
 20
286.20498657226562
 30
0.0
 10
425.614990234375
 20
286.27249145507812
 30
0.0
 10
425.532470703125
 20
286.30996704101562
 30
0.0
 10
425.45248413085937
 20
286.31747436523437
 30
0.0
 10
425.37246704101562
 20
286.29248046875
 30
0.0
 10
425.29248046875
 20
286.239990234375
 30
0.0
 10
419.38998413085937
 20
282.82998657226562
 30
0.0
 10
419.32498168945312
 20
282.80746459960937
 30
0.0
 10
419.2774658203125
 20
282.77496337890625
 30
0.0
 10
419.24496459960937
 20
282.73248291015625
 30
0.0
 10
419.22998046875
 20
282.67999267578125
 30
0.0
 10
419.22998046875
 20
282.614990234375
 30
0.0
 10
419.24496459960937
 20
282.54498291015625
 30
0.0
 10
419.2774658203125
 20
282.46246337890625
 30
0.0
 10
419.32498168945312
 20
282.36996459960937
 30
0.0
 10
419.14996337890625
 20
282.26748657226562
 30
0.0
 10
418.39248657226562
 20
283.57498168945312
 30
0.0
 10
418.56997680664062
 20
283.677490234375
 30
0.0
  0
LWPOLYLINE
  5
B7
100
AcDbEntity
  8
0
 62
-1
420
0
370
1
 48
1.0
  6
CONTINUOUS
100
AcDbPolyline
 90
41
 70
0
 10
417.75497436523437
 20
285.09246826171875
 30
0.0
 10
417.81497192382812
 20
284.99496459960937
 30
0.0
 10
417.87496948242187
 20
284.91748046875
 30
0.0
 10
417.93496704101562
 20
284.85748291015625
 30
0.0
 10
417.99496459960937
 20
284.81747436523437
 30
0.0
 10
418.052490234375
 20
284.7974853515625
 30
0.0
 10
418.1099853515625
 20
284.79498291015625
 30
0.0
 10
418.16748046875
 20
284.80996704101562
 30
0.0
 10
418.2249755859375
 20
284.844970703125
 30
0.0
 10
424.16497802734375
 20
288.27496337890625
 30
0.0
 10
424.239990234375
 20
288.31497192382812
 30
0.0
 10
424.29498291015625
 20
288.364990234375
 30
0.0
 10
424.33248901367187
 20
288.4224853515625
 30
0.0
 10
424.34747314453125
 20
288.48748779296875
 30
0.0
 10
424.344970703125
 20
288.55996704101562
 30
0.0
 10
424.32498168945312
 20
288.63998413085937
 30
0.0
 10
424.282470703125
 20
288.72998046875
 30
0.0
 10
424.22247314453125
 20
288.82748413085937
 30
0.0
 10
424.39996337890625
 20
288.92999267578125
 30
0.0
 10
425.15496826171875
 20
287.61996459960937
 30
0.0
 10
424.97998046875
 20
287.51998901367187
 30
0.0
 10
424.93496704101562
 20
287.60247802734375
 30
0.0
 10
424.88748168945312
 20
287.66748046875
 30
0.0
 10
424.83746337890625
 20
287.70999145507812
 30
0.0
 10
424.782470703125
 20
287.7349853515625
 30
0.0
 10
424.7249755859375
 20
287.739990234375
 30
0.0
 10
424.66497802734375
 20
287.7249755859375
 30
0.0
 10
424.5999755859375
 20
287.69247436523437
 30
0.0
 10
424.532470703125
 20
287.63748168945312
 30
0.0
 10
418.59246826171875
 20
284.20999145507812
 30
0.0
 10
418.5224609375
 20
284.18246459960937
 30
0.0
 10
418.469970703125
 20
284.14498901367187
 30
0.0
 10
418.43496704101562
 20
284.09747314453125
 30
0.0
 10
418.41998291015625
 20
284.03997802734375
 30
0.0
 10
418.42498779296875
 20
283.97247314453125
 30
0.0
 10
418.44747924804687
 20
283.89498901367187
 30
0.0
 10
418.489990234375
 20
283.80996704101562
 30
0.0
 10
418.54998779296875
 20
283.71246337890625
 30
0.0
 10
418.37246704101562
 20
283.6099853515625
 30
0.0
 10
417.57748413085937
 20
284.989990234375
 30
0.0
 10
417.75497436523437
 20
285.09246826171875
 30
0.0
  0
LWPOLYLINE
  5
B8
100
AcDbEntity
  8
0
 62
-1
420
0
370
1
 48
1.0
  6
CONTINUOUS
100
AcDbPolyline
 90
37
 70
0
 10
416.95748901367187
 20
286.469970703125
 30
0.0
 10
417.01498413085937
 20
286.3599853515625
 30
0.0
 10
417.07247924804687
 20
286.27496337890625
 30
0.0
 10
417.12997436523437
 20
286.20999145507812
 30
0.0
 10
417.18997192382812
 20
286.16748046875
 30
0.0
 10
417.24996948242187
 20
286.14996337890625
 30
0.0
 10
417.30996704101562
 20
286.1524658203125
 30
0.0
 10
417.36996459960937
 20
286.177490234375
 30
0.0
 10
417.42996215820312
 20
286.2249755859375
 30
0.0
 10
423.36996459960938
 20
289.6524658203125
 30
0.0
 10
423.44998168945312
 20
289.68746948242187
 30
0.0
 10
423.50747680664062
 20
289.72998046875
 30
0.0
 10
423.54498291015625
 20
289.78497314453125
 30
0.0
 10
423.56246948242187
 20
289.84747314453125
 30
0.0
 10
423.55996704101562
 20
289.9224853515625
 30
0.0
 10
423.5374755859375
 20
290.00497436523437
 30
0.0
 10
423.49246215820312
 20
290.0999755859375
 30
0.0
 10
423.427490234375
 20
290.20498657226562
 30
0.0
 10
423.60498046875
 20
290.30746459960937
 30
0.0
 10
424.37997436523437
 20
288.9649658203125
 30
0.0
 10
424.20248413085937
 20
288.86248779296875
 30
0.0
 10
424.157470703125
 20
288.94747924804687
 30
0.0
 10
424.10748291015625
 20
289.01248168945312
 30
0.0
 10
424.052490234375
 20
289.05746459960937
 30
0.0
 10
423.99246215820312
 20
289.08499145507812
 30
0.0
 10
423.927490234375
 20
289.0899658203125
 30
0.0
 10
423.85748291015625
 20
289.07998657226563
 30
0.0
 10
423.782470703125
 20
289.0474853515625
 30
0.0
 10
423.70248413085937
 20
288.99746704101562
 30
0.0
 10
417.7974853515625
 20
285.58746337890625
 30
0.0
 10
417.69247436523437
 20
285.51998901367187
 30
0.0
 10
417.6474609375
 20
285.41998291015625
 30
0.0
 10
417.65997314453125
 20
285.2874755859375
 30
0.0
 10
417.73248291015625
 20
285.12747192382812
 30
0.0
 10
417.55746459960937
 20
285.02496337890625
 30
0.0
 10
416.77996826171875
 20
286.36749267578125
 30
0.0
 10
416.95748901367187
 20
286.469970703125
 30
0.0
  0
LWPOLYLINE
  5
B9
100
AcDbEntity
  8
0
 62
-1
420
0
370
1
 48
1.0
  6
CONTINUOUS
100
AcDbPolyline
 90
37
 70
0
 10
419.16998291015625
 20
282.23248291015625
 30
0.0
 10
419.344970703125
 20
282.33499145507812
 30
0.0
 10
419.44247436523437
 20
282.20248413085937
 30
0.0
 10
419.54998779296875
 20
282.12246704101562
 30
0.0
 10
419.66998291015625
 20
282.09747314453125
 30
0.0
 10
419.7974853515625
 20
282.12246704101562
 30
0.0
 10
426.95248413085937
 20
284.50997924804688
 30
0.0
 10
427.3599853515625
 20
283.802490234375
 30
0.0
 10
421.71746826171875
 20
278.79998779296875
 30
0.0
 10
421.6474609375
 20
278.69998168945312
 30
0.0
 10
421.63497924804687
 20
278.552490234375
 30
0.0
 10
421.677490234375
 20
278.36248779296875
 30
0.0
 10
421.77496337890625
 20
278.12747192382813
 30
0.0
 10
421.59747314453125
 20
278.02496337890625
 30
0.0
 10
420.69998168945312
 20
279.57998657226562
 30
0.0
 10
420.87747192382812
 20
279.68246459960937
 30
0.0
 10
420.94497680664062
 20
279.5899658203125
 30
0.0
 10
421.00997924804688
 20
279.51748657226562
 30
0.0
 10
421.07247924804687
 20
279.46246337890625
 30
0.0
 10
421.12997436523437
 20
279.427490234375
 30
0.0
 10
421.18496704101562
 20
279.40997314453125
 30
0.0
 10
421.2349853515625
 20
279.4124755859375
 30
0.0
 10
421.282470703125
 20
279.43246459960937
 30
0.0
 10
421.32748413085937
 20
279.47247314453125
 30
0.0
 10
426.47247314453125
 20
283.94998168945312
 30
0.0
 10
426.45248413085937
 20
283.9849853515625
 30
0.0
 10
420.00247192382812
 20
281.76998901367187
 30
0.0
 10
419.94247436523437
 20
281.73748779296875
 30
0.0
 10
419.89996337890625
 20
281.69497680664062
 30
0.0
 10
419.87496948242187
 20
281.63998413085937
 30
0.0
 10
419.86746215820312
 20
281.57498168945312
 30
0.0
 10
419.87496948242187
 20
281.49746704101562
 30
0.0
 10
419.89996337890625
 20
281.40997314453125
 30
0.0
 10
419.94247436523437
 20
281.31246948242187
 30
0.0
 10
419.99996948242187
 20
281.20248413085937
 30
0.0
 10
419.82247924804687
 20
281.0999755859375
 30
0.0
 10
419.16998291015625
 20
282.23248291015625
 30
0.0
  0
LWPOLYLINE
  5
BA
100
AcDbEntity
  8
0
 62
-1
420
0
370
1
 48
1.0
  6
CONTINUOUS
100
AcDbPolyline
 90
73
 70
0
 10
421.78997802734375
 20
299.47998046875
 30
0.0
 10
421.85748291015625
 20
299.4649658203125
 30
0.0
 10
421.91748046875
 20
299.4749755859375
 30
0.0
 10
421.969970703125
 20
299.51498413085937
 30
0.0
 10
422.01248168945312
 20
299.58248901367187
 30
0.0
 10
422.04998779296875
 20
299.677490234375
 30
0.0
 10
422.07998657226562
 20
299.802490234375
 30
0.0
 10
422.0999755859375
 20
299.95248413085937
 30
0.0
 10
422.114990234375
 20
300.13247680664062
 30
0.0
 10
422.31997680664062
 20
300.13247680664062
 30
0.0
 10
422.31997680664062
 20
298.45999145507812
 30
0.0
 10
422.114990234375
 20
298.45999145507812
 30
0.0
 10
422.09747314453125
 20
298.68496704101562
 30
0.0
 10
422.04498291015625
 20
298.86996459960937
 30
0.0
 10
421.95498657226562
 20
299.01248168945312
 30
0.0
 10
421.82998657226562
 20
299.11248779296875
 30
0.0
 10
418.56497192382812
 20
300.94998168945312
 30
0.0
 10
414.8499755859375
 20
298.989990234375
 30
0.0
 10
414.72747802734375
 20
298.87747192382812
 30
0.0
 10
414.64498901367187
 20
298.74746704101562
 30
0.0
 10
414.60498046875
 20
298.59246826171875
 30
0.0
 10
414.60498046875
 20
298.41998291015625
 30
0.0
 10
414.39996337890625
 20
298.41998291015625
 30
0.0
 10
414.39996337890625
 20
300.58248901367187
 30
0.0
 10
414.60498046875
 20
300.58248901367187
 30
0.0
 10
414.6099853515625
 20
300.364990234375
 30
0.0
 10
414.62747192382812
 20
300.18496704101562
 30
0.0
 10
414.657470703125
 20
300.03997802734375
 30
0.0
 10
414.69747924804687
 20
299.92999267578125
 30
0.0
 10
414.74746704101562
 20
299.85498046875
 30
0.0
 10
414.81246948242187
 20
299.81747436523437
 30
0.0
 10
414.88748168945312
 20
299.81497192382812
 30
0.0
 10
414.97247314453125
 20
299.84747314453125
 30
0.0
 10
417.86996459960937
 20
301.39996337890625
 30
0.0
 10
414.8499755859375
 20
303.114990234375
 30
0.0
 10
414.79248046875
 20
303.11996459960937
 30
0.0
 10
414.74246215820312
 20
303.094970703125
 30
0.0
 10
414.69998168945312
 20
303.04248046875
 30
0.0
 10
414.66497802734375
 20
302.95999145507812
 30
0.0
 10
414.63998413085937
 20
302.8499755859375
 30
0.0
 10
414.61996459960937
 20
302.70748901367187
 30
0.0
 10
414.6099853515625
 20
302.5374755859375
 30
0.0
 10
414.60498046875
 20
302.33746337890625
 30
0.0
 10
414.39996337890625
 20
302.33746337890625
 30
0.0
 10
414.39996337890625
 20
304.45999145507812
 30
0.0
 10
414.60498046875
 20
304.45999145507812
 30
0.0
 10
414.6099853515625
 20
304.27496337890625
 30
0.0
 10
414.62246704101562
 20
304.1099853515625
 30
0.0
 10
414.64498901367187
 20
303.95999145507812
 30
0.0
 10
414.677490234375
 20
303.82748413085937
 30
0.0
 10
414.71746826171875
 20
303.7149658203125
 30
0.0
 10
414.76498413085937
 20
303.61749267578125
 30
0.0
 10
414.82247924804688
 20
303.53997802734375
 30
0.0
 10
414.88998413085937
 20
303.47998046875
 30
0.0
 10
418.19747924804687
 20
301.56246948242187
 30
0.0
 10
421.82998657226562
 20
303.68496704101562
 30
0.0
 10
421.93997192382812
 20
303.82498168945312
 30
0.0
 10
422.0224609375
 20
304.00247192382812
 30
0.0
 10
422.08248901367187
 20
304.21246337890625
 30
0.0
 10
422.114990234375
 20
304.45999145507812
 30
0.0
 10
422.31997680664062
 20
304.45999145507812
 30
0.0
 10
422.31997680664062
 20
302.09246826171875
 30
0.0
 10
422.114990234375
 20
302.09246826171875
 30
0.0
 10
422.1099853515625
 20
302.29998779296875
 30
0.0
 10
422.094970703125
 20
302.4749755859375
 30
0.0
 10
422.06997680664062
 20
302.61749267578125
 30
0.0
 10
422.03497314453125
 20
302.72747802734375
 30
0.0
 10
421.98748779296875
 20
302.802490234375
 30
0.0
 10
421.93246459960937
 20
302.84246826171875
 30
0.0
 10
421.86746215820312
 20
302.85247802734375
 30
0.0
 10
421.78997802734375
 20
302.82748413085937
 30
0.0
 10
418.88998413085937
 20
301.15496826171875
 30
0.0
 10
421.78997802734375
 20
299.47998046875
 30
0.0
  0
LWPOLYLINE
  5
BB
100
AcDbEntity
  8
0
 62
-1
420
0
370
1
 48
1.0
  6
CONTINUOUS
100
AcDbPolyline
 90
41
 70
0
 10
414.60498046875
 20
298.25497436523437
 30
0.0
 10
414.6099853515625
 20
298.0274658203125
 30
0.0
 10
414.62747192382812
 20
297.83248901367187
 30
0.0
 10
414.657470703125
 20
297.66998291015625
 30
0.0
 10
414.69747924804687
 20
297.53997802734375
 30
0.0
 10
414.74746704101562
 20
297.44497680664062
 30
0.0
 10
414.81246948242187
 20
297.38247680664062
 30
0.0
 10
414.88748168945312
 20
297.35247802734375
 30
0.0
 10
414.97247314453125
 20
297.35748291015625
 30
0.0
 10
421.78997802734375
 20
297.35748291015625
 30
0.0
 10
421.86746215820312
 20
297.35247802734375
 30
0.0
 10
421.93246459960937
 20
297.38247680664062
 30
0.0
 10
421.98748779296875
 20
297.44497680664062
 30
0.0
 10
422.03497314453125
 20
297.53997802734375
 30
0.0
 10
422.06997680664062
 20
297.66998291015625
 30
0.0
 10
422.094970703125
 20
297.83248901367187
 30
0.0
 10
422.1099853515625
 20
298.0274658203125
 30
0.0
 10
422.114990234375
 20
298.25497436523437
 30
0.0
 10
422.31997680664062
 20
298.25497436523437
 30
0.0
 10
422.31997680664062
 20
295.51998901367187
 30
0.0
 10
422.114990234375
 20
295.51998901367187
 30
0.0
 10
422.1099853515625
 20
295.7774658203125
 30
0.0
 10
422.09246826171875
 20
295.99746704101562
 30
0.0
 10
422.06246948242187
 20
296.17999267578125
 30
0.0
 10
422.0224609375
 20
296.32748413085937
 30
0.0
 10
421.97247314453125
 20
296.43496704101562
 30
0.0
 10
421.907470703125
 20
296.50747680664062
 30
0.0
 10
421.83248901367187
 20
296.54248046875
 30
0.0
 10
421.74746704101562
 20
296.53997802734375
 30
0.0
 10
415.01248168945312
 20
296.53997802734375
 30
0.0
 10
414.91748046875
 20
296.54248046875
 30
0.0
 10
414.8349609375
 20
296.50747680664062
 30
0.0
 10
414.76498413085937
 20
296.43496704101562
 30
0.0
 10
414.70748901367187
 20
296.32748413085937
 30
0.0
 10
414.6624755859375
 20
296.17999267578125
 30
0.0
 10
414.62997436523437
 20
295.99746704101562
 30
0.0
 10
414.61248779296875
 20
295.7774658203125
 30
0.0
 10
414.60498046875
 20
295.51998901367187
 30
0.0
 10
414.39996337890625
 20
295.51998901367187
 30
0.0
 10
414.39996337890625
 20
298.25497436523437
 30
0.0
 10
414.60498046875
 20
298.25497436523437
 30
0.0
  0
LWPOLYLINE
  5
BC
100
AcDbEntity
  8
0
 62
-1
420
0
370
1
 48
1.0
  6
CONTINUOUS
100
AcDbPolyline
 90
85
 70
0
 10
424.6099853515625
 20
312.31997680664062
 30
0.0
 10
424.64996337890625
 20
312.29248046875
 30
0.0
 10
424.69998168945312
 20
312.29248046875
 30
0.0
 10
424.76248168945312
 20
312.32247924804688
 30
0.0
 10
424.8349609375
 20
312.37997436523437
 30
0.0
 10
424.91748046875
 20
312.46746826171875
 30
0.0
 10
425.00997924804687
 20
312.58499145507812
 30
0.0
 10
425.114990234375
 20
312.72998046875
 30
0.0
 10
425.23248291015625
 20
312.90496826171875
 30
0.0
 10
425.407470703125
 20
312.802490234375
 30
0.0
 10
424.34747314453125
 20
310.9649658203125
 30
0.0
 10
424.16998291015625
 20
311.06747436523437
 30
0.0
 10
424.25497436523437
 20
311.24496459960938
 30
0.0
 10
424.31997680664062
 20
311.41497802734375
 30
0.0
 10
424.36746215820312
 20
311.57498168945312
 30
0.0
 10
424.3974609375
 20
311.7249755859375
 30
0.0
 10
424.407470703125
 20
311.86749267578125
 30
0.0
 10
424.39996337890625
 20
312.00247192382812
 30
0.0
 10
424.37496948242187
 20
312.12747192382813
 30
0.0
 10
424.33248901367187
 20
312.24496459960937
 30
0.0
 10
422.5999755859375
 20
315.36749267578125
 30
0.0
 10
418.56497192382812
 20
315.48248291015625
 30
0.0
 10
418.45498657226563
 20
315.46246337890625
 30
0.0
 10
418.34246826171875
 20
315.4224853515625
 30
0.0
 10
418.22747802734375
 20
315.35748291015625
 30
0.0
 10
418.11248779296875
 20
315.27249145507812
 30
0.0
 10
417.99746704101562
 20
315.1624755859375
 30
0.0
 10
417.87997436523437
 20
315.02996826171875
 30
0.0
 10
417.75997924804687
 20
314.87496948242187
 30
0.0
 10
417.63998413085937
 20
314.69747924804687
 30
0.0
 10
417.46246337890625
 20
314.7974853515625
 30
0.0
 10
418.82998657226562
 20
317.16748046875
 30
0.0
 10
419.00747680664062
 20
317.06497192382812
 30
0.0
 10
418.91998291015625
 20
316.88497924804687
 30
0.0
 10
418.8499755859375
 20
316.7249755859375
 30
0.0
 10
418.79998779296875
 20
316.58746337890625
 30
0.0
 10
418.76998901367187
 20
316.47247314453125
 30
0.0
 10
418.75997924804687
 20
316.37496948242187
 30
0.0
 10
418.76748657226562
 20
316.29998779296875
 30
0.0
 10
418.7974853515625
 20
316.24746704101562
 30
0.0
 10
418.844970703125
 20
316.2149658203125
 30
0.0
 10
422.18746948242187
 20
316.12496948242187
 30
0.0
 10
420.65997314453125
 20
319.032470703125
 30
0.0
 10
420.5849609375
 20
319.11248779296875
 30
0.0
 10
420.50497436523437
 20
319.15496826171875
 30
0.0
 10
420.41748046875
 20
319.157470703125
 30
0.0
 10
420.32247924804688
 20
319.11996459960937
 30
0.0
 10
420.22247314453125
 20
319.04498291015625
 30
0.0
 10
420.11746215820313
 20
318.92999267578125
 30
0.0
 10
420.00497436523437
 20
318.7774658203125
 30
0.0
 10
419.88497924804687
 20
318.58499145507812
 30
0.0
 10
419.70748901367187
 20
318.68746948242187
 30
0.0
 10
420.78997802734375
 20
320.55996704101562
 30
0.0
 10
420.9649658203125
 20
320.45999145507812
 30
0.0
 10
420.87747192382812
 20
320.2974853515625
 30
0.0
 10
420.80496215820313
 20
320.14749145507812
 30
0.0
 10
420.75247192382812
 20
320.00997924804687
 30
0.0
 10
420.71746826171875
 20
319.88497924804687
 30
0.0
 10
420.69747924804687
 20
319.76998901367187
 30
0.0
 10
420.69497680664062
 20
319.66998291015625
 30
0.0
 10
420.71246337890625
 20
319.57998657226562
 30
0.0
 10
420.74496459960937
 20
319.50247192382812
 30
0.0
 10
422.552490234375
 20
316.10247802734375
 30
0.0
 10
426.739990234375
 20
316.0899658203125
 30
0.0
 10
426.82498168945312
 20
316.10247802734375
 30
0.0
 10
426.91497802734375
 20
316.14248657226562
 30
0.0
 10
427.00997924804687
 20
316.20748901367187
 30
0.0
 10
427.1099853515625
 20
316.29998779296875
 30
0.0
 10
427.2149658203125
 20
316.41748046875
 30
0.0
 10
427.32247924804687
 20
316.56497192382812
 30
0.0
 10
427.43746948242187
 20
316.73748779296875
 30
0.0
 10
427.55746459960937
 20
316.93496704101562
 30
0.0
 10
427.7349853515625
 20
316.83499145507812
 30
0.0
 10
426.36746215820313
 20
314.4649658203125
 30
0.0
 10
426.18997192382812
 20
314.56747436523437
 30
0.0
 10
426.28997802734375
 20
314.72998046875
 30
0.0
 10
426.36746215820313
 20
314.87496948242187
 30
0.0
 10
426.4224853515625
 20
314.99996948242187
 30
0.0
 10
426.45748901367187
 20
315.1099853515625
 30
0.0
 10
426.46746826171875
 20
315.19998168945312
 30
0.0
 10
426.45748901367187
 20
315.27249145507812
 30
0.0
 10
426.4224853515625
 20
315.32748413085937
 30
0.0
 10
426.36746215820313
 20
315.36248779296875
 30
0.0
 10
422.94998168945312
 20
315.4024658203125
 30
0.0
 10
424.6099853515625
 20
312.31997680664062
 30
0.0
  0
LWPOLYLINE
  5
BD
100
AcDbEntity
  8
0
 62
-1
420
0
370
1
 48
1.0
  6
CONTINUOUS
100
AcDbPolyline
 90
41
 70
0
 10
436.09747314453125
 20
332.81997680664062
 30
0.0
 10
435.9024658203125
 20
332.69998168945312
 30
0.0
 10
435.74246215820313
 20
332.58746337890625
 30
0.0
 10
435.61996459960937
 20
332.47747802734375
 30
0.0
 10
435.52996826171875
 20
332.37496948242187
 30
0.0
 10
435.4749755859375
 20
332.2774658203125
 30
0.0
 10
435.45748901367187
 20
332.18496704101562
 30
0.0
 10
435.47247314453125
 20
332.0999755859375
 30
0.0
 10
435.52496337890625
 20
332.01748657226562
 30
0.0
 10
438.9124755859375
 20
326.14996337890625
 30
0.0
 10
438.95748901367187
 20
326.09747314453125
 30
0.0
 10
439.0224609375
 20
326.06747436523437
 30
0.0
 10
439.10498046875
 20
326.05996704101562
 30
0.0
 10
439.20498657226562
 20
326.07247924804687
 30
0.0
 10
439.32498168945312
 20
326.10498046875
 30
0.0
 10
439.4649658203125
 20
326.157470703125
 30
0.0
 10
439.62246704101562
 20
326.23248291015625
 30
0.0
 10
439.7974853515625
 20
326.32998657226563
 30
0.0
 10
439.89996337890625
 20
326.15496826171875
 30
0.0
 10
437.81497192382813
 20
324.94998168945312
 30
0.0
 10
437.71246337890625
 20
325.12747192382812
 30
0.0
 10
437.86746215820312
 20
325.22247314453125
 30
0.0
 10
437.99746704101562
 20
325.31246948242187
 30
0.0
 10
438.0999755859375
 20
325.39749145507812
 30
0.0
 10
438.17996215820312
 20
325.47998046875
 30
0.0
 10
438.23248291015625
 20
325.55746459960937
 30
0.0
 10
438.25997924804688
 20
325.62997436523437
 30
0.0
 10
438.26248168945312
 20
325.69747924804687
 30
0.0
 10
438.23995971679687
 20
325.76248168945312
 30
0.0
 10
434.83248901367187
 20
331.66497802734375
 30
0.0
 10
434.77996826171875
 20
331.73248291015625
 30
0.0
 10
434.7099609375
 20
331.77996826171875
 30
0.0
 10
434.62496948242187
 20
331.80496215820312
 30
0.0
 10
434.5274658203125
 20
331.80746459960937
 30
0.0
 10
434.4124755859375
 20
331.7874755859375
 30
0.0
 10
434.282470703125
 20
331.74496459960937
 30
0.0
 10
434.13748168945312
 20
331.68246459960938
 30
0.0
 10
433.97747802734375
 20
331.594970703125
 30
0.0
 10
433.87496948242187
 20
331.77249145507812
 30
0.0
 10
435.99496459960937
 20
332.99746704101562
 30
0.0
 10
436.09747314453125
 20
332.81997680664062
 30
0.0
  0
LWPOLYLINE
  5
BE
100
AcDbEntity
  8
0
 62
-1
420
0
370
1
 48
1.0
  6
CONTINUOUS
100
AcDbPolyline
 90
77
 70
0
 10
433.14996337890625
 20
322.82247924804687
 30
0.0
 10
433.1724853515625
 20
322.74746704101562
 30
0.0
 10
433.21246337890625
 20
322.69747924804687
 30
0.0
 10
433.26998901367187
 20
322.66998291015625
 30
0.0
 10
433.34747314453125
 20
322.66497802734375
 30
0.0
 10
433.43997192382812
 20
322.68246459960937
 30
0.0
 10
433.54998779296875
 20
322.7249755859375
 30
0.0
 10
433.677490234375
 20
322.79248046875
 30
0.0
 10
433.82247924804687
 20
322.87997436523437
 30
0.0
 10
433.92498779296875
 20
322.70498657226562
 30
0.0
 10
432.36996459960937
 20
321.80499267578125
 30
0.0
 10
432.26748657226562
 20
321.98248291015625
 30
0.0
 10
432.407470703125
 20
322.06747436523437
 30
0.0
 10
432.52996826171875
 20
322.1524658203125
 30
0.0
 10
432.62997436523437
 20
322.23248291015625
 30
0.0
 10
432.7149658203125
 20
322.31246948242187
 30
0.0
 10
432.7774658203125
 20
322.38748168945312
 30
0.0
 10
432.82247924804687
 20
322.46246337890625
 30
0.0
 10
432.84747314453125
 20
322.532470703125
 30
0.0
 10
432.85247802734375
 20
322.60247802734375
 30
0.0
 10
432.88998413085937
 20
326.5374755859375
 30
0.0
 10
429.3974609375
 20
328.66998291015625
 30
0.0
 10
429.3349609375
 20
328.69998168945312
 30
0.0
 10
429.25997924804687
 20
328.7149658203125
 30
0.0
 10
429.1724853515625
 20
328.71246337890625
 30
0.0
 10
429.07498168945312
 20
328.69497680664062
 30
0.0
 10
428.9649658203125
 20
328.6624755859375
 30
0.0
 10
428.844970703125
 20
328.614990234375
 30
0.0
 10
428.71246337890625
 20
328.552490234375
 30
0.0
 10
428.56747436523437
 20
328.47247314453125
 30
0.0
 10
428.4649658203125
 20
328.64996337890625
 30
0.0
 10
430.58746337890625
 20
329.87496948242187
 30
0.0
 10
430.68746948242187
 20
329.69747924804687
 30
0.0
 10
430.51748657226562
 20
329.594970703125
 30
0.0
 10
430.37747192382812
 20
329.49996948242187
 30
0.0
 10
430.26998901367187
 20
329.40997314453125
 30
0.0
 10
430.19497680664062
 20
329.32998657226562
 30
0.0
 10
430.1474609375
 20
329.25747680664062
 30
0.0
 10
430.13247680664062
 20
329.19247436523437
 30
0.0
 10
430.1474609375
 20
329.13247680664062
 30
0.0
 10
430.19497680664062
 20
329.08248901367187
 30
0.0
 10
432.98748779296875
 20
327.34747314453125
 30
0.0
 10
433.06497192382812
 20
330.64498901367187
 30
0.0
 10
433.04498291015625
 20
330.73248291015625
 30
0.0
 10
433.00747680664062
 20
330.79998779296875
 30
0.0
 10
432.95498657226562
 20
330.8399658203125
 30
0.0
 10
432.88247680664062
 20
330.8599853515625
 30
0.0
 10
432.79248046875
 20
330.85247802734375
 30
0.0
 10
432.68746948242187
 20
330.82498168945312
 30
0.0
 10
432.56246948242187
 20
330.77249145507812
 30
0.0
 10
432.41998291015625
 20
330.69747924804688
 30
0.0
 10
432.31997680664062
 20
330.87496948242187
 30
0.0
 10
433.69747924804687
 20
331.66998291015625
 30
0.0
 10
433.79998779296875
 20
331.49496459960937
 30
0.0
 10
433.59747314453125
 20
331.35748291015625
 30
0.0
 10
433.45498657226562
 20
331.21246337890625
 30
0.0
 10
433.36996459960937
 20
331.05996704101562
 30
0.0
 10
433.34246826171875
 20
330.89996337890625
 30
0.0
 10
433.23748779296875
 20
327.1624755859375
 30
0.0
 10
436.88247680664062
 20
324.92999267578125
 30
0.0
 10
437.01498413085937
 20
324.864990234375
 30
0.0
 10
437.16998291015625
 20
324.8599853515625
 30
0.0
 10
437.34246826171875
 20
324.9124755859375
 30
0.0
 10
437.53497314453125
 20
325.02496337890625
 30
0.0
 10
437.63748168945312
 20
324.84747314453125
 30
0.0
 10
435.72747802734375
 20
323.74496459960937
 30
0.0
 10
435.62496948242187
 20
323.9224853515625
 30
0.0
 10
435.76748657226562
 20
323.99996948242187
 30
0.0
 10
435.88497924804687
 20
324.07748413085937
 30
0.0
 10
435.97747802734375
 20
324.157470703125
 30
0.0
 10
436.04498291015625
 20
324.2349853515625
 30
0.0
 10
436.08746337890625
 20
324.31497192382813
 30
0.0
 10
436.10498046875
 20
324.39248657226562
 30
0.0
 10
436.094970703125
 20
324.47247314453125
 30
0.0
 10
436.06246948242187
 20
324.552490234375
 30
0.0
 10
433.19497680664062
 20
326.33746337890625
 30
0.0
 10
433.14996337890625
 20
322.82247924804687
 30
0.0
  0
ENDSEC
  0
SECTION
  2
OBJECTS
  0
DICTIONARY
  5
C
100
AcDbDictionary
280
0
281
1
  3
ACAD_GROUP
350
D
  3
ACAD_LAYOUT
350
1A
  3
ACAD_MLINESTYLE
350
17
  3
ACAD_PLOTSETTINGS
350
19
  3
ACAD_PLOTSTYLENAME
350
E
  3
AcDbVariableDictionary
350
BF
  0
DICTIONARY
  5
D
100
AcDbDictionary
280
0
281
1
  0
ACDBDICTIONARYWDFLT
  5
E
100
AcDbDictionary
281
1
  3
Normal
350
F
100
AcDbDictionaryWithDefault
340
F
  0
ACDBPLACEHOLDER
  5
F
  0
DICTIONARY
  5
17
100
AcDbDictionary
280
0
281
1
  3
Standard
350
18
  0
MLINESTYLE
  5
18
100
AcDbMlineStyle
  2
STANDARD
 70
0
  3

 62
256
 51
90.0
 52
90.0
 71
2
 49
0.5
 62
256
  6
BYLAYER
 49
-0.5
 62
256
  6
BYLAYER
  0
DICTIONARY
  5
19
100
AcDbDictionary
280
0
281
1
  0
DICTIONARY
  5
1A
100
AcDbDictionary
281
1
  3
Layout1
350
1E
  3
Layout2
350
26
  3
Model
350
22
  0
LAYOUT
  5
1E
100
AcDbPlotSettings
  1

  2
none_device
  4

  6

 40
0.0
 41
0.0
 42
0.0
 43
0.0
 44
0.0
 45
0.0
 46
0.0
 47
0.0
 48
0.0
 49
0.0
140
0.0
141
0.0
142
1.0
143
1.0
 70
688
 72
0
 73
0
 74
5
  7

 75
16
147
1.0
148
0.0
149
0.0
100
AcDbLayout
  1
Layout1
 70
1
 71
1
 10
0.0
 20
0.0
 11
420.0
 21
297.0
 12
0.0
 22
0.0
 32
0.0
 14
100000000000000000000.0
 24
100000000000000000000.0
 34
100000000000000000000.0
 15
-100000000000000000000.0
 25
-100000000000000000000.0
 35
-100000000000000000000.0
146
0.0
 13
0.0
 23
0.0
 33
0.0
 16
1.0
 26
0.0
 36
0.0
 17
0.0
 27
1.0
 37
0.0
 76
0
330
1B
  0
LAYOUT
  5
22
100
AcDbPlotSettings
  1

  2
none_device
  4

  6

 40
0.0
 41
0.0
 42
0.0
 43
0.0
 44
0.0
 45
0.0
 46
0.0
 47
0.0
 48
0.0
 49
0.0
140
0.0
141
0.0
142
1.0
143
1.0
 70
1712
 72
0
 73
0
 74
0
  7

 75
0
147
1.0
148
0.0
149
0.0
100
AcDbLayout
  1
Model
 70
1
 71
0
 10
0.0
 20
0.0
 11
12.0
 21
9.0
 12
0.0
 22
0.0
 32
0.0
 14
0.0
 24
0.0
 34
0.0
 15
0.0
 25
0.0
 35
0.0
146
0.0
 13
0.0
 23
0.0
 33
0.0
 16
1.0
 26
0.0
 36
0.0
 17
0.0
 27
1.0
 37
0.0
 76
0
330
1F
  0
LAYOUT
  5
26
100
AcDbPlotSettings
  1

  2
none_device
  4

  6

 40
0.0
 41
0.0
 42
0.0
 43
0.0
 44
0.0
 45
0.0
 46
0.0
 47
0.0
 48
0.0
 49
0.0
140
0.0
141
0.0
142
1.0
143
1.0
 70
688
 72
0
 73
0
 74
5
  7

 75
16
147
1.0
148
0.0
149
0.0
100
AcDbLayout
  1
Layout2
 70
1
 71
2
 10
0.0
 20
0.0
 11
12.0
 21
9.0
 12
0.0
 22
0.0
 32
0.0
 14
0.0
 24
0.0
 34
0.0
 15
0.0
 25
0.0
 35
0.0
146
0.0
 13
0.0
 23
0.0
 33
0.0
 16
1.0
 26
0.0
 36
0.0
 17
0.0
 27
1.0
 37
0.0
 76
0
330
23
  0
DICTIONARY
  5
BF
100
AcDbDictionary
281
1
  3
DIMASSOC
350
C1
  3
HIDETEXT
350
C0
  0
DICTIONARYVAR
  5
C0
100
DictionaryVariables
280
0
  1
2
  0
DICTIONARYVAR
  5
C1
100
DictionaryVariables
280
0
  1
1
  0
ENDSEC
  0
EOF
